%TF.GenerationSoftware,KiCad,Pcbnew,9.0.0*%
%TF.CreationDate,2025-04-03T16:38:41+02:00*%
%TF.ProjectId,PCB_projetV2,5043425f-7072-46f6-9a65-7456322e6b69,03/04/2025*%
%TF.SameCoordinates,Original*%
%TF.FileFunction,Legend,Bot*%
%TF.FilePolarity,Positive*%
%FSLAX46Y46*%
G04 Gerber Fmt 4.6, Leading zero omitted, Abs format (unit mm)*
G04 Created by KiCad (PCBNEW 9.0.0) date 2025-04-03 16:38:41*
%MOMM*%
%LPD*%
G01*
G04 APERTURE LIST*
G04 Aperture macros list*
%AMRoundRect*
0 Rectangle with rounded corners*
0 $1 Rounding radius*
0 $2 $3 $4 $5 $6 $7 $8 $9 X,Y pos of 4 corners*
0 Add a 4 corners polygon primitive as box body*
4,1,4,$2,$3,$4,$5,$6,$7,$8,$9,$2,$3,0*
0 Add four circle primitives for the rounded corners*
1,1,$1+$1,$2,$3*
1,1,$1+$1,$4,$5*
1,1,$1+$1,$6,$7*
1,1,$1+$1,$8,$9*
0 Add four rect primitives between the rounded corners*
20,1,$1+$1,$2,$3,$4,$5,0*
20,1,$1+$1,$4,$5,$6,$7,0*
20,1,$1+$1,$6,$7,$8,$9,0*
20,1,$1+$1,$8,$9,$2,$3,0*%
G04 Aperture macros list end*
%ADD10C,0.100000*%
%ADD11C,0.200000*%
%ADD12C,0.125000*%
%ADD13C,0.150000*%
%ADD14C,0.120000*%
%ADD15R,1.700000X1.700000*%
%ADD16O,1.700000X1.700000*%
%ADD17C,5.400000*%
%ADD18RoundRect,0.250000X0.725000X-0.600000X0.725000X0.600000X-0.725000X0.600000X-0.725000X-0.600000X0*%
%ADD19O,1.950000X1.700000*%
%ADD20RoundRect,0.250000X-0.625000X0.350000X-0.625000X-0.350000X0.625000X-0.350000X0.625000X0.350000X0*%
%ADD21O,1.750000X1.200000*%
%ADD22RoundRect,0.250000X0.350000X0.625000X-0.350000X0.625000X-0.350000X-0.625000X0.350000X-0.625000X0*%
%ADD23O,1.200000X1.750000*%
%ADD24RoundRect,0.225000X-0.250000X0.225000X-0.250000X-0.225000X0.250000X-0.225000X0.250000X0.225000X0*%
%ADD25RoundRect,0.140000X0.140000X0.170000X-0.140000X0.170000X-0.140000X-0.170000X0.140000X-0.170000X0*%
%ADD26RoundRect,0.250000X-0.250000X-0.475000X0.250000X-0.475000X0.250000X0.475000X-0.250000X0.475000X0*%
%ADD27RoundRect,0.250000X0.600000X0.750000X-0.600000X0.750000X-0.600000X-0.750000X0.600000X-0.750000X0*%
%ADD28O,1.700000X2.000000*%
%ADD29C,2.000000*%
%ADD30RoundRect,0.250000X-0.600000X-0.750000X0.600000X-0.750000X0.600000X0.750000X-0.600000X0.750000X0*%
%ADD31RoundRect,0.225000X0.250000X-0.225000X0.250000X0.225000X-0.250000X0.225000X-0.250000X-0.225000X0*%
%ADD32R,1.700000X2.500000*%
%ADD33O,1.700000X2.500000*%
G04 APERTURE END LIST*
D10*
X175767580Y-110288972D02*
X174767580Y-109955639D01*
X174767580Y-109955639D02*
X175767580Y-109622306D01*
X174862819Y-108717544D02*
X174815200Y-108765163D01*
X174815200Y-108765163D02*
X174767580Y-108908020D01*
X174767580Y-108908020D02*
X174767580Y-109003258D01*
X174767580Y-109003258D02*
X174815200Y-109146115D01*
X174815200Y-109146115D02*
X174910438Y-109241353D01*
X174910438Y-109241353D02*
X175005676Y-109288972D01*
X175005676Y-109288972D02*
X175196152Y-109336591D01*
X175196152Y-109336591D02*
X175339009Y-109336591D01*
X175339009Y-109336591D02*
X175529485Y-109288972D01*
X175529485Y-109288972D02*
X175624723Y-109241353D01*
X175624723Y-109241353D02*
X175719961Y-109146115D01*
X175719961Y-109146115D02*
X175767580Y-109003258D01*
X175767580Y-109003258D02*
X175767580Y-108908020D01*
X175767580Y-108908020D02*
X175719961Y-108765163D01*
X175719961Y-108765163D02*
X175672342Y-108717544D01*
X174862819Y-107717544D02*
X174815200Y-107765163D01*
X174815200Y-107765163D02*
X174767580Y-107908020D01*
X174767580Y-107908020D02*
X174767580Y-108003258D01*
X174767580Y-108003258D02*
X174815200Y-108146115D01*
X174815200Y-108146115D02*
X174910438Y-108241353D01*
X174910438Y-108241353D02*
X175005676Y-108288972D01*
X175005676Y-108288972D02*
X175196152Y-108336591D01*
X175196152Y-108336591D02*
X175339009Y-108336591D01*
X175339009Y-108336591D02*
X175529485Y-108288972D01*
X175529485Y-108288972D02*
X175624723Y-108241353D01*
X175624723Y-108241353D02*
X175719961Y-108146115D01*
X175719961Y-108146115D02*
X175767580Y-108003258D01*
X175767580Y-108003258D02*
X175767580Y-107908020D01*
X175767580Y-107908020D02*
X175719961Y-107765163D01*
X175719961Y-107765163D02*
X175672342Y-107717544D01*
D11*
X155147219Y-102889673D02*
X154147219Y-102889673D01*
X154147219Y-102889673D02*
X154147219Y-103270625D01*
X154147219Y-103270625D02*
X154194838Y-103365863D01*
X154194838Y-103365863D02*
X154242457Y-103413482D01*
X154242457Y-103413482D02*
X154337695Y-103461101D01*
X154337695Y-103461101D02*
X154480552Y-103461101D01*
X154480552Y-103461101D02*
X154575790Y-103413482D01*
X154575790Y-103413482D02*
X154623409Y-103365863D01*
X154623409Y-103365863D02*
X154671028Y-103270625D01*
X154671028Y-103270625D02*
X154671028Y-102889673D01*
X155147219Y-103889673D02*
X154480552Y-103889673D01*
X154671028Y-103889673D02*
X154575790Y-103937292D01*
X154575790Y-103937292D02*
X154528171Y-103984911D01*
X154528171Y-103984911D02*
X154480552Y-104080149D01*
X154480552Y-104080149D02*
X154480552Y-104175387D01*
X155147219Y-104651578D02*
X155099600Y-104556340D01*
X155099600Y-104556340D02*
X155051980Y-104508721D01*
X155051980Y-104508721D02*
X154956742Y-104461102D01*
X154956742Y-104461102D02*
X154671028Y-104461102D01*
X154671028Y-104461102D02*
X154575790Y-104508721D01*
X154575790Y-104508721D02*
X154528171Y-104556340D01*
X154528171Y-104556340D02*
X154480552Y-104651578D01*
X154480552Y-104651578D02*
X154480552Y-104794435D01*
X154480552Y-104794435D02*
X154528171Y-104889673D01*
X154528171Y-104889673D02*
X154575790Y-104937292D01*
X154575790Y-104937292D02*
X154671028Y-104984911D01*
X154671028Y-104984911D02*
X154956742Y-104984911D01*
X154956742Y-104984911D02*
X155051980Y-104937292D01*
X155051980Y-104937292D02*
X155099600Y-104889673D01*
X155099600Y-104889673D02*
X155147219Y-104794435D01*
X155147219Y-104794435D02*
X155147219Y-104651578D01*
X154480552Y-105413483D02*
X155337695Y-105413483D01*
X155337695Y-105413483D02*
X155432933Y-105365864D01*
X155432933Y-105365864D02*
X155480552Y-105270626D01*
X155480552Y-105270626D02*
X155480552Y-105223007D01*
X154147219Y-105413483D02*
X154194838Y-105365864D01*
X154194838Y-105365864D02*
X154242457Y-105413483D01*
X154242457Y-105413483D02*
X154194838Y-105461102D01*
X154194838Y-105461102D02*
X154147219Y-105413483D01*
X154147219Y-105413483D02*
X154242457Y-105413483D01*
X155099600Y-106270625D02*
X155147219Y-106175387D01*
X155147219Y-106175387D02*
X155147219Y-105984911D01*
X155147219Y-105984911D02*
X155099600Y-105889673D01*
X155099600Y-105889673D02*
X155004361Y-105842054D01*
X155004361Y-105842054D02*
X154623409Y-105842054D01*
X154623409Y-105842054D02*
X154528171Y-105889673D01*
X154528171Y-105889673D02*
X154480552Y-105984911D01*
X154480552Y-105984911D02*
X154480552Y-106175387D01*
X154480552Y-106175387D02*
X154528171Y-106270625D01*
X154528171Y-106270625D02*
X154623409Y-106318244D01*
X154623409Y-106318244D02*
X154718647Y-106318244D01*
X154718647Y-106318244D02*
X154813885Y-105842054D01*
X154480552Y-106603959D02*
X154480552Y-106984911D01*
X154147219Y-106746816D02*
X155004361Y-106746816D01*
X155004361Y-106746816D02*
X155099600Y-106794435D01*
X155099600Y-106794435D02*
X155147219Y-106889673D01*
X155147219Y-106889673D02*
X155147219Y-106984911D01*
X155147219Y-108603959D02*
X155147219Y-108032531D01*
X155147219Y-108318245D02*
X154147219Y-108318245D01*
X154147219Y-108318245D02*
X154290076Y-108223007D01*
X154290076Y-108223007D02*
X154385314Y-108127769D01*
X154385314Y-108127769D02*
X154432933Y-108032531D01*
X154861504Y-108984912D02*
X154861504Y-109461102D01*
X155147219Y-108889674D02*
X154147219Y-109223007D01*
X154147219Y-109223007D02*
X155147219Y-109556340D01*
X158811980Y-100871101D02*
X158859600Y-100823482D01*
X158859600Y-100823482D02*
X158907219Y-100680625D01*
X158907219Y-100680625D02*
X158907219Y-100585387D01*
X158907219Y-100585387D02*
X158859600Y-100442530D01*
X158859600Y-100442530D02*
X158764361Y-100347292D01*
X158764361Y-100347292D02*
X158669123Y-100299673D01*
X158669123Y-100299673D02*
X158478647Y-100252054D01*
X158478647Y-100252054D02*
X158335790Y-100252054D01*
X158335790Y-100252054D02*
X158145314Y-100299673D01*
X158145314Y-100299673D02*
X158050076Y-100347292D01*
X158050076Y-100347292D02*
X157954838Y-100442530D01*
X157954838Y-100442530D02*
X157907219Y-100585387D01*
X157907219Y-100585387D02*
X157907219Y-100680625D01*
X157907219Y-100680625D02*
X157954838Y-100823482D01*
X157954838Y-100823482D02*
X158002457Y-100871101D01*
X158621504Y-101252054D02*
X158621504Y-101728244D01*
X158907219Y-101156816D02*
X157907219Y-101490149D01*
X157907219Y-101490149D02*
X158907219Y-101823482D01*
X158907219Y-102156816D02*
X157907219Y-102156816D01*
X157907219Y-102156816D02*
X157907219Y-102537768D01*
X157907219Y-102537768D02*
X157954838Y-102633006D01*
X157954838Y-102633006D02*
X158002457Y-102680625D01*
X158002457Y-102680625D02*
X158097695Y-102728244D01*
X158097695Y-102728244D02*
X158240552Y-102728244D01*
X158240552Y-102728244D02*
X158335790Y-102680625D01*
X158335790Y-102680625D02*
X158383409Y-102633006D01*
X158383409Y-102633006D02*
X158431028Y-102537768D01*
X158431028Y-102537768D02*
X158431028Y-102156816D01*
X157907219Y-103347292D02*
X157907219Y-103537768D01*
X157907219Y-103537768D02*
X157954838Y-103633006D01*
X157954838Y-103633006D02*
X158050076Y-103728244D01*
X158050076Y-103728244D02*
X158240552Y-103775863D01*
X158240552Y-103775863D02*
X158573885Y-103775863D01*
X158573885Y-103775863D02*
X158764361Y-103728244D01*
X158764361Y-103728244D02*
X158859600Y-103633006D01*
X158859600Y-103633006D02*
X158907219Y-103537768D01*
X158907219Y-103537768D02*
X158907219Y-103347292D01*
X158907219Y-103347292D02*
X158859600Y-103252054D01*
X158859600Y-103252054D02*
X158764361Y-103156816D01*
X158764361Y-103156816D02*
X158573885Y-103109197D01*
X158573885Y-103109197D02*
X158240552Y-103109197D01*
X158240552Y-103109197D02*
X158050076Y-103156816D01*
X158050076Y-103156816D02*
X157954838Y-103252054D01*
X157954838Y-103252054D02*
X157907219Y-103347292D01*
X158907219Y-104204435D02*
X157907219Y-104204435D01*
X157907219Y-104204435D02*
X157907219Y-104442530D01*
X157907219Y-104442530D02*
X157954838Y-104585387D01*
X157954838Y-104585387D02*
X158050076Y-104680625D01*
X158050076Y-104680625D02*
X158145314Y-104728244D01*
X158145314Y-104728244D02*
X158335790Y-104775863D01*
X158335790Y-104775863D02*
X158478647Y-104775863D01*
X158478647Y-104775863D02*
X158669123Y-104728244D01*
X158669123Y-104728244D02*
X158764361Y-104680625D01*
X158764361Y-104680625D02*
X158859600Y-104585387D01*
X158859600Y-104585387D02*
X158907219Y-104442530D01*
X158907219Y-104442530D02*
X158907219Y-104204435D01*
X158621504Y-105156816D02*
X158621504Y-105633006D01*
X158907219Y-105061578D02*
X157907219Y-105394911D01*
X157907219Y-105394911D02*
X158907219Y-105728244D01*
X157954838Y-106585387D02*
X157907219Y-106490149D01*
X157907219Y-106490149D02*
X157907219Y-106347292D01*
X157907219Y-106347292D02*
X157954838Y-106204435D01*
X157954838Y-106204435D02*
X158050076Y-106109197D01*
X158050076Y-106109197D02*
X158145314Y-106061578D01*
X158145314Y-106061578D02*
X158335790Y-106013959D01*
X158335790Y-106013959D02*
X158478647Y-106013959D01*
X158478647Y-106013959D02*
X158669123Y-106061578D01*
X158669123Y-106061578D02*
X158764361Y-106109197D01*
X158764361Y-106109197D02*
X158859600Y-106204435D01*
X158859600Y-106204435D02*
X158907219Y-106347292D01*
X158907219Y-106347292D02*
X158907219Y-106442530D01*
X158907219Y-106442530D02*
X158859600Y-106585387D01*
X158859600Y-106585387D02*
X158811980Y-106633006D01*
X158811980Y-106633006D02*
X158478647Y-106633006D01*
X158478647Y-106633006D02*
X158478647Y-106442530D01*
X158907219Y-107537768D02*
X158907219Y-107061578D01*
X158907219Y-107061578D02*
X157907219Y-107061578D01*
X158907219Y-107871102D02*
X157907219Y-107871102D01*
X157907219Y-109394911D02*
X158621504Y-109394911D01*
X158621504Y-109394911D02*
X158764361Y-109347292D01*
X158764361Y-109347292D02*
X158859600Y-109252054D01*
X158859600Y-109252054D02*
X158907219Y-109109197D01*
X158907219Y-109109197D02*
X158907219Y-109013959D01*
X158907219Y-110299673D02*
X158383409Y-110299673D01*
X158383409Y-110299673D02*
X158288171Y-110252054D01*
X158288171Y-110252054D02*
X158240552Y-110156816D01*
X158240552Y-110156816D02*
X158240552Y-109966340D01*
X158240552Y-109966340D02*
X158288171Y-109871102D01*
X158859600Y-110299673D02*
X158907219Y-110204435D01*
X158907219Y-110204435D02*
X158907219Y-109966340D01*
X158907219Y-109966340D02*
X158859600Y-109871102D01*
X158859600Y-109871102D02*
X158764361Y-109823483D01*
X158764361Y-109823483D02*
X158669123Y-109823483D01*
X158669123Y-109823483D02*
X158573885Y-109871102D01*
X158573885Y-109871102D02*
X158526266Y-109966340D01*
X158526266Y-109966340D02*
X158526266Y-110204435D01*
X158526266Y-110204435D02*
X158478647Y-110299673D01*
X158240552Y-110775864D02*
X158907219Y-110775864D01*
X158335790Y-110775864D02*
X158288171Y-110823483D01*
X158288171Y-110823483D02*
X158240552Y-110918721D01*
X158240552Y-110918721D02*
X158240552Y-111061578D01*
X158240552Y-111061578D02*
X158288171Y-111156816D01*
X158288171Y-111156816D02*
X158383409Y-111204435D01*
X158383409Y-111204435D02*
X158907219Y-111204435D01*
X158240552Y-112109197D02*
X158907219Y-112109197D01*
X158240552Y-111680626D02*
X158764361Y-111680626D01*
X158764361Y-111680626D02*
X158859600Y-111728245D01*
X158859600Y-111728245D02*
X158907219Y-111823483D01*
X158907219Y-111823483D02*
X158907219Y-111966340D01*
X158907219Y-111966340D02*
X158859600Y-112061578D01*
X158859600Y-112061578D02*
X158811980Y-112109197D01*
X158859600Y-112537769D02*
X158907219Y-112633007D01*
X158907219Y-112633007D02*
X158907219Y-112823483D01*
X158907219Y-112823483D02*
X158859600Y-112918721D01*
X158859600Y-112918721D02*
X158764361Y-112966340D01*
X158764361Y-112966340D02*
X158716742Y-112966340D01*
X158716742Y-112966340D02*
X158621504Y-112918721D01*
X158621504Y-112918721D02*
X158573885Y-112823483D01*
X158573885Y-112823483D02*
X158573885Y-112680626D01*
X158573885Y-112680626D02*
X158526266Y-112585388D01*
X158526266Y-112585388D02*
X158431028Y-112537769D01*
X158431028Y-112537769D02*
X158383409Y-112537769D01*
X158383409Y-112537769D02*
X158288171Y-112585388D01*
X158288171Y-112585388D02*
X158240552Y-112680626D01*
X158240552Y-112680626D02*
X158240552Y-112823483D01*
X158240552Y-112823483D02*
X158288171Y-112918721D01*
D10*
X167247580Y-109454687D02*
X167723771Y-109788020D01*
X167247580Y-110026115D02*
X168247580Y-110026115D01*
X168247580Y-110026115D02*
X168247580Y-109645163D01*
X168247580Y-109645163D02*
X168199961Y-109549925D01*
X168199961Y-109549925D02*
X168152342Y-109502306D01*
X168152342Y-109502306D02*
X168057104Y-109454687D01*
X168057104Y-109454687D02*
X167914247Y-109454687D01*
X167914247Y-109454687D02*
X167819009Y-109502306D01*
X167819009Y-109502306D02*
X167771390Y-109549925D01*
X167771390Y-109549925D02*
X167723771Y-109645163D01*
X167723771Y-109645163D02*
X167723771Y-110026115D01*
X168247580Y-109121353D02*
X167247580Y-108454687D01*
X168247580Y-108454687D02*
X167247580Y-109121353D01*
D12*
X173281261Y-109885859D02*
X173328880Y-109981097D01*
X173328880Y-109981097D02*
X173328880Y-110123954D01*
X173328880Y-110123954D02*
X173281261Y-110266811D01*
X173281261Y-110266811D02*
X173186023Y-110362049D01*
X173186023Y-110362049D02*
X173090785Y-110409668D01*
X173090785Y-110409668D02*
X172900309Y-110457287D01*
X172900309Y-110457287D02*
X172757452Y-110457287D01*
X172757452Y-110457287D02*
X172566976Y-110409668D01*
X172566976Y-110409668D02*
X172471738Y-110362049D01*
X172471738Y-110362049D02*
X172376500Y-110266811D01*
X172376500Y-110266811D02*
X172328880Y-110123954D01*
X172328880Y-110123954D02*
X172328880Y-110028716D01*
X172328880Y-110028716D02*
X172376500Y-109885859D01*
X172376500Y-109885859D02*
X172424119Y-109838240D01*
X172424119Y-109838240D02*
X172757452Y-109838240D01*
X172757452Y-109838240D02*
X172757452Y-110028716D01*
X172328880Y-109409668D02*
X173328880Y-109409668D01*
X173328880Y-109409668D02*
X172328880Y-108838240D01*
X172328880Y-108838240D02*
X173328880Y-108838240D01*
X172328880Y-108362049D02*
X173328880Y-108362049D01*
X173328880Y-108362049D02*
X173328880Y-108123954D01*
X173328880Y-108123954D02*
X173281261Y-107981097D01*
X173281261Y-107981097D02*
X173186023Y-107885859D01*
X173186023Y-107885859D02*
X173090785Y-107838240D01*
X173090785Y-107838240D02*
X172900309Y-107790621D01*
X172900309Y-107790621D02*
X172757452Y-107790621D01*
X172757452Y-107790621D02*
X172566976Y-107838240D01*
X172566976Y-107838240D02*
X172471738Y-107885859D01*
X172471738Y-107885859D02*
X172376500Y-107981097D01*
X172376500Y-107981097D02*
X172328880Y-108123954D01*
X172328880Y-108123954D02*
X172328880Y-108362049D01*
D10*
X170857580Y-110248972D02*
X170857580Y-109677544D01*
X169857580Y-109963258D02*
X170857580Y-109963258D01*
X170857580Y-109439448D02*
X169857580Y-108772782D01*
X170857580Y-108772782D02*
X169857580Y-109439448D01*
D13*
X151217857Y-87909580D02*
X151265476Y-87957200D01*
X151265476Y-87957200D02*
X151408333Y-88004819D01*
X151408333Y-88004819D02*
X151503571Y-88004819D01*
X151503571Y-88004819D02*
X151646428Y-87957200D01*
X151646428Y-87957200D02*
X151741666Y-87861961D01*
X151741666Y-87861961D02*
X151789285Y-87766723D01*
X151789285Y-87766723D02*
X151836904Y-87576247D01*
X151836904Y-87576247D02*
X151836904Y-87433390D01*
X151836904Y-87433390D02*
X151789285Y-87242914D01*
X151789285Y-87242914D02*
X151741666Y-87147676D01*
X151741666Y-87147676D02*
X151646428Y-87052438D01*
X151646428Y-87052438D02*
X151503571Y-87004819D01*
X151503571Y-87004819D02*
X151408333Y-87004819D01*
X151408333Y-87004819D02*
X151265476Y-87052438D01*
X151265476Y-87052438D02*
X151217857Y-87100057D01*
X150265476Y-88004819D02*
X150836904Y-88004819D01*
X150551190Y-88004819D02*
X150551190Y-87004819D01*
X150551190Y-87004819D02*
X150646428Y-87147676D01*
X150646428Y-87147676D02*
X150741666Y-87242914D01*
X150741666Y-87242914D02*
X150836904Y-87290533D01*
X149360714Y-87004819D02*
X149836904Y-87004819D01*
X149836904Y-87004819D02*
X149884523Y-87481009D01*
X149884523Y-87481009D02*
X149836904Y-87433390D01*
X149836904Y-87433390D02*
X149741666Y-87385771D01*
X149741666Y-87385771D02*
X149503571Y-87385771D01*
X149503571Y-87385771D02*
X149408333Y-87433390D01*
X149408333Y-87433390D02*
X149360714Y-87481009D01*
X149360714Y-87481009D02*
X149313095Y-87576247D01*
X149313095Y-87576247D02*
X149313095Y-87814342D01*
X149313095Y-87814342D02*
X149360714Y-87909580D01*
X149360714Y-87909580D02*
X149408333Y-87957200D01*
X149408333Y-87957200D02*
X149503571Y-88004819D01*
X149503571Y-88004819D02*
X149741666Y-88004819D01*
X149741666Y-88004819D02*
X149836904Y-87957200D01*
X149836904Y-87957200D02*
X149884523Y-87909580D01*
X172122857Y-106299580D02*
X172170476Y-106347200D01*
X172170476Y-106347200D02*
X172313333Y-106394819D01*
X172313333Y-106394819D02*
X172408571Y-106394819D01*
X172408571Y-106394819D02*
X172551428Y-106347200D01*
X172551428Y-106347200D02*
X172646666Y-106251961D01*
X172646666Y-106251961D02*
X172694285Y-106156723D01*
X172694285Y-106156723D02*
X172741904Y-105966247D01*
X172741904Y-105966247D02*
X172741904Y-105823390D01*
X172741904Y-105823390D02*
X172694285Y-105632914D01*
X172694285Y-105632914D02*
X172646666Y-105537676D01*
X172646666Y-105537676D02*
X172551428Y-105442438D01*
X172551428Y-105442438D02*
X172408571Y-105394819D01*
X172408571Y-105394819D02*
X172313333Y-105394819D01*
X172313333Y-105394819D02*
X172170476Y-105442438D01*
X172170476Y-105442438D02*
X172122857Y-105490057D01*
X171741904Y-105490057D02*
X171694285Y-105442438D01*
X171694285Y-105442438D02*
X171599047Y-105394819D01*
X171599047Y-105394819D02*
X171360952Y-105394819D01*
X171360952Y-105394819D02*
X171265714Y-105442438D01*
X171265714Y-105442438D02*
X171218095Y-105490057D01*
X171218095Y-105490057D02*
X171170476Y-105585295D01*
X171170476Y-105585295D02*
X171170476Y-105680533D01*
X171170476Y-105680533D02*
X171218095Y-105823390D01*
X171218095Y-105823390D02*
X171789523Y-106394819D01*
X171789523Y-106394819D02*
X171170476Y-106394819D01*
X170837142Y-105394819D02*
X170218095Y-105394819D01*
X170218095Y-105394819D02*
X170551428Y-105775771D01*
X170551428Y-105775771D02*
X170408571Y-105775771D01*
X170408571Y-105775771D02*
X170313333Y-105823390D01*
X170313333Y-105823390D02*
X170265714Y-105871009D01*
X170265714Y-105871009D02*
X170218095Y-105966247D01*
X170218095Y-105966247D02*
X170218095Y-106204342D01*
X170218095Y-106204342D02*
X170265714Y-106299580D01*
X170265714Y-106299580D02*
X170313333Y-106347200D01*
X170313333Y-106347200D02*
X170408571Y-106394819D01*
X170408571Y-106394819D02*
X170694285Y-106394819D01*
X170694285Y-106394819D02*
X170789523Y-106347200D01*
X170789523Y-106347200D02*
X170837142Y-106299580D01*
X148192857Y-88009580D02*
X148240476Y-88057200D01*
X148240476Y-88057200D02*
X148383333Y-88104819D01*
X148383333Y-88104819D02*
X148478571Y-88104819D01*
X148478571Y-88104819D02*
X148621428Y-88057200D01*
X148621428Y-88057200D02*
X148716666Y-87961961D01*
X148716666Y-87961961D02*
X148764285Y-87866723D01*
X148764285Y-87866723D02*
X148811904Y-87676247D01*
X148811904Y-87676247D02*
X148811904Y-87533390D01*
X148811904Y-87533390D02*
X148764285Y-87342914D01*
X148764285Y-87342914D02*
X148716666Y-87247676D01*
X148716666Y-87247676D02*
X148621428Y-87152438D01*
X148621428Y-87152438D02*
X148478571Y-87104819D01*
X148478571Y-87104819D02*
X148383333Y-87104819D01*
X148383333Y-87104819D02*
X148240476Y-87152438D01*
X148240476Y-87152438D02*
X148192857Y-87200057D01*
X147240476Y-88104819D02*
X147811904Y-88104819D01*
X147526190Y-88104819D02*
X147526190Y-87104819D01*
X147526190Y-87104819D02*
X147621428Y-87247676D01*
X147621428Y-87247676D02*
X147716666Y-87342914D01*
X147716666Y-87342914D02*
X147811904Y-87390533D01*
X146383333Y-87104819D02*
X146573809Y-87104819D01*
X146573809Y-87104819D02*
X146669047Y-87152438D01*
X146669047Y-87152438D02*
X146716666Y-87200057D01*
X146716666Y-87200057D02*
X146811904Y-87342914D01*
X146811904Y-87342914D02*
X146859523Y-87533390D01*
X146859523Y-87533390D02*
X146859523Y-87914342D01*
X146859523Y-87914342D02*
X146811904Y-88009580D01*
X146811904Y-88009580D02*
X146764285Y-88057200D01*
X146764285Y-88057200D02*
X146669047Y-88104819D01*
X146669047Y-88104819D02*
X146478571Y-88104819D01*
X146478571Y-88104819D02*
X146383333Y-88057200D01*
X146383333Y-88057200D02*
X146335714Y-88009580D01*
X146335714Y-88009580D02*
X146288095Y-87914342D01*
X146288095Y-87914342D02*
X146288095Y-87676247D01*
X146288095Y-87676247D02*
X146335714Y-87581009D01*
X146335714Y-87581009D02*
X146383333Y-87533390D01*
X146383333Y-87533390D02*
X146478571Y-87485771D01*
X146478571Y-87485771D02*
X146669047Y-87485771D01*
X146669047Y-87485771D02*
X146764285Y-87533390D01*
X146764285Y-87533390D02*
X146811904Y-87581009D01*
X146811904Y-87581009D02*
X146859523Y-87676247D01*
X127729819Y-87641666D02*
X128444104Y-87641666D01*
X128444104Y-87641666D02*
X128586961Y-87594047D01*
X128586961Y-87594047D02*
X128682200Y-87498809D01*
X128682200Y-87498809D02*
X128729819Y-87355952D01*
X128729819Y-87355952D02*
X128729819Y-87260714D01*
X128063152Y-88546428D02*
X128729819Y-88546428D01*
X127682200Y-88308333D02*
X128396485Y-88070238D01*
X128396485Y-88070238D02*
X128396485Y-88689285D01*
X158609580Y-84632142D02*
X158657200Y-84584523D01*
X158657200Y-84584523D02*
X158704819Y-84441666D01*
X158704819Y-84441666D02*
X158704819Y-84346428D01*
X158704819Y-84346428D02*
X158657200Y-84203571D01*
X158657200Y-84203571D02*
X158561961Y-84108333D01*
X158561961Y-84108333D02*
X158466723Y-84060714D01*
X158466723Y-84060714D02*
X158276247Y-84013095D01*
X158276247Y-84013095D02*
X158133390Y-84013095D01*
X158133390Y-84013095D02*
X157942914Y-84060714D01*
X157942914Y-84060714D02*
X157847676Y-84108333D01*
X157847676Y-84108333D02*
X157752438Y-84203571D01*
X157752438Y-84203571D02*
X157704819Y-84346428D01*
X157704819Y-84346428D02*
X157704819Y-84441666D01*
X157704819Y-84441666D02*
X157752438Y-84584523D01*
X157752438Y-84584523D02*
X157800057Y-84632142D01*
X158704819Y-85584523D02*
X158704819Y-85013095D01*
X158704819Y-85298809D02*
X157704819Y-85298809D01*
X157704819Y-85298809D02*
X157847676Y-85203571D01*
X157847676Y-85203571D02*
X157942914Y-85108333D01*
X157942914Y-85108333D02*
X157990533Y-85013095D01*
X157704819Y-85917857D02*
X157704819Y-86584523D01*
X157704819Y-86584523D02*
X158704819Y-86155952D01*
X126109523Y-90779819D02*
X126109523Y-91494104D01*
X126109523Y-91494104D02*
X126157142Y-91636961D01*
X126157142Y-91636961D02*
X126252380Y-91732200D01*
X126252380Y-91732200D02*
X126395237Y-91779819D01*
X126395237Y-91779819D02*
X126490475Y-91779819D01*
X125109523Y-91779819D02*
X125680951Y-91779819D01*
X125395237Y-91779819D02*
X125395237Y-90779819D01*
X125395237Y-90779819D02*
X125490475Y-90922676D01*
X125490475Y-90922676D02*
X125585713Y-91017914D01*
X125585713Y-91017914D02*
X125680951Y-91065533D01*
X124776189Y-90779819D02*
X124157142Y-90779819D01*
X124157142Y-90779819D02*
X124490475Y-91160771D01*
X124490475Y-91160771D02*
X124347618Y-91160771D01*
X124347618Y-91160771D02*
X124252380Y-91208390D01*
X124252380Y-91208390D02*
X124204761Y-91256009D01*
X124204761Y-91256009D02*
X124157142Y-91351247D01*
X124157142Y-91351247D02*
X124157142Y-91589342D01*
X124157142Y-91589342D02*
X124204761Y-91684580D01*
X124204761Y-91684580D02*
X124252380Y-91732200D01*
X124252380Y-91732200D02*
X124347618Y-91779819D01*
X124347618Y-91779819D02*
X124633332Y-91779819D01*
X124633332Y-91779819D02*
X124728570Y-91732200D01*
X124728570Y-91732200D02*
X124776189Y-91684580D01*
X142159523Y-95929819D02*
X142159523Y-96644104D01*
X142159523Y-96644104D02*
X142207142Y-96786961D01*
X142207142Y-96786961D02*
X142302380Y-96882200D01*
X142302380Y-96882200D02*
X142445237Y-96929819D01*
X142445237Y-96929819D02*
X142540475Y-96929819D01*
X141159523Y-96929819D02*
X141730951Y-96929819D01*
X141445237Y-96929819D02*
X141445237Y-95929819D01*
X141445237Y-95929819D02*
X141540475Y-96072676D01*
X141540475Y-96072676D02*
X141635713Y-96167914D01*
X141635713Y-96167914D02*
X141730951Y-96215533D01*
X140302380Y-96263152D02*
X140302380Y-96929819D01*
X140540475Y-95882200D02*
X140778570Y-96596485D01*
X140778570Y-96596485D02*
X140159523Y-96596485D01*
X168536904Y-97527819D02*
X167965476Y-97527819D01*
X168251190Y-98527819D02*
X168251190Y-97527819D01*
X167632142Y-98527819D02*
X167632142Y-97527819D01*
X167632142Y-97527819D02*
X167251190Y-97527819D01*
X167251190Y-97527819D02*
X167155952Y-97575438D01*
X167155952Y-97575438D02*
X167108333Y-97623057D01*
X167108333Y-97623057D02*
X167060714Y-97718295D01*
X167060714Y-97718295D02*
X167060714Y-97861152D01*
X167060714Y-97861152D02*
X167108333Y-97956390D01*
X167108333Y-97956390D02*
X167155952Y-98004009D01*
X167155952Y-98004009D02*
X167251190Y-98051628D01*
X167251190Y-98051628D02*
X167632142Y-98051628D01*
X166679761Y-97623057D02*
X166632142Y-97575438D01*
X166632142Y-97575438D02*
X166536904Y-97527819D01*
X166536904Y-97527819D02*
X166298809Y-97527819D01*
X166298809Y-97527819D02*
X166203571Y-97575438D01*
X166203571Y-97575438D02*
X166155952Y-97623057D01*
X166155952Y-97623057D02*
X166108333Y-97718295D01*
X166108333Y-97718295D02*
X166108333Y-97813533D01*
X166108333Y-97813533D02*
X166155952Y-97956390D01*
X166155952Y-97956390D02*
X166727380Y-98527819D01*
X166727380Y-98527819D02*
X166108333Y-98527819D01*
X135929819Y-105166666D02*
X136644104Y-105166666D01*
X136644104Y-105166666D02*
X136786961Y-105119047D01*
X136786961Y-105119047D02*
X136882200Y-105023809D01*
X136882200Y-105023809D02*
X136929819Y-104880952D01*
X136929819Y-104880952D02*
X136929819Y-104785714D01*
X136929819Y-105690476D02*
X136929819Y-105880952D01*
X136929819Y-105880952D02*
X136882200Y-105976190D01*
X136882200Y-105976190D02*
X136834580Y-106023809D01*
X136834580Y-106023809D02*
X136691723Y-106119047D01*
X136691723Y-106119047D02*
X136501247Y-106166666D01*
X136501247Y-106166666D02*
X136120295Y-106166666D01*
X136120295Y-106166666D02*
X136025057Y-106119047D01*
X136025057Y-106119047D02*
X135977438Y-106071428D01*
X135977438Y-106071428D02*
X135929819Y-105976190D01*
X135929819Y-105976190D02*
X135929819Y-105785714D01*
X135929819Y-105785714D02*
X135977438Y-105690476D01*
X135977438Y-105690476D02*
X136025057Y-105642857D01*
X136025057Y-105642857D02*
X136120295Y-105595238D01*
X136120295Y-105595238D02*
X136358390Y-105595238D01*
X136358390Y-105595238D02*
X136453628Y-105642857D01*
X136453628Y-105642857D02*
X136501247Y-105690476D01*
X136501247Y-105690476D02*
X136548866Y-105785714D01*
X136548866Y-105785714D02*
X136548866Y-105976190D01*
X136548866Y-105976190D02*
X136501247Y-106071428D01*
X136501247Y-106071428D02*
X136453628Y-106119047D01*
X136453628Y-106119047D02*
X136358390Y-106166666D01*
X161061904Y-78329819D02*
X160490476Y-78329819D01*
X160776190Y-79329819D02*
X160776190Y-78329819D01*
X160157142Y-79329819D02*
X160157142Y-78329819D01*
X160157142Y-78329819D02*
X159776190Y-78329819D01*
X159776190Y-78329819D02*
X159680952Y-78377438D01*
X159680952Y-78377438D02*
X159633333Y-78425057D01*
X159633333Y-78425057D02*
X159585714Y-78520295D01*
X159585714Y-78520295D02*
X159585714Y-78663152D01*
X159585714Y-78663152D02*
X159633333Y-78758390D01*
X159633333Y-78758390D02*
X159680952Y-78806009D01*
X159680952Y-78806009D02*
X159776190Y-78853628D01*
X159776190Y-78853628D02*
X160157142Y-78853628D01*
X158633333Y-79329819D02*
X159204761Y-79329819D01*
X158919047Y-79329819D02*
X158919047Y-78329819D01*
X158919047Y-78329819D02*
X159014285Y-78472676D01*
X159014285Y-78472676D02*
X159109523Y-78567914D01*
X159109523Y-78567914D02*
X159204761Y-78615533D01*
X136229819Y-80991666D02*
X136944104Y-80991666D01*
X136944104Y-80991666D02*
X137086961Y-80944047D01*
X137086961Y-80944047D02*
X137182200Y-80848809D01*
X137182200Y-80848809D02*
X137229819Y-80705952D01*
X137229819Y-80705952D02*
X137229819Y-80610714D01*
X137229819Y-81991666D02*
X137229819Y-81420238D01*
X137229819Y-81705952D02*
X136229819Y-81705952D01*
X136229819Y-81705952D02*
X136372676Y-81610714D01*
X136372676Y-81610714D02*
X136467914Y-81515476D01*
X136467914Y-81515476D02*
X136515533Y-81420238D01*
X167129580Y-78297142D02*
X167177200Y-78249523D01*
X167177200Y-78249523D02*
X167224819Y-78106666D01*
X167224819Y-78106666D02*
X167224819Y-78011428D01*
X167224819Y-78011428D02*
X167177200Y-77868571D01*
X167177200Y-77868571D02*
X167081961Y-77773333D01*
X167081961Y-77773333D02*
X166986723Y-77725714D01*
X166986723Y-77725714D02*
X166796247Y-77678095D01*
X166796247Y-77678095D02*
X166653390Y-77678095D01*
X166653390Y-77678095D02*
X166462914Y-77725714D01*
X166462914Y-77725714D02*
X166367676Y-77773333D01*
X166367676Y-77773333D02*
X166272438Y-77868571D01*
X166272438Y-77868571D02*
X166224819Y-78011428D01*
X166224819Y-78011428D02*
X166224819Y-78106666D01*
X166224819Y-78106666D02*
X166272438Y-78249523D01*
X166272438Y-78249523D02*
X166320057Y-78297142D01*
X167224819Y-79249523D02*
X167224819Y-78678095D01*
X167224819Y-78963809D02*
X166224819Y-78963809D01*
X166224819Y-78963809D02*
X166367676Y-78868571D01*
X166367676Y-78868571D02*
X166462914Y-78773333D01*
X166462914Y-78773333D02*
X166510533Y-78678095D01*
X167224819Y-79725714D02*
X167224819Y-79916190D01*
X167224819Y-79916190D02*
X167177200Y-80011428D01*
X167177200Y-80011428D02*
X167129580Y-80059047D01*
X167129580Y-80059047D02*
X166986723Y-80154285D01*
X166986723Y-80154285D02*
X166796247Y-80201904D01*
X166796247Y-80201904D02*
X166415295Y-80201904D01*
X166415295Y-80201904D02*
X166320057Y-80154285D01*
X166320057Y-80154285D02*
X166272438Y-80106666D01*
X166272438Y-80106666D02*
X166224819Y-80011428D01*
X166224819Y-80011428D02*
X166224819Y-79820952D01*
X166224819Y-79820952D02*
X166272438Y-79725714D01*
X166272438Y-79725714D02*
X166320057Y-79678095D01*
X166320057Y-79678095D02*
X166415295Y-79630476D01*
X166415295Y-79630476D02*
X166653390Y-79630476D01*
X166653390Y-79630476D02*
X166748628Y-79678095D01*
X166748628Y-79678095D02*
X166796247Y-79725714D01*
X166796247Y-79725714D02*
X166843866Y-79820952D01*
X166843866Y-79820952D02*
X166843866Y-80011428D01*
X166843866Y-80011428D02*
X166796247Y-80106666D01*
X166796247Y-80106666D02*
X166748628Y-80154285D01*
X166748628Y-80154285D02*
X166653390Y-80201904D01*
X152909523Y-77954819D02*
X152909523Y-78669104D01*
X152909523Y-78669104D02*
X152957142Y-78811961D01*
X152957142Y-78811961D02*
X153052380Y-78907200D01*
X153052380Y-78907200D02*
X153195237Y-78954819D01*
X153195237Y-78954819D02*
X153290475Y-78954819D01*
X151909523Y-78954819D02*
X152480951Y-78954819D01*
X152195237Y-78954819D02*
X152195237Y-77954819D01*
X152195237Y-77954819D02*
X152290475Y-78097676D01*
X152290475Y-78097676D02*
X152385713Y-78192914D01*
X152385713Y-78192914D02*
X152480951Y-78240533D01*
X150957142Y-78954819D02*
X151528570Y-78954819D01*
X151242856Y-78954819D02*
X151242856Y-77954819D01*
X151242856Y-77954819D02*
X151338094Y-78097676D01*
X151338094Y-78097676D02*
X151433332Y-78192914D01*
X151433332Y-78192914D02*
X151528570Y-78240533D01*
D14*
X149290000Y-85159420D02*
X149290000Y-85440580D01*
X150310000Y-85159420D02*
X150310000Y-85440580D01*
X171787836Y-106730000D02*
X171572164Y-106730000D01*
X171787836Y-107450000D02*
X171572164Y-107450000D01*
X147190000Y-85159420D02*
X147190000Y-85440580D01*
X148210000Y-85159420D02*
X148210000Y-85440580D01*
X129415000Y-74790000D02*
X135385000Y-74790000D01*
X129415000Y-92410000D02*
X129415000Y-74790000D01*
X130175000Y-75550000D02*
X130175000Y-83600000D01*
X130175000Y-91650000D02*
X130175000Y-83600000D01*
X133125000Y-74800000D02*
X133125000Y-75550000D01*
X133125000Y-75550000D02*
X130175000Y-75550000D01*
X133125000Y-91650000D02*
X130175000Y-91650000D01*
X133125000Y-92400000D02*
X133125000Y-91650000D01*
X134625000Y-74800000D02*
X135375000Y-74800000D01*
X134625000Y-76600000D02*
X134625000Y-74800000D01*
X134625000Y-78100000D02*
X135375000Y-78100000D01*
X134625000Y-89100000D02*
X134625000Y-78100000D01*
X134625000Y-90600000D02*
X135375000Y-90600000D01*
X134625000Y-92400000D02*
X134625000Y-90600000D01*
X135375000Y-74800000D02*
X135375000Y-76600000D01*
X135375000Y-76600000D02*
X134625000Y-76600000D01*
X135375000Y-78100000D02*
X135375000Y-89100000D01*
X135375000Y-89100000D02*
X134625000Y-89100000D01*
X135375000Y-90600000D02*
X135375000Y-92400000D01*
X135375000Y-92400000D02*
X134625000Y-92400000D01*
X135385000Y-74790000D02*
X135385000Y-92410000D01*
X135385000Y-92410000D02*
X129415000Y-92410000D01*
X135675000Y-91450000D02*
X135675000Y-92700000D01*
X135675000Y-92700000D02*
X134425000Y-92700000D01*
X155438748Y-84565000D02*
X155961252Y-84565000D01*
X155438748Y-86035000D02*
X155961252Y-86035000D01*
X123970000Y-94995000D02*
X123970000Y-97595000D01*
X126630000Y-92395000D02*
X125300000Y-92395000D01*
X126630000Y-93725000D02*
X126630000Y-92395000D01*
X126630000Y-94995000D02*
X123970000Y-94995000D01*
X126630000Y-94995000D02*
X126630000Y-97595000D01*
X126630000Y-97595000D02*
X123970000Y-97595000D01*
X137490000Y-97565000D02*
X145210000Y-97565000D01*
X137490000Y-100085000D02*
X138490000Y-100085000D01*
X137490000Y-101585000D02*
X137490000Y-97565000D01*
X137990000Y-98065000D02*
X137990000Y-99275000D01*
X137990000Y-99275000D02*
X137490000Y-99275000D01*
X138490000Y-100085000D02*
X138490000Y-101585000D01*
X144210000Y-100085000D02*
X144210000Y-101585000D01*
X144710000Y-98065000D02*
X137990000Y-98065000D01*
X144710000Y-99275000D02*
X144710000Y-98065000D01*
X145210000Y-97565000D02*
X145210000Y-101585000D01*
X145210000Y-99275000D02*
X144710000Y-99275000D01*
X145210000Y-100085000D02*
X144210000Y-100085000D01*
X145210000Y-101585000D02*
X137490000Y-101585000D01*
X145510000Y-99385000D02*
X145510000Y-101885000D01*
X145510000Y-101885000D02*
X143010000Y-101885000D01*
X168475000Y-96075000D02*
G75*
G02*
X166075000Y-96075000I-1200000J0D01*
G01*
X166075000Y-96075000D02*
G75*
G02*
X168475000Y-96075000I1200000J0D01*
G01*
X129415000Y-96690000D02*
X135385000Y-96690000D01*
X129415000Y-114310000D02*
X129415000Y-96690000D01*
X130175000Y-97450000D02*
X130175000Y-105500000D01*
X130175000Y-113550000D02*
X130175000Y-105500000D01*
X133125000Y-96700000D02*
X133125000Y-97450000D01*
X133125000Y-97450000D02*
X130175000Y-97450000D01*
X133125000Y-113550000D02*
X130175000Y-113550000D01*
X133125000Y-114300000D02*
X133125000Y-113550000D01*
X134625000Y-96700000D02*
X135375000Y-96700000D01*
X134625000Y-98500000D02*
X134625000Y-96700000D01*
X134625000Y-100000000D02*
X135375000Y-100000000D01*
X134625000Y-111000000D02*
X134625000Y-100000000D01*
X134625000Y-112500000D02*
X135375000Y-112500000D01*
X134625000Y-114300000D02*
X134625000Y-112500000D01*
X135375000Y-96700000D02*
X135375000Y-98500000D01*
X135375000Y-98500000D02*
X134625000Y-98500000D01*
X135375000Y-100000000D02*
X135375000Y-111000000D01*
X135375000Y-111000000D02*
X134625000Y-111000000D01*
X135375000Y-112500000D02*
X135375000Y-114300000D01*
X135375000Y-114300000D02*
X134625000Y-114300000D01*
X135385000Y-96690000D02*
X135385000Y-114310000D01*
X135385000Y-114310000D02*
X129415000Y-114310000D01*
X135675000Y-113350000D02*
X135675000Y-114600000D01*
X135675000Y-114600000D02*
X134425000Y-114600000D01*
X161000000Y-81100000D02*
G75*
G02*
X158600000Y-81100000I-1200000J0D01*
G01*
X158600000Y-81100000D02*
G75*
G02*
X161000000Y-81100000I1200000J0D01*
G01*
X137840000Y-74890000D02*
X137840000Y-86610000D01*
X137840000Y-86610000D02*
X139260000Y-86610000D01*
X139260000Y-86610000D02*
X139260000Y-82110000D01*
X140100000Y-84700000D02*
X140700000Y-84700000D01*
X140150000Y-75500000D02*
X140650000Y-75500000D01*
X140150000Y-81000000D02*
X140150000Y-75500000D01*
X140400000Y-84100000D02*
X140100000Y-84700000D01*
X140650000Y-75500000D02*
X140650000Y-81000000D01*
X140650000Y-81000000D02*
X140150000Y-81000000D01*
X140700000Y-84700000D02*
X140400000Y-84100000D01*
X141650000Y-74890000D02*
X137840000Y-74890000D01*
X141650000Y-74890000D02*
X145460000Y-74890000D01*
X142650000Y-75500000D02*
X143150000Y-75500000D01*
X142650000Y-81000000D02*
X142650000Y-75500000D01*
X143150000Y-75500000D02*
X143150000Y-81000000D01*
X143150000Y-81000000D02*
X142650000Y-81000000D01*
X144040000Y-86610000D02*
X144040000Y-82110000D01*
X145460000Y-74890000D02*
X145460000Y-86610000D01*
X145460000Y-86610000D02*
X144040000Y-86610000D01*
X164830000Y-79080580D02*
X164830000Y-78799420D01*
X165850000Y-79080580D02*
X165850000Y-78799420D01*
X146092500Y-82267500D02*
X146092500Y-83507500D01*
X146092500Y-83507500D02*
X147332500Y-83507500D01*
X146332500Y-74647500D02*
X157952500Y-74647500D01*
X146332500Y-83267500D02*
X146332500Y-74647500D01*
X146332500Y-83267500D02*
X157952500Y-83267500D01*
X157952500Y-83267500D02*
X157952500Y-74647500D01*
%LPC*%
D15*
X148810000Y-109325000D03*
D16*
X151350000Y-109325000D03*
X148810000Y-106785000D03*
X151350000Y-106785000D03*
X148810000Y-104245000D03*
X151350000Y-104245000D03*
D17*
X126000000Y-80000000D03*
D18*
X175125000Y-106600000D03*
D19*
X175125000Y-104100000D03*
X175125000Y-101600000D03*
X175125000Y-99100000D03*
X175125000Y-96600000D03*
X175125000Y-94100000D03*
D20*
X162900000Y-78200000D03*
D21*
X162900000Y-80200000D03*
X162900000Y-82200000D03*
D15*
X175400000Y-111800000D03*
D16*
X172860000Y-111800000D03*
X170320000Y-111800000D03*
X167780000Y-111800000D03*
D22*
X179450000Y-88125000D03*
D23*
X177450000Y-88125000D03*
X175450000Y-88125000D03*
D17*
X126000000Y-110000000D03*
X177000000Y-80000000D03*
D20*
X168950000Y-78000000D03*
D21*
X168950000Y-80000000D03*
X168950000Y-82000000D03*
X168950000Y-84000000D03*
D24*
X149800000Y-84525000D03*
X149800000Y-86075000D03*
D25*
X172160000Y-107090000D03*
X171200000Y-107090000D03*
D24*
X147700000Y-84525000D03*
X147700000Y-86075000D03*
D18*
X132925000Y-89850000D03*
D19*
X132925000Y-87350000D03*
X132925000Y-84850000D03*
X132925000Y-82350000D03*
X132925000Y-79850000D03*
X132925000Y-77350000D03*
D26*
X154750000Y-85300000D03*
X156650000Y-85300000D03*
D15*
X125300000Y-93725000D03*
D16*
X125300000Y-96265000D03*
D27*
X142600000Y-99275000D03*
D28*
X140100000Y-99275000D03*
D29*
X167275000Y-96075000D03*
D18*
X132925000Y-111750000D03*
D19*
X132925000Y-109250000D03*
X132925000Y-106750000D03*
X132925000Y-104250000D03*
X132925000Y-101750000D03*
X132925000Y-99250000D03*
D29*
X159800000Y-81100000D03*
D30*
X140400000Y-82600000D03*
D28*
X142900000Y-82600000D03*
D31*
X165340000Y-79715000D03*
X165340000Y-78165000D03*
D32*
X149602500Y-81207500D03*
D33*
X152142500Y-81207500D03*
X154682500Y-81207500D03*
%LPD*%
M02*
