M48
; DRILL file {KiCad 9.0.0} date 2025-04-03T16:38:20+0200
; FORMAT={-:-/ absolute / metric / decimal}
; #@! TF.CreationDate,2025-04-03T16:38:20+02:00
; #@! TF.GenerationSoftware,Kicad,Pcbnew,9.0.0
; #@! TF.FileFunction,Plated,1,4,PTH
FMAT,2
METRIC
; #@! TA.AperFunction,Plated,PTH,ViaDrill
T1C0.300
; #@! TA.AperFunction,Plated,PTH,ComponentDrill
T2C0.750
; #@! TA.AperFunction,Plated,PTH,ComponentDrill
T3C0.950
; #@! TA.AperFunction,Plated,PTH,ComponentDrill
T4C1.000
; #@! TA.AperFunction,Plated,PTH,ComponentDrill
T5C1.200
; #@! TA.AperFunction,Plated,PTH,ComponentDrill
T6C2.700
%
G90
G05
T1
X120.87Y-81.745
X120.87Y-84.285
X120.87Y-86.825
X120.87Y-89.365
X120.87Y-91.905
X121.075Y-79.235
X121.075Y-94.475
X121.075Y-97.015
X121.075Y-99.555
X121.075Y-102.095
X121.075Y-104.635
X121.075Y-107.175
X121.075Y-109.715
X121.925Y-77.15
X121.975Y-111.975
X122.64Y-98.315
X122.64Y-100.855
X122.64Y-103.395
X122.64Y-105.935
X123.41Y-84.285
X123.41Y-86.825
X123.41Y-89.365
X123.41Y-91.905
X123.75Y-75.83
X123.975Y-113.625
X125.18Y-98.315
X125.18Y-100.855
X125.18Y-103.395
X125.18Y-105.935
X125.66Y-75.09
X125.95Y-84.285
X125.95Y-86.825
X125.95Y-89.365
X125.95Y-91.905
X127.72Y-98.315
X127.72Y-100.855
X127.72Y-103.395
X127.72Y-105.935
X128.02Y-114.3
X128.095Y-74.825
X128.25Y-94.8
X128.49Y-84.285
X128.49Y-86.825
X128.49Y-89.365
X128.49Y-91.905
X130.125Y-94.725
X130.2Y-76.96
X130.2Y-79.5
X130.26Y-98.315
X130.26Y-100.855
X130.26Y-103.395
X130.26Y-105.935
X130.275Y-109.05
X130.275Y-111.65
X130.56Y-114.3
X130.635Y-74.825
X131.03Y-84.285
X131.03Y-86.825
X131.03Y-89.365
X131.03Y-91.905
X133.1Y-114.3
X133.175Y-74.825
X134.675Y-93.875
X134.675Y-98.3
X134.675Y-100.125
X135.0Y-76.32
X135.625Y-104.79
X135.625Y-107.33
X135.625Y-109.87
X135.625Y-112.41
X135.64Y-114.3
X135.715Y-74.825
X136.25Y-80.55
X136.275Y-82.375
X136.275Y-84.915
X136.275Y-88.425
X136.285Y-78.55
X136.3Y-96.575
X136.425Y-92.35
X136.475Y-93.875
X136.93Y-103.64
X137.05Y-107.7
X137.54Y-76.32
X137.85Y-111.38
X138.175Y-101.55
X138.18Y-114.3
X138.2Y-112.45
X138.255Y-74.825
X138.825Y-78.55
X139.191Y-111.515
X139.24Y-104.17
X139.325Y-96.575
X140.08Y-76.32
X140.125Y-101.55
X140.3Y-91.875
X140.34Y-107.62
X140.35Y-92.65
X140.4Y-84.95
X140.4Y-88.025
X140.4Y-88.725
X140.43Y-111.54
X140.72Y-114.3
X140.725Y-112.45
X140.795Y-74.825
X141.365Y-78.55
X141.88Y-107.67
X141.96Y-103.3
X142.151Y-90.515
X142.62Y-76.32
X142.675Y-91.05
X142.975Y-86.575
X143.25Y-112.45
X143.26Y-114.3
X143.335Y-74.825
X143.55Y-88.725
X143.875Y-80.8
X143.9Y-107.575
X143.905Y-78.55
X143.925Y-97.1
X144.0Y-90.65
X144.0Y-92.375
X144.0Y-94.025
X144.25Y-85.4
X144.25Y-86.1
X144.475Y-84.35
X144.61Y-103.31
X144.9Y-85.4
X144.9Y-86.1
X145.16Y-76.32
X145.17Y-107.65
X145.396Y-102.046
X145.5Y-94.85
X145.775Y-112.45
X145.8Y-114.3
X145.875Y-74.825
X145.95Y-82.9
X146.3Y-94.85
X146.425Y-80.775
X146.43Y-102.0
X146.445Y-78.55
X146.6Y-105.93
X146.6Y-108.47
X147.025Y-98.15
X147.05Y-93.4
X147.05Y-94.1
X147.05Y-94.85
X147.05Y-95.6
X147.07Y-104.29
X147.11Y-90.61
X147.549Y-101.899
X147.6Y-93.4
X147.6Y-94.1
X147.65Y-94.85
X147.65Y-95.6
X147.7Y-76.32
X147.709Y-87.341
X148.25Y-101.325
X148.34Y-114.3
X148.415Y-74.825
X148.575Y-94.225
X148.78Y-86.1
X148.8Y-96.425
X148.84Y-102.56
X148.875Y-100.175
X148.985Y-78.55
X149.796Y-99.462
X149.95Y-92.15
X150.03Y-98.1
X150.075Y-98.875
X150.15Y-88.8
X150.15Y-89.375
X150.24Y-76.32
X150.25Y-102.775
X150.3Y-105.45
X150.335Y-111.9
X150.55Y-94.775
X150.88Y-84.45
X150.88Y-114.3
X150.925Y-91.275
X150.95Y-92.225
X150.955Y-74.825
X151.0Y-89.275
X151.0Y-90.25
X151.025Y-87.075
X151.025Y-100.825
X151.25Y-96.87
X151.525Y-78.55
X152.1Y-86.725
X152.325Y-91.325
X152.525Y-89.55
X152.55Y-99.275
X152.78Y-76.32
X152.875Y-105.45
X152.875Y-111.9
X152.9Y-108.2
X153.075Y-95.875
X153.075Y-96.575
X153.27Y-84.49
X153.275Y-87.7
X153.42Y-114.3
X153.495Y-74.825
X153.725Y-96.0
X154.065Y-78.55
X154.1Y-88.75
X154.14Y-82.86
X154.15Y-84.27
X154.17Y-83.58
X154.3Y-95.625
X154.625Y-100.5
X154.662Y-91.025
X154.675Y-102.8
X154.69Y-83.96
X154.71Y-83.24
X154.825Y-105.4
X154.85Y-108.2
X155.0Y-89.8
X155.115Y-91.491
X155.15Y-94.725
X155.19Y-93.81
X155.23Y-83.6
X155.23Y-84.26
X155.24Y-82.91
X155.32Y-76.32
X155.415Y-111.9
X155.425Y-86.7
X155.67Y-92.71
X155.765Y-108.775
X155.96Y-114.3
X155.975Y-89.6
X156.035Y-74.825
X156.16Y-80.44
X156.475Y-102.1
X157.0Y-97.741
X157.11Y-81.57
X157.11Y-83.29
X157.19Y-107.45
X157.31Y-78.67
X157.475Y-89.575
X157.475Y-91.85
X157.54Y-99.49
X157.55Y-98.31
X157.86Y-76.32
X158.39Y-100.5
X158.47Y-95.05
X158.5Y-114.3
X158.575Y-74.825
X158.74Y-102.05
X159.26Y-82.91
X159.5Y-107.45
X159.61Y-95.2
X159.625Y-77.4
X159.625Y-86.325
X159.7Y-102.05
X159.72Y-104.28
X159.881Y-90.776
X160.012Y-91.412
X160.15Y-108.925
X160.175Y-94.575
X160.19Y-89.93
X160.25Y-98.375
X160.335Y-85.175
X160.45Y-111.9
X160.575Y-93.725
X160.625Y-92.175
X160.925Y-99.35
X160.98Y-104.97
X161.04Y-114.3
X161.115Y-74.825
X161.225Y-95.925
X161.225Y-97.05
X161.37Y-83.35
X161.375Y-88.575
X161.44Y-76.27
X161.525Y-102.89
X161.525Y-106.625
X161.525Y-108.1
X161.575Y-97.925
X161.58Y-79.51
X161.825Y-99.375
X161.825Y-100.125
X161.825Y-101.025
X161.975Y-96.175
X162.4Y-87.75
X162.875Y-85.175
X163.05Y-113.5
X163.1Y-95.575
X163.275Y-93.575
X163.275Y-94.625
X163.42Y-90.06
X163.58Y-114.3
X163.655Y-74.825
X163.775Y-97.06
X163.775Y-99.6
X163.775Y-102.14
X163.85Y-93.05
X163.9Y-94.1
X163.98Y-76.27
X164.17Y-81.15
X164.175Y-105.0
X164.175Y-109.65
X164.175Y-112.075
X164.6Y-88.675
X164.6Y-91.775
X164.6Y-94.25
X165.35Y-94.1
X165.35Y-94.775
X165.415Y-85.175
X165.43Y-91.81
X165.44Y-92.525
X165.6Y-98.2
X165.6Y-98.925
X165.6Y-99.675
X165.675Y-95.35
X165.69Y-90.58
X165.975Y-94.1
X165.975Y-94.775
X166.08Y-91.83
X166.08Y-103.755
X166.08Y-106.295
X166.09Y-92.52
X166.1Y-101.6
X166.12Y-114.3
X166.195Y-74.825
X166.25Y-109.65
X166.475Y-99.625
X166.5Y-78.87
X166.52Y-76.27
X166.57Y-81.15
X166.72Y-91.83
X166.73Y-92.51
X166.83Y-90.87
X166.95Y-85.375
X166.975Y-83.9
X166.975Y-88.2
X167.41Y-91.83
X167.42Y-92.5
X167.64Y-100.46
X167.75Y-97.51
X167.775Y-86.475
X168.575Y-92.475
X168.62Y-103.755
X168.62Y-106.295
X168.66Y-114.3
X168.735Y-74.825
X168.95Y-85.68
X169.06Y-76.27
X169.16Y-96.62
X169.37Y-90.87
X169.375Y-97.6
X169.375Y-98.5
X170.025Y-93.975
X170.025Y-97.6
X170.025Y-98.5
X170.05Y-99.325
X170.225Y-109.575
X170.58Y-76.94
X170.608Y-98.015
X170.62Y-78.46
X170.625Y-98.9
X170.625Y-99.95
X171.2Y-114.3
X171.275Y-74.825
X171.4Y-80.75
X171.91Y-90.87
X171.91Y-99.3
X171.925Y-93.25
X171.925Y-95.79
X171.925Y-100.87
X171.925Y-105.95
X172.19Y-83.13
X172.19Y-85.67
X172.875Y-109.575
X173.16Y-77.44
X173.4Y-102.74
X173.41Y-97.74
X173.74Y-114.3
X173.815Y-74.825
X174.375Y-90.825
X174.73Y-83.13
X174.73Y-85.67
X175.725Y-109.575
X176.28Y-114.3
X176.355Y-74.825
X176.9Y-90.8
X177.01Y-85.68
X178.17Y-83.58
X178.475Y-75.25
X178.85Y-94.325
X178.85Y-96.865
X178.85Y-99.405
X178.85Y-101.945
X178.85Y-104.485
X178.85Y-107.025
X178.85Y-109.565
X178.85Y-113.725
X179.55Y-82.62
X179.55Y-90.775
X179.81Y-85.67
X180.85Y-76.5
X181.05Y-112.075
X182.3Y-78.935
X182.3Y-81.475
X182.3Y-84.015
X182.3Y-86.555
X182.3Y-89.095
X182.3Y-91.635
X182.3Y-94.175
X182.3Y-96.715
X182.3Y-99.255
X182.3Y-101.795
X182.3Y-104.335
X182.3Y-106.875
X182.3Y-109.415
T2
X162.9Y-78.2
X162.9Y-80.2
X162.9Y-82.2
X168.95Y-78.0
X168.95Y-80.0
X168.95Y-82.0
X168.95Y-84.0
X175.45Y-88.125
X177.45Y-88.125
X179.45Y-88.125
T3
X132.925Y-77.35
X132.925Y-79.85
X132.925Y-82.35
X132.925Y-84.85
X132.925Y-87.35
X132.925Y-89.85
X132.925Y-99.25
X132.925Y-101.75
X132.925Y-104.25
X132.925Y-106.75
X132.925Y-109.25
X132.925Y-111.75
X175.125Y-94.1
X175.125Y-96.6
X175.125Y-99.1
X175.125Y-101.6
X175.125Y-104.1
X175.125Y-106.6
T4
X125.3Y-93.725
X125.3Y-96.265
X140.1Y-99.275
X140.4Y-82.6
X142.6Y-99.275
X142.9Y-82.6
X148.81Y-104.245
X148.81Y-106.785
X148.81Y-109.325
X151.35Y-104.245
X151.35Y-106.785
X151.35Y-109.325
X167.78Y-111.8
X170.32Y-111.8
X172.86Y-111.8
X175.4Y-111.8
T5
X149.602Y-81.207
X152.142Y-81.207
X154.683Y-81.207
T6
X126.0Y-80.0
X126.0Y-110.0
X177.0Y-80.0
M30
