%TF.GenerationSoftware,KiCad,Pcbnew,9.0.0*%
%TF.CreationDate,2025-04-03T16:38:41+02:00*%
%TF.ProjectId,PCB_projetV2,5043425f-7072-46f6-9a65-7456322e6b69,03/04/2025*%
%TF.SameCoordinates,Original*%
%TF.FileFunction,Paste,Top*%
%TF.FilePolarity,Positive*%
%FSLAX46Y46*%
G04 Gerber Fmt 4.6, Leading zero omitted, Abs format (unit mm)*
G04 Created by KiCad (PCBNEW 9.0.0) date 2025-04-03 16:38:41*
%MOMM*%
%LPD*%
G01*
G04 APERTURE LIST*
G04 Aperture macros list*
%AMRoundRect*
0 Rectangle with rounded corners*
0 $1 Rounding radius*
0 $2 $3 $4 $5 $6 $7 $8 $9 X,Y pos of 4 corners*
0 Add a 4 corners polygon primitive as box body*
4,1,4,$2,$3,$4,$5,$6,$7,$8,$9,$2,$3,0*
0 Add four circle primitives for the rounded corners*
1,1,$1+$1,$2,$3*
1,1,$1+$1,$4,$5*
1,1,$1+$1,$6,$7*
1,1,$1+$1,$8,$9*
0 Add four rect primitives between the rounded corners*
20,1,$1+$1,$2,$3,$4,$5,0*
20,1,$1+$1,$4,$5,$6,$7,0*
20,1,$1+$1,$6,$7,$8,$9,0*
20,1,$1+$1,$8,$9,$2,$3,0*%
G04 Aperture macros list end*
%ADD10RoundRect,0.140000X-0.140000X-0.170000X0.140000X-0.170000X0.140000X0.170000X-0.140000X0.170000X0*%
%ADD11RoundRect,0.140000X0.140000X0.170000X-0.140000X0.170000X-0.140000X-0.170000X0.140000X-0.170000X0*%
%ADD12RoundRect,0.200000X-0.200000X-0.275000X0.200000X-0.275000X0.200000X0.275000X-0.200000X0.275000X0*%
%ADD13R,0.740000X2.400000*%
%ADD14R,1.400000X2.000000*%
%ADD15RoundRect,0.225000X-0.250000X0.225000X-0.250000X-0.225000X0.250000X-0.225000X0.250000X0.225000X0*%
%ADD16RoundRect,0.140000X-0.170000X0.140000X-0.170000X-0.140000X0.170000X-0.140000X0.170000X0.140000X0*%
%ADD17RoundRect,0.218750X-0.218750X-0.256250X0.218750X-0.256250X0.218750X0.256250X-0.218750X0.256250X0*%
%ADD18RoundRect,0.225000X0.225000X0.250000X-0.225000X0.250000X-0.225000X-0.250000X0.225000X-0.250000X0*%
%ADD19RoundRect,0.075000X0.075000X-0.662500X0.075000X0.662500X-0.075000X0.662500X-0.075000X-0.662500X0*%
%ADD20RoundRect,0.075000X0.662500X-0.075000X0.662500X0.075000X-0.662500X0.075000X-0.662500X-0.075000X0*%
%ADD21RoundRect,0.237500X-0.237500X0.300000X-0.237500X-0.300000X0.237500X-0.300000X0.237500X0.300000X0*%
%ADD22RoundRect,0.237500X-0.300000X-0.237500X0.300000X-0.237500X0.300000X0.237500X-0.300000X0.237500X0*%
%ADD23RoundRect,0.225000X-0.225000X-0.250000X0.225000X-0.250000X0.225000X0.250000X-0.225000X0.250000X0*%
%ADD24RoundRect,0.140000X0.170000X-0.140000X0.170000X0.140000X-0.170000X0.140000X-0.170000X-0.140000X0*%
%ADD25R,1.750000X0.450000*%
%ADD26R,0.600000X0.900000*%
G04 APERTURE END LIST*
D10*
X162320000Y-88650000D03*
X163280000Y-88650000D03*
D11*
X130860000Y-82370000D03*
X129900000Y-82370000D03*
D12*
X154025000Y-109825000D03*
X155675000Y-109825000D03*
D13*
X136620000Y-109620000D03*
X136620000Y-105720000D03*
X137890000Y-109620000D03*
X137890000Y-105720000D03*
X139160000Y-109620000D03*
X139160000Y-105720000D03*
X140430000Y-109620000D03*
X140430000Y-105720000D03*
X141700000Y-109620000D03*
X141700000Y-105720000D03*
X142970000Y-109620000D03*
X142970000Y-105720000D03*
X144240000Y-109620000D03*
X144240000Y-105720000D03*
D14*
X162500000Y-105000000D03*
X162500000Y-112000000D03*
X158500000Y-105000000D03*
X158500000Y-112000000D03*
D15*
X149225000Y-89150000D03*
X149225000Y-90700000D03*
D16*
X147890000Y-89630000D03*
X147890000Y-90590000D03*
D12*
X154115000Y-106800000D03*
X155765000Y-106800000D03*
D17*
X159462500Y-100775000D03*
X161037500Y-100775000D03*
D10*
X158970000Y-103150000D03*
X159930000Y-103150000D03*
D18*
X152785000Y-97770000D03*
X151235000Y-97770000D03*
X145465000Y-95710000D03*
X143915000Y-95710000D03*
D11*
X152180000Y-96050000D03*
X151220000Y-96050000D03*
X159380000Y-99475000D03*
X158420000Y-99475000D03*
D19*
X154950000Y-96462500D03*
X155450000Y-96462500D03*
X155950000Y-96462500D03*
X156450000Y-96462500D03*
X156950000Y-96462500D03*
X157450000Y-96462500D03*
X157950000Y-96462500D03*
X158450000Y-96462500D03*
X158950000Y-96462500D03*
X159450000Y-96462500D03*
X159950000Y-96462500D03*
X160450000Y-96462500D03*
D20*
X161862500Y-95050000D03*
X161862500Y-94550000D03*
X161862500Y-94050000D03*
X161862500Y-93550000D03*
X161862500Y-93050000D03*
X161862500Y-92550000D03*
X161862500Y-92050000D03*
X161862500Y-91550000D03*
X161862500Y-91050000D03*
X161862500Y-90550000D03*
X161862500Y-90050000D03*
X161862500Y-89550000D03*
D19*
X160450000Y-88137500D03*
X159950000Y-88137500D03*
X159450000Y-88137500D03*
X158950000Y-88137500D03*
X158450000Y-88137500D03*
X157950000Y-88137500D03*
X157450000Y-88137500D03*
X156950000Y-88137500D03*
X156450000Y-88137500D03*
X155950000Y-88137500D03*
X155450000Y-88137500D03*
X154950000Y-88137500D03*
D20*
X153537500Y-89550000D03*
X153537500Y-90050000D03*
X153537500Y-90550000D03*
X153537500Y-91050000D03*
X153537500Y-91550000D03*
X153537500Y-92050000D03*
X153537500Y-92550000D03*
X153537500Y-93050000D03*
X153537500Y-93550000D03*
X153537500Y-94050000D03*
X153537500Y-94550000D03*
X153537500Y-95050000D03*
D21*
X168850000Y-99937500D03*
X168850000Y-101662500D03*
D11*
X159355000Y-98250000D03*
X158395000Y-98250000D03*
D22*
X166837500Y-93900000D03*
X168562500Y-93900000D03*
D23*
X179175000Y-83730000D03*
X180725000Y-83730000D03*
D24*
X145990000Y-85290000D03*
X145990000Y-84330000D03*
D11*
X129870000Y-104280000D03*
X128910000Y-104280000D03*
D24*
X153890000Y-87680000D03*
X153890000Y-86720000D03*
D25*
X138400000Y-86725000D03*
X138400000Y-87375000D03*
X138400000Y-88025000D03*
X138400000Y-88675000D03*
X138400000Y-89325000D03*
X138400000Y-89975000D03*
X138400000Y-90625000D03*
X138400000Y-91275000D03*
X138400000Y-91925000D03*
X138400000Y-92575000D03*
X138400000Y-93225000D03*
X138400000Y-93875000D03*
X145600000Y-93875000D03*
X145600000Y-93225000D03*
X145600000Y-92575000D03*
X145600000Y-91925000D03*
X145600000Y-91275000D03*
X145600000Y-90625000D03*
X145600000Y-89975000D03*
X145600000Y-89325000D03*
X145600000Y-88675000D03*
X145600000Y-88025000D03*
X145600000Y-87375000D03*
X145600000Y-86725000D03*
D15*
X172080000Y-76285000D03*
X172080000Y-77835000D03*
D16*
X154610000Y-98160000D03*
X154610000Y-99120000D03*
D12*
X153950000Y-103950000D03*
X155600000Y-103950000D03*
D26*
X166750000Y-98300000D03*
X167700000Y-98300000D03*
X168650000Y-98300000D03*
X168650000Y-95500000D03*
X166750000Y-95500000D03*
M02*
