%TF.GenerationSoftware,KiCad,Pcbnew,9.0.0*%
%TF.CreationDate,2025-04-03T16:38:41+02:00*%
%TF.ProjectId,PCB_projetV2,5043425f-7072-46f6-9a65-7456322e6b69,03/04/2025*%
%TF.SameCoordinates,Original*%
%TF.FileFunction,Copper,L2,Inr*%
%TF.FilePolarity,Positive*%
%FSLAX46Y46*%
G04 Gerber Fmt 4.6, Leading zero omitted, Abs format (unit mm)*
G04 Created by KiCad (PCBNEW 9.0.0) date 2025-04-03 16:38:41*
%MOMM*%
%LPD*%
G01*
G04 APERTURE LIST*
G04 Aperture macros list*
%AMRoundRect*
0 Rectangle with rounded corners*
0 $1 Rounding radius*
0 $2 $3 $4 $5 $6 $7 $8 $9 X,Y pos of 4 corners*
0 Add a 4 corners polygon primitive as box body*
4,1,4,$2,$3,$4,$5,$6,$7,$8,$9,$2,$3,0*
0 Add four circle primitives for the rounded corners*
1,1,$1+$1,$2,$3*
1,1,$1+$1,$4,$5*
1,1,$1+$1,$6,$7*
1,1,$1+$1,$8,$9*
0 Add four rect primitives between the rounded corners*
20,1,$1+$1,$2,$3,$4,$5,0*
20,1,$1+$1,$4,$5,$6,$7,0*
20,1,$1+$1,$6,$7,$8,$9,0*
20,1,$1+$1,$8,$9,$2,$3,0*%
G04 Aperture macros list end*
%TA.AperFunction,ComponentPad*%
%ADD10R,1.700000X1.700000*%
%TD*%
%TA.AperFunction,ComponentPad*%
%ADD11O,1.700000X1.700000*%
%TD*%
%TA.AperFunction,ComponentPad*%
%ADD12C,5.400000*%
%TD*%
%TA.AperFunction,ComponentPad*%
%ADD13RoundRect,0.250000X0.725000X-0.600000X0.725000X0.600000X-0.725000X0.600000X-0.725000X-0.600000X0*%
%TD*%
%TA.AperFunction,ComponentPad*%
%ADD14O,1.950000X1.700000*%
%TD*%
%TA.AperFunction,ComponentPad*%
%ADD15RoundRect,0.250000X-0.625000X0.350000X-0.625000X-0.350000X0.625000X-0.350000X0.625000X0.350000X0*%
%TD*%
%TA.AperFunction,ComponentPad*%
%ADD16O,1.750000X1.200000*%
%TD*%
%TA.AperFunction,ComponentPad*%
%ADD17RoundRect,0.250000X0.350000X0.625000X-0.350000X0.625000X-0.350000X-0.625000X0.350000X-0.625000X0*%
%TD*%
%TA.AperFunction,ComponentPad*%
%ADD18O,1.200000X1.750000*%
%TD*%
%TA.AperFunction,ComponentPad*%
%ADD19RoundRect,0.250000X0.600000X0.750000X-0.600000X0.750000X-0.600000X-0.750000X0.600000X-0.750000X0*%
%TD*%
%TA.AperFunction,ComponentPad*%
%ADD20O,1.700000X2.000000*%
%TD*%
%TA.AperFunction,ComponentPad*%
%ADD21RoundRect,0.250000X-0.600000X-0.750000X0.600000X-0.750000X0.600000X0.750000X-0.600000X0.750000X0*%
%TD*%
%TA.AperFunction,ComponentPad*%
%ADD22R,1.700000X2.500000*%
%TD*%
%TA.AperFunction,ComponentPad*%
%ADD23O,1.700000X2.500000*%
%TD*%
%TA.AperFunction,ViaPad*%
%ADD24C,0.450000*%
%TD*%
G04 APERTURE END LIST*
D10*
X148810000Y-109325000D03*
D11*
X151350000Y-109325000D03*
X148810000Y-106785000D03*
X151350000Y-106785000D03*
X148810000Y-104245000D03*
X151350000Y-104245000D03*
D12*
X126000000Y-80000000D03*
D13*
X175125000Y-106600000D03*
D14*
X175125000Y-104100000D03*
X175125000Y-101600000D03*
X175125000Y-99100000D03*
X175125000Y-96600000D03*
X175125000Y-94100000D03*
D15*
X162900000Y-78200000D03*
D16*
X162900000Y-80200000D03*
X162900000Y-82200000D03*
D10*
X175400000Y-111800000D03*
D11*
X172860000Y-111800000D03*
X170320000Y-111800000D03*
X167780000Y-111800000D03*
D17*
X179450000Y-88125000D03*
D18*
X177450000Y-88125000D03*
X175450000Y-88125000D03*
D12*
X126000000Y-110000000D03*
X177000000Y-80000000D03*
D15*
X168950000Y-78000000D03*
D16*
X168950000Y-80000000D03*
X168950000Y-82000000D03*
X168950000Y-84000000D03*
D13*
X132925000Y-89850000D03*
D14*
X132925000Y-87350000D03*
X132925000Y-84850000D03*
X132925000Y-82350000D03*
X132925000Y-79850000D03*
X132925000Y-77350000D03*
D10*
X125300000Y-93725000D03*
D11*
X125300000Y-96265000D03*
D19*
X142600000Y-99275000D03*
D20*
X140100000Y-99275000D03*
D13*
X132925000Y-111750000D03*
D14*
X132925000Y-109250000D03*
X132925000Y-106750000D03*
X132925000Y-104250000D03*
X132925000Y-101750000D03*
X132925000Y-99250000D03*
D21*
X140400000Y-82600000D03*
D20*
X142900000Y-82600000D03*
D22*
X149602500Y-81207500D03*
D23*
X152142500Y-81207500D03*
X154682500Y-81207500D03*
D24*
X155000000Y-89800000D03*
X120870000Y-91905000D03*
X167640000Y-100460000D03*
X166500000Y-78870000D03*
X147110000Y-90610000D03*
X177010000Y-85680000D03*
X143925000Y-97100000D03*
X139190744Y-111514729D03*
X140080000Y-76320000D03*
X143550000Y-88725000D03*
X152900000Y-108200000D03*
X127720000Y-105935000D03*
X140400000Y-84950000D03*
X137050000Y-107700000D03*
X135625000Y-107330000D03*
X135000000Y-76320000D03*
X120870000Y-89365000D03*
X140350000Y-92650000D03*
X128490000Y-84285000D03*
X157860000Y-76320000D03*
X165415000Y-85175000D03*
X166080000Y-106295000D03*
X150240000Y-76320000D03*
X168620000Y-106295000D03*
X145875000Y-74825000D03*
X165690000Y-90580000D03*
X125950000Y-86825000D03*
X145160000Y-76320000D03*
X136475000Y-93875000D03*
X158500000Y-114300000D03*
X164175000Y-105000000D03*
X170225000Y-109575000D03*
X157540000Y-99490000D03*
X178850000Y-96865000D03*
X122640000Y-105935000D03*
X152325000Y-91325000D03*
X159625000Y-77400000D03*
X131030000Y-91905000D03*
X136275000Y-82375000D03*
X182300000Y-101795000D03*
X139325000Y-96575000D03*
X155190000Y-93810000D03*
X161370000Y-83350000D03*
X178850000Y-94325000D03*
X144475000Y-84350000D03*
X125180000Y-98315000D03*
X150335000Y-111900000D03*
X150300000Y-105450000D03*
X148780000Y-86100000D03*
X174375000Y-90825000D03*
X159610000Y-95200000D03*
X173740000Y-114300000D03*
X146600000Y-105930000D03*
X166830000Y-90870000D03*
X150250000Y-102775000D03*
X135625000Y-109870000D03*
X146425000Y-80775000D03*
X155150000Y-94725000D03*
X169370000Y-90870000D03*
X146445000Y-78550000D03*
X163100000Y-95575000D03*
X171910000Y-90870000D03*
X178850000Y-113725000D03*
X160980000Y-104970000D03*
X168660000Y-114300000D03*
X134675000Y-98300000D03*
X136275000Y-88425000D03*
X166570000Y-81150000D03*
X145800000Y-114300000D03*
X152550000Y-99275000D03*
X163580000Y-114300000D03*
X140400000Y-88725000D03*
X152875000Y-105450000D03*
X148985000Y-78550000D03*
X128020000Y-114300000D03*
X141880000Y-107670000D03*
X121075000Y-97015000D03*
X127720000Y-100855000D03*
X143260000Y-114300000D03*
X182300000Y-86555000D03*
X164600000Y-91775000D03*
X128095000Y-74825000D03*
X128250000Y-94800000D03*
X159700000Y-102050000D03*
X121075000Y-79235000D03*
X134675000Y-100125000D03*
X158470000Y-95050000D03*
X155415000Y-111900000D03*
X173400000Y-102740000D03*
X157475000Y-91850000D03*
X130275000Y-109050000D03*
X160190000Y-89930000D03*
X162875000Y-85175000D03*
X140720000Y-114300000D03*
X150030000Y-98100000D03*
X148340000Y-114300000D03*
X120870000Y-86825000D03*
X178170000Y-83580000D03*
X155320000Y-76320000D03*
X157475000Y-89575000D03*
X160625000Y-92175000D03*
X163775000Y-102140000D03*
X158390000Y-100500000D03*
X144610000Y-103310000D03*
X136930000Y-103640000D03*
X168950000Y-85680000D03*
X150550000Y-94775000D03*
X179550000Y-90775000D03*
X161040000Y-114300000D03*
X143335000Y-74825000D03*
X138180000Y-114300000D03*
X166950000Y-85375000D03*
X152875000Y-111900000D03*
X154100000Y-88750000D03*
X163655000Y-74825000D03*
X135625000Y-112410000D03*
X140795000Y-74825000D03*
X151000000Y-90250000D03*
X157310000Y-78670000D03*
X125180000Y-100855000D03*
X172190000Y-83130000D03*
X121075000Y-109715000D03*
X178850000Y-104485000D03*
X122640000Y-100855000D03*
X143905000Y-78550000D03*
X136250000Y-80550000D03*
X152100000Y-86725000D03*
X171925000Y-95790000D03*
X136285000Y-78550000D03*
X140125000Y-101550000D03*
X154065000Y-78550000D03*
X164175000Y-112075000D03*
X138255000Y-74825000D03*
X125950000Y-89365000D03*
X131030000Y-84285000D03*
X176280000Y-114300000D03*
X133175000Y-74825000D03*
X156160000Y-80440000D03*
X133100000Y-114300000D03*
X154825000Y-105400000D03*
X173815000Y-74825000D03*
X142620000Y-76320000D03*
X172875000Y-109575000D03*
X120870000Y-81745000D03*
X144000000Y-92375000D03*
X178850000Y-99405000D03*
X121075000Y-102095000D03*
X145950000Y-82900000D03*
X147070000Y-104290000D03*
X160335000Y-85175000D03*
X160575000Y-93725000D03*
X142975000Y-86575000D03*
X151525000Y-78550000D03*
X123410000Y-86825000D03*
X121975000Y-111975000D03*
X164600000Y-88675000D03*
X127720000Y-103395000D03*
X161115000Y-74825000D03*
X182300000Y-99255000D03*
X143900000Y-107575000D03*
X125950000Y-91905000D03*
X166975000Y-83900000D03*
X136425000Y-92350000D03*
X135640000Y-114300000D03*
X161225000Y-97050000D03*
X130260000Y-98315000D03*
X123750000Y-75830000D03*
X179810000Y-85670000D03*
X138200000Y-112450000D03*
X125180000Y-105935000D03*
X163420000Y-90060000D03*
X168735000Y-74825000D03*
X130260000Y-100855000D03*
X174730000Y-85670000D03*
X153420000Y-114300000D03*
X166250000Y-109650000D03*
X123410000Y-89365000D03*
X180850000Y-76500000D03*
X161225000Y-95925000D03*
X182300000Y-91635000D03*
X122640000Y-98315000D03*
X171275000Y-74825000D03*
X120870000Y-84285000D03*
X157110000Y-81570000D03*
X148575000Y-94225000D03*
X146430000Y-102000000D03*
X140430000Y-111540000D03*
X123975000Y-113625000D03*
X171925000Y-105950000D03*
X121075000Y-104635000D03*
X137540000Y-76320000D03*
X156035000Y-74825000D03*
X163775000Y-99600000D03*
X173410000Y-97740000D03*
X171925000Y-93250000D03*
X121075000Y-99555000D03*
X125950000Y-84285000D03*
X157110000Y-83290000D03*
X182300000Y-104335000D03*
X161440000Y-76270000D03*
X151025000Y-100825000D03*
X159720000Y-104280000D03*
X148875000Y-100175000D03*
X164600000Y-94250000D03*
X178850000Y-101945000D03*
X182300000Y-96715000D03*
X153270000Y-84490000D03*
X169060000Y-76270000D03*
X161375000Y-88575000D03*
X163980000Y-76270000D03*
X164170000Y-81150000D03*
X168575000Y-92475000D03*
X171925000Y-100870000D03*
X130260000Y-103395000D03*
X130125000Y-94725000D03*
X121925000Y-77150000D03*
X170620000Y-78460000D03*
X128490000Y-86825000D03*
X144000000Y-90650000D03*
X166520000Y-76270000D03*
X145775000Y-112450000D03*
X169160000Y-96620000D03*
X159260000Y-82910000D03*
X150955000Y-74825000D03*
X161525000Y-102890000D03*
X170580000Y-76940000D03*
X130260000Y-105935000D03*
X147709454Y-87341082D03*
X182300000Y-81475000D03*
X182300000Y-89095000D03*
X131030000Y-89365000D03*
X175725000Y-109575000D03*
X150880000Y-114300000D03*
X161580000Y-79510000D03*
X178475000Y-75250000D03*
X125660000Y-75090000D03*
X173160000Y-77440000D03*
X149950000Y-92150000D03*
X153495000Y-74825000D03*
X145170000Y-107650000D03*
X166975000Y-88200000D03*
X171910000Y-99300000D03*
X140300000Y-91875000D03*
X157190000Y-107450000D03*
X138175000Y-101550000D03*
X144000000Y-94025000D03*
X181050000Y-112075000D03*
X166080000Y-103755000D03*
X147700000Y-76320000D03*
X123410000Y-84285000D03*
X135715000Y-74825000D03*
X172190000Y-85670000D03*
X151250000Y-96870000D03*
X141365000Y-78550000D03*
X154850000Y-108200000D03*
X122640000Y-103395000D03*
X130200000Y-79500000D03*
X121075000Y-107175000D03*
X178850000Y-107025000D03*
X167750000Y-97510000D03*
X130635000Y-74825000D03*
X128490000Y-91905000D03*
X138825000Y-78550000D03*
X174730000Y-83130000D03*
X130200000Y-76960000D03*
X158575000Y-74825000D03*
X176900000Y-90800000D03*
X151000000Y-89275000D03*
X168620000Y-103755000D03*
X155670000Y-92710000D03*
X125180000Y-103395000D03*
X154625000Y-100500000D03*
X154675000Y-102800000D03*
X141960000Y-103300000D03*
X146600000Y-108470000D03*
X147025000Y-98150000D03*
X171400000Y-80750000D03*
X152780000Y-76320000D03*
X170025000Y-93975000D03*
X140400000Y-88025000D03*
X121075000Y-94475000D03*
X128490000Y-89365000D03*
X179550000Y-82620000D03*
X182300000Y-84015000D03*
X151025000Y-87075000D03*
X143875000Y-80800000D03*
X136300000Y-96575000D03*
X166100000Y-101600000D03*
X182300000Y-94175000D03*
X182300000Y-106875000D03*
X134675000Y-93875000D03*
X150880000Y-84450000D03*
X178850000Y-109565000D03*
X176355000Y-74825000D03*
X155425000Y-86700000D03*
X166195000Y-74825000D03*
X164175000Y-109650000D03*
X163775000Y-97060000D03*
X158740000Y-102050000D03*
X127720000Y-98315000D03*
X182300000Y-109415000D03*
X136275000Y-84915000D03*
X130275000Y-111650000D03*
X157550000Y-98310000D03*
X182300000Y-78935000D03*
X123410000Y-91905000D03*
X140340000Y-107620000D03*
X160450000Y-111900000D03*
X159500000Y-107450000D03*
X143250000Y-112450000D03*
X148800000Y-96425000D03*
X166120000Y-114300000D03*
X148840000Y-102560000D03*
X131030000Y-86825000D03*
X140725000Y-112450000D03*
X155960000Y-114300000D03*
X161525000Y-106625000D03*
X135625000Y-104790000D03*
X171200000Y-114300000D03*
X130560000Y-114300000D03*
X148415000Y-74825000D03*
X155230000Y-83600000D03*
X165600000Y-98200000D03*
X165600000Y-98925000D03*
X170025000Y-98500000D03*
X170050000Y-99325000D03*
X169375000Y-98500000D03*
X154170000Y-83580000D03*
X154150000Y-84270000D03*
X170607930Y-98014965D03*
X170025000Y-97600000D03*
X154140000Y-82860000D03*
X170625000Y-98900000D03*
X154690000Y-83960000D03*
X155240000Y-82910000D03*
X165600000Y-99675000D03*
X169375000Y-97600000D03*
X155230000Y-84260000D03*
X170625000Y-99950000D03*
X166475000Y-99625000D03*
X154710000Y-83240000D03*
X161825000Y-101025000D03*
X153075000Y-95875000D03*
X166090000Y-92520000D03*
X137850000Y-111380000D03*
X150150000Y-89375000D03*
X165350000Y-94775000D03*
X166720000Y-91830000D03*
X166080000Y-91830000D03*
X165675000Y-95350000D03*
X153075000Y-96575000D03*
X161825000Y-100125000D03*
X167410000Y-91830000D03*
X165975000Y-94775000D03*
X153725000Y-96000000D03*
X154300000Y-95625000D03*
X165440000Y-92525000D03*
X153275000Y-87700000D03*
X161825000Y-99375000D03*
X162400000Y-87750000D03*
X165350000Y-94100000D03*
X167420000Y-92500000D03*
X150150000Y-88800000D03*
X165430000Y-91810000D03*
X160925000Y-99350000D03*
X165975000Y-94100000D03*
X166730000Y-92510000D03*
X144900000Y-85400000D03*
X147650000Y-94850000D03*
X147050000Y-94100000D03*
X147600000Y-94100000D03*
X144250000Y-86100000D03*
X144250000Y-85400000D03*
X147650000Y-95600000D03*
X147050000Y-95600000D03*
X147600000Y-93400000D03*
X146300000Y-94850000D03*
X147050000Y-94850000D03*
X147050000Y-93400000D03*
X144900000Y-86100000D03*
X145500000Y-94850000D03*
X157000000Y-97741020D03*
X147548768Y-101898768D03*
X150925000Y-91275000D03*
X142151162Y-90515077D03*
X150950000Y-92225000D03*
X142675000Y-91050000D03*
X167775000Y-86475000D03*
X159625000Y-86325000D03*
X139240000Y-104170000D03*
X152525000Y-89550000D03*
X155975000Y-89600000D03*
X145396232Y-102046232D03*
X160175000Y-94575000D03*
X148250000Y-101325000D03*
X163050000Y-113500002D03*
X161975000Y-96175000D03*
X163900000Y-94100000D03*
X163850000Y-93050000D03*
X163275000Y-94625000D03*
X163275000Y-93575000D03*
X155115211Y-91491430D03*
X154662500Y-91025000D03*
X150075000Y-98875000D03*
X159881156Y-90775906D03*
X160012500Y-91412500D03*
X149795543Y-99461862D03*
X155765000Y-108775000D03*
X156475000Y-102100000D03*
X161525000Y-108100000D03*
X161575000Y-97925000D03*
X160150000Y-108925000D03*
X160250000Y-98375000D03*
%TA.AperFunction,Conductor*%
G36*
X177377443Y-74250596D02*
G01*
X177817304Y-74267878D01*
X177826999Y-74268640D01*
X178261780Y-74320099D01*
X178271376Y-74321620D01*
X178700764Y-74407031D01*
X178710195Y-74409295D01*
X179131553Y-74528130D01*
X179140787Y-74531130D01*
X179551534Y-74682663D01*
X179560528Y-74686389D01*
X179958092Y-74869667D01*
X179966768Y-74874088D01*
X180348734Y-75088000D01*
X180357036Y-75093087D01*
X180721031Y-75336301D01*
X180728905Y-75342022D01*
X181072711Y-75613056D01*
X181080102Y-75619369D01*
X181401583Y-75916543D01*
X181408462Y-75923422D01*
X181705625Y-76244891D01*
X181711945Y-76252291D01*
X181780987Y-76339870D01*
X181982975Y-76596091D01*
X181988698Y-76603968D01*
X182231912Y-76967963D01*
X182236999Y-76976265D01*
X182450911Y-77358231D01*
X182455332Y-77366907D01*
X182638610Y-77764471D01*
X182642336Y-77773465D01*
X182793865Y-78184199D01*
X182796873Y-78193460D01*
X182915699Y-78614787D01*
X182917972Y-78624254D01*
X182997617Y-79024652D01*
X183000000Y-79048843D01*
X183000000Y-109855880D01*
X182997617Y-109880071D01*
X182916591Y-110287414D01*
X182914318Y-110296882D01*
X182794423Y-110721995D01*
X182791415Y-110731255D01*
X182638530Y-111145668D01*
X182634804Y-111154663D01*
X182449882Y-111555792D01*
X182445461Y-111564467D01*
X182229631Y-111949858D01*
X182224544Y-111958160D01*
X181979149Y-112325420D01*
X181973426Y-112333296D01*
X181699968Y-112680177D01*
X181693645Y-112687581D01*
X181393817Y-113011932D01*
X181386932Y-113018817D01*
X181062581Y-113318645D01*
X181055177Y-113324968D01*
X180708296Y-113598426D01*
X180700420Y-113604149D01*
X180333160Y-113849544D01*
X180324858Y-113854631D01*
X179939467Y-114070461D01*
X179930792Y-114074882D01*
X179529663Y-114259804D01*
X179520668Y-114263530D01*
X179106255Y-114416415D01*
X179096995Y-114419423D01*
X178671882Y-114539318D01*
X178662414Y-114541591D01*
X178229197Y-114627763D01*
X178219581Y-114629286D01*
X177780940Y-114681203D01*
X177771233Y-114681967D01*
X177327419Y-114699404D01*
X177322815Y-114699500D01*
X177280830Y-114699500D01*
X177280580Y-114699589D01*
X177269711Y-114699613D01*
X177269709Y-114699612D01*
X177269706Y-114699613D01*
X125945180Y-114806852D01*
X125940054Y-114806756D01*
X125496417Y-114789329D01*
X125486710Y-114788566D01*
X125048045Y-114736650D01*
X125038428Y-114735126D01*
X124605229Y-114648959D01*
X124595762Y-114646687D01*
X124170627Y-114526789D01*
X124161367Y-114523780D01*
X123746963Y-114370900D01*
X123737973Y-114367176D01*
X123475450Y-114246153D01*
X123336844Y-114182255D01*
X123328169Y-114177835D01*
X122942765Y-113962000D01*
X122934477Y-113956920D01*
X122567215Y-113711525D01*
X122559338Y-113705802D01*
X122340440Y-113533237D01*
X122227225Y-113443986D01*
X122227222Y-113443984D01*
X162624500Y-113443984D01*
X162624500Y-113556020D01*
X162653497Y-113664239D01*
X162709515Y-113761265D01*
X162788737Y-113840487D01*
X162885763Y-113896505D01*
X162993982Y-113925502D01*
X162993984Y-113925502D01*
X163106016Y-113925502D01*
X163106018Y-113925502D01*
X163214237Y-113896505D01*
X163311263Y-113840487D01*
X163390485Y-113761265D01*
X163446503Y-113664239D01*
X163475500Y-113556020D01*
X163475500Y-113443984D01*
X163446503Y-113335765D01*
X163390485Y-113238739D01*
X163311263Y-113159517D01*
X163214237Y-113103499D01*
X163106018Y-113074502D01*
X162993982Y-113074502D01*
X162885763Y-113103499D01*
X162885760Y-113103500D01*
X162788740Y-113159515D01*
X162788734Y-113159519D01*
X162709517Y-113238736D01*
X162709513Y-113238742D01*
X162653498Y-113335762D01*
X162653497Y-113335765D01*
X162624500Y-113443984D01*
X122227222Y-113443984D01*
X122212445Y-113432334D01*
X122205048Y-113426016D01*
X122095735Y-113324968D01*
X121880690Y-113126182D01*
X121873817Y-113119309D01*
X121573978Y-112794945D01*
X121567660Y-112787548D01*
X121555119Y-112771640D01*
X121390546Y-112562880D01*
X121294197Y-112440661D01*
X121288474Y-112432784D01*
X121269419Y-112404266D01*
X121043074Y-112065515D01*
X121037999Y-112057234D01*
X120982515Y-111958160D01*
X120835999Y-111696534D01*
X120822164Y-111671830D01*
X120817744Y-111663155D01*
X120801741Y-111628441D01*
X120632817Y-111262013D01*
X120629099Y-111253036D01*
X120615347Y-111215760D01*
X120579554Y-111118737D01*
X120571066Y-111095730D01*
X131749500Y-111095730D01*
X131749500Y-112404269D01*
X131752353Y-112434699D01*
X131752353Y-112434701D01*
X131797206Y-112562880D01*
X131797207Y-112562882D01*
X131877850Y-112672150D01*
X131987118Y-112752793D01*
X132029845Y-112767744D01*
X132115299Y-112797646D01*
X132145730Y-112800500D01*
X132145734Y-112800500D01*
X133704270Y-112800500D01*
X133734699Y-112797646D01*
X133734701Y-112797646D01*
X133809020Y-112771640D01*
X133862882Y-112752793D01*
X133972150Y-112672150D01*
X134052793Y-112562882D01*
X134085414Y-112469657D01*
X134097646Y-112434701D01*
X134097646Y-112434699D01*
X134100500Y-112404269D01*
X134100500Y-111323982D01*
X137424500Y-111323982D01*
X137424500Y-111436018D01*
X137453497Y-111544237D01*
X137509515Y-111641263D01*
X137588737Y-111720485D01*
X137685763Y-111776503D01*
X137793982Y-111805500D01*
X137793984Y-111805500D01*
X137906016Y-111805500D01*
X137906018Y-111805500D01*
X138014237Y-111776503D01*
X138111263Y-111720485D01*
X138135218Y-111696530D01*
X166729500Y-111696530D01*
X166729500Y-111903469D01*
X166769868Y-112106412D01*
X166769870Y-112106420D01*
X166849059Y-112297598D01*
X166906541Y-112383626D01*
X166964024Y-112469657D01*
X167110342Y-112615975D01*
X167110345Y-112615977D01*
X167282402Y-112730941D01*
X167473580Y-112810130D01*
X167618052Y-112838867D01*
X167676530Y-112850499D01*
X167676534Y-112850500D01*
X167676535Y-112850500D01*
X167883466Y-112850500D01*
X167883467Y-112850499D01*
X168086420Y-112810130D01*
X168277598Y-112730941D01*
X168449655Y-112615977D01*
X168595977Y-112469655D01*
X168710941Y-112297598D01*
X168790130Y-112106420D01*
X168830500Y-111903465D01*
X168830500Y-111696535D01*
X168830499Y-111696530D01*
X169269500Y-111696530D01*
X169269500Y-111903469D01*
X169309868Y-112106412D01*
X169309870Y-112106420D01*
X169389059Y-112297598D01*
X169446541Y-112383626D01*
X169504024Y-112469657D01*
X169650342Y-112615975D01*
X169650345Y-112615977D01*
X169822402Y-112730941D01*
X170013580Y-112810130D01*
X170158052Y-112838867D01*
X170216530Y-112850499D01*
X170216534Y-112850500D01*
X170216535Y-112850500D01*
X170423466Y-112850500D01*
X170423467Y-112850499D01*
X170626420Y-112810130D01*
X170817598Y-112730941D01*
X170989655Y-112615977D01*
X171135977Y-112469655D01*
X171250941Y-112297598D01*
X171330130Y-112106420D01*
X171370500Y-111903465D01*
X171370500Y-111696535D01*
X171330130Y-111493580D01*
X171250941Y-111302402D01*
X171135977Y-111130345D01*
X171135975Y-111130342D01*
X170989657Y-110984024D01*
X170909173Y-110930247D01*
X174349500Y-110930247D01*
X174349500Y-112669752D01*
X174361131Y-112728229D01*
X174361132Y-112728230D01*
X174405447Y-112794552D01*
X174471769Y-112838867D01*
X174471770Y-112838868D01*
X174530247Y-112850499D01*
X174530250Y-112850500D01*
X174530252Y-112850500D01*
X176269750Y-112850500D01*
X176269751Y-112850499D01*
X176284568Y-112847552D01*
X176328229Y-112838868D01*
X176328229Y-112838867D01*
X176328231Y-112838867D01*
X176394552Y-112794552D01*
X176438867Y-112728231D01*
X176438867Y-112728229D01*
X176438868Y-112728229D01*
X176447665Y-112684002D01*
X176450500Y-112669748D01*
X176450500Y-110930252D01*
X176450500Y-110930249D01*
X176450499Y-110930247D01*
X176438868Y-110871770D01*
X176438867Y-110871769D01*
X176394552Y-110805447D01*
X176328230Y-110761132D01*
X176328229Y-110761131D01*
X176269752Y-110749500D01*
X176269748Y-110749500D01*
X174530252Y-110749500D01*
X174530247Y-110749500D01*
X174471770Y-110761131D01*
X174471769Y-110761132D01*
X174405447Y-110805447D01*
X174361132Y-110871769D01*
X174361131Y-110871770D01*
X174349500Y-110930247D01*
X170909173Y-110930247D01*
X170821655Y-110871770D01*
X170817598Y-110869059D01*
X170626420Y-110789870D01*
X170626412Y-110789868D01*
X170423469Y-110749500D01*
X170423465Y-110749500D01*
X170216535Y-110749500D01*
X170216530Y-110749500D01*
X170013587Y-110789868D01*
X170013579Y-110789870D01*
X169822403Y-110869058D01*
X169650342Y-110984024D01*
X169504024Y-111130342D01*
X169389058Y-111302403D01*
X169309870Y-111493579D01*
X169309868Y-111493587D01*
X169269500Y-111696530D01*
X168830499Y-111696530D01*
X168790130Y-111493580D01*
X168710941Y-111302402D01*
X168595977Y-111130345D01*
X168595975Y-111130342D01*
X168449657Y-110984024D01*
X168281655Y-110871770D01*
X168277598Y-110869059D01*
X168086420Y-110789870D01*
X168086412Y-110789868D01*
X167883469Y-110749500D01*
X167883465Y-110749500D01*
X167676535Y-110749500D01*
X167676530Y-110749500D01*
X167473587Y-110789868D01*
X167473579Y-110789870D01*
X167282403Y-110869058D01*
X167110342Y-110984024D01*
X166964024Y-111130342D01*
X166849058Y-111302403D01*
X166769870Y-111493579D01*
X166769868Y-111493587D01*
X166729500Y-111696530D01*
X138135218Y-111696530D01*
X138190485Y-111641263D01*
X138246503Y-111544237D01*
X138275500Y-111436018D01*
X138275500Y-111323982D01*
X138246503Y-111215763D01*
X138190485Y-111118737D01*
X138111263Y-111039515D01*
X138014237Y-110983497D01*
X137906018Y-110954500D01*
X137793982Y-110954500D01*
X137685763Y-110983497D01*
X137685760Y-110983498D01*
X137588740Y-111039513D01*
X137588734Y-111039517D01*
X137509517Y-111118734D01*
X137509513Y-111118740D01*
X137453498Y-111215760D01*
X137453497Y-111215763D01*
X137424500Y-111323982D01*
X134100500Y-111323982D01*
X134100500Y-111095730D01*
X134097646Y-111065300D01*
X134097646Y-111065298D01*
X134052793Y-110937119D01*
X134052792Y-110937117D01*
X133972150Y-110827850D01*
X133862882Y-110747207D01*
X133862880Y-110747206D01*
X133734700Y-110702353D01*
X133704270Y-110699500D01*
X133704266Y-110699500D01*
X132145734Y-110699500D01*
X132145730Y-110699500D01*
X132115300Y-110702353D01*
X132115298Y-110702353D01*
X131987119Y-110747206D01*
X131987117Y-110747207D01*
X131877850Y-110827850D01*
X131797207Y-110937117D01*
X131797206Y-110937119D01*
X131752353Y-111065298D01*
X131752353Y-111065300D01*
X131749500Y-111095730D01*
X120571066Y-111095730D01*
X120550328Y-111039515D01*
X120476215Y-110838622D01*
X120473210Y-110829372D01*
X120453965Y-110761132D01*
X120353308Y-110404223D01*
X120351043Y-110394785D01*
X120264870Y-109961556D01*
X120263351Y-109951969D01*
X120211432Y-109513281D01*
X120210670Y-109503582D01*
X120207719Y-109428469D01*
X120196644Y-109146530D01*
X131749500Y-109146530D01*
X131749500Y-109353469D01*
X131789868Y-109556412D01*
X131789870Y-109556420D01*
X131869058Y-109747596D01*
X131984024Y-109919657D01*
X132130342Y-110065975D01*
X132130345Y-110065977D01*
X132302402Y-110180941D01*
X132493580Y-110260130D01*
X132630747Y-110287414D01*
X132696530Y-110300499D01*
X132696534Y-110300500D01*
X132696535Y-110300500D01*
X133153466Y-110300500D01*
X133153467Y-110300499D01*
X133356420Y-110260130D01*
X133547598Y-110180941D01*
X133719655Y-110065977D01*
X133865977Y-109919655D01*
X133980941Y-109747598D01*
X134060130Y-109556420D01*
X134100500Y-109353465D01*
X134100500Y-109221530D01*
X150299500Y-109221530D01*
X150299500Y-109428469D01*
X150339868Y-109631412D01*
X150339870Y-109631420D01*
X150419058Y-109822596D01*
X150534024Y-109994657D01*
X150680342Y-110140975D01*
X150680345Y-110140977D01*
X150852402Y-110255941D01*
X151043580Y-110335130D01*
X151246530Y-110375499D01*
X151246534Y-110375500D01*
X151246535Y-110375500D01*
X151453466Y-110375500D01*
X151453467Y-110375499D01*
X151656420Y-110335130D01*
X151847598Y-110255941D01*
X152019655Y-110140977D01*
X152165977Y-109994655D01*
X152280941Y-109822598D01*
X152360130Y-109631420D01*
X152400500Y-109428465D01*
X152400500Y-109221535D01*
X152360130Y-109018580D01*
X152280941Y-108827402D01*
X152249098Y-108779745D01*
X152249097Y-108779742D01*
X152208498Y-108718982D01*
X155339500Y-108718982D01*
X155339500Y-108831018D01*
X155368497Y-108939237D01*
X155424515Y-109036263D01*
X155503737Y-109115485D01*
X155600763Y-109171503D01*
X155708982Y-109200500D01*
X155708984Y-109200500D01*
X155821016Y-109200500D01*
X155821018Y-109200500D01*
X155929237Y-109171503D01*
X156026263Y-109115485D01*
X156105485Y-109036263D01*
X156161503Y-108939237D01*
X156180328Y-108868982D01*
X159724500Y-108868982D01*
X159724500Y-108981018D01*
X159753497Y-109089237D01*
X159809515Y-109186263D01*
X159888737Y-109265485D01*
X159985763Y-109321503D01*
X160093982Y-109350500D01*
X160093984Y-109350500D01*
X160206016Y-109350500D01*
X160206018Y-109350500D01*
X160314237Y-109321503D01*
X160411263Y-109265485D01*
X160490485Y-109186263D01*
X160546503Y-109089237D01*
X160575500Y-108981018D01*
X160575500Y-108868982D01*
X160546503Y-108760763D01*
X160490485Y-108663737D01*
X160411263Y-108584515D01*
X160314237Y-108528497D01*
X160206018Y-108499500D01*
X160093982Y-108499500D01*
X159985763Y-108528497D01*
X159985760Y-108528498D01*
X159888740Y-108584513D01*
X159888734Y-108584517D01*
X159809517Y-108663734D01*
X159809513Y-108663740D01*
X159753498Y-108760760D01*
X159753497Y-108760763D01*
X159724500Y-108868982D01*
X156180328Y-108868982D01*
X156190500Y-108831018D01*
X156190500Y-108718982D01*
X156161503Y-108610763D01*
X156105485Y-108513737D01*
X156026263Y-108434515D01*
X155929237Y-108378497D01*
X155821018Y-108349500D01*
X155708982Y-108349500D01*
X155600763Y-108378497D01*
X155600760Y-108378498D01*
X155503740Y-108434513D01*
X155503734Y-108434517D01*
X155424517Y-108513734D01*
X155424513Y-108513740D01*
X155368498Y-108610760D01*
X155368497Y-108610763D01*
X155339500Y-108718982D01*
X152208498Y-108718982D01*
X152165980Y-108655349D01*
X152165974Y-108655341D01*
X152019657Y-108509024D01*
X151907409Y-108434023D01*
X151847598Y-108394059D01*
X151810028Y-108378497D01*
X151656420Y-108314870D01*
X151656412Y-108314868D01*
X151453469Y-108274500D01*
X151453465Y-108274500D01*
X151246535Y-108274500D01*
X151246530Y-108274500D01*
X151043587Y-108314868D01*
X151043579Y-108314870D01*
X150852403Y-108394058D01*
X150680342Y-108509024D01*
X150534024Y-108655342D01*
X150419058Y-108827403D01*
X150339870Y-109018579D01*
X150339868Y-109018587D01*
X150299500Y-109221530D01*
X134100500Y-109221530D01*
X134100500Y-109146535D01*
X134060130Y-108943580D01*
X133980941Y-108752402D01*
X133865977Y-108580345D01*
X133865975Y-108580342D01*
X133719657Y-108434024D01*
X133593156Y-108349500D01*
X133547598Y-108319059D01*
X133356420Y-108239870D01*
X133356412Y-108239868D01*
X133153469Y-108199500D01*
X133153465Y-108199500D01*
X132696535Y-108199500D01*
X132696530Y-108199500D01*
X132493587Y-108239868D01*
X132493579Y-108239870D01*
X132302403Y-108319058D01*
X132130342Y-108434024D01*
X131984024Y-108580342D01*
X131869058Y-108752403D01*
X131789870Y-108943579D01*
X131789868Y-108943587D01*
X131749500Y-109146530D01*
X120196644Y-109146530D01*
X120193237Y-109059804D01*
X120193141Y-109054937D01*
X120193141Y-108043982D01*
X161099500Y-108043982D01*
X161099500Y-108156018D01*
X161128497Y-108264237D01*
X161184515Y-108361263D01*
X161263737Y-108440485D01*
X161360763Y-108496503D01*
X161468982Y-108525500D01*
X161468984Y-108525500D01*
X161581016Y-108525500D01*
X161581018Y-108525500D01*
X161689237Y-108496503D01*
X161786263Y-108440485D01*
X161865485Y-108361263D01*
X161921503Y-108264237D01*
X161950500Y-108156018D01*
X161950500Y-108043982D01*
X161921503Y-107935763D01*
X161865485Y-107838737D01*
X161786263Y-107759515D01*
X161689237Y-107703497D01*
X161581018Y-107674500D01*
X161468982Y-107674500D01*
X161360763Y-107703497D01*
X161360760Y-107703498D01*
X161263740Y-107759513D01*
X161263734Y-107759517D01*
X161184517Y-107838734D01*
X161184513Y-107838740D01*
X161128498Y-107935760D01*
X161128497Y-107935763D01*
X161099500Y-108043982D01*
X120193141Y-108043982D01*
X120193141Y-106681530D01*
X150299500Y-106681530D01*
X150299500Y-106888469D01*
X150339868Y-107091412D01*
X150339870Y-107091420D01*
X150419058Y-107282596D01*
X150534024Y-107454657D01*
X150680342Y-107600975D01*
X150680345Y-107600977D01*
X150852402Y-107715941D01*
X151043580Y-107795130D01*
X151246530Y-107835499D01*
X151246534Y-107835500D01*
X151246535Y-107835500D01*
X151453466Y-107835500D01*
X151453467Y-107835499D01*
X151656420Y-107795130D01*
X151847598Y-107715941D01*
X152019655Y-107600977D01*
X152165977Y-107454655D01*
X152280941Y-107282598D01*
X152360130Y-107091420D01*
X152400500Y-106888465D01*
X152400500Y-106681535D01*
X152360130Y-106478580D01*
X152280941Y-106287402D01*
X152165977Y-106115345D01*
X152165975Y-106115342D01*
X152019657Y-105969024D01*
X151984794Y-105945730D01*
X173949500Y-105945730D01*
X173949500Y-107254269D01*
X173952353Y-107284699D01*
X173952353Y-107284701D01*
X173997206Y-107412880D01*
X173997207Y-107412882D01*
X174077850Y-107522150D01*
X174187118Y-107602793D01*
X174229845Y-107617744D01*
X174315299Y-107647646D01*
X174345730Y-107650500D01*
X174345734Y-107650500D01*
X175904270Y-107650500D01*
X175934699Y-107647646D01*
X175934701Y-107647646D01*
X175998790Y-107625219D01*
X176062882Y-107602793D01*
X176172150Y-107522150D01*
X176252793Y-107412882D01*
X176275219Y-107348790D01*
X176297646Y-107284701D01*
X176297646Y-107284699D01*
X176300500Y-107254269D01*
X176300500Y-105945730D01*
X176297646Y-105915300D01*
X176297646Y-105915298D01*
X176252793Y-105787119D01*
X176252792Y-105787117D01*
X176172150Y-105677850D01*
X176062882Y-105597207D01*
X176062880Y-105597206D01*
X175934700Y-105552353D01*
X175904270Y-105549500D01*
X175904266Y-105549500D01*
X174345734Y-105549500D01*
X174345730Y-105549500D01*
X174315300Y-105552353D01*
X174315298Y-105552353D01*
X174187119Y-105597206D01*
X174187117Y-105597207D01*
X174077850Y-105677850D01*
X173997207Y-105787117D01*
X173997206Y-105787119D01*
X173952353Y-105915298D01*
X173952353Y-105915300D01*
X173949500Y-105945730D01*
X151984794Y-105945730D01*
X151933626Y-105911541D01*
X151847598Y-105854059D01*
X151656420Y-105774870D01*
X151656412Y-105774868D01*
X151453469Y-105734500D01*
X151453465Y-105734500D01*
X151246535Y-105734500D01*
X151246530Y-105734500D01*
X151043587Y-105774868D01*
X151043579Y-105774870D01*
X150852403Y-105854058D01*
X150680342Y-105969024D01*
X150534024Y-106115342D01*
X150419058Y-106287403D01*
X150339870Y-106478579D01*
X150339868Y-106478587D01*
X150299500Y-106681530D01*
X120193141Y-106681530D01*
X120193141Y-104146530D01*
X131749500Y-104146530D01*
X131749500Y-104353469D01*
X131789868Y-104556412D01*
X131789870Y-104556420D01*
X131869058Y-104747596D01*
X131984024Y-104919657D01*
X132130342Y-105065975D01*
X132130345Y-105065977D01*
X132302402Y-105180941D01*
X132493580Y-105260130D01*
X132671393Y-105295499D01*
X132696530Y-105300499D01*
X132696534Y-105300500D01*
X132696535Y-105300500D01*
X133153466Y-105300500D01*
X133153467Y-105300499D01*
X133356420Y-105260130D01*
X133547598Y-105180941D01*
X133719655Y-105065977D01*
X133865977Y-104919655D01*
X133980941Y-104747598D01*
X134060130Y-104556420D01*
X134100500Y-104353465D01*
X134100500Y-104146535D01*
X134100499Y-104146530D01*
X134097220Y-104130044D01*
X134097220Y-104130041D01*
X134094026Y-104113982D01*
X138814500Y-104113982D01*
X138814500Y-104226017D01*
X138843497Y-104334236D01*
X138843498Y-104334239D01*
X138851712Y-104348466D01*
X138899515Y-104431263D01*
X138978737Y-104510485D01*
X139075763Y-104566503D01*
X139183982Y-104595500D01*
X139183984Y-104595500D01*
X139296016Y-104595500D01*
X139296018Y-104595500D01*
X139404237Y-104566503D01*
X139501263Y-104510485D01*
X139580485Y-104431263D01*
X139636503Y-104334237D01*
X139665500Y-104226018D01*
X139665500Y-104141530D01*
X150299500Y-104141530D01*
X150299500Y-104348469D01*
X150339868Y-104551412D01*
X150339870Y-104551420D01*
X150419058Y-104742596D01*
X150534024Y-104914657D01*
X150680342Y-105060975D01*
X150680345Y-105060977D01*
X150852402Y-105175941D01*
X151043580Y-105255130D01*
X151246530Y-105295499D01*
X151246534Y-105295500D01*
X151246535Y-105295500D01*
X151453466Y-105295500D01*
X151453467Y-105295499D01*
X151656420Y-105255130D01*
X151847598Y-105175941D01*
X152019655Y-105060977D01*
X152165977Y-104914655D01*
X152280941Y-104742598D01*
X152360130Y-104551420D01*
X152400500Y-104348465D01*
X152400500Y-104141535D01*
X152371657Y-103996530D01*
X173949500Y-103996530D01*
X173949500Y-104203469D01*
X173989868Y-104406412D01*
X173989870Y-104406420D01*
X174069058Y-104597596D01*
X174184024Y-104769657D01*
X174330342Y-104915975D01*
X174330345Y-104915977D01*
X174502402Y-105030941D01*
X174693580Y-105110130D01*
X174896530Y-105150499D01*
X174896534Y-105150500D01*
X174896535Y-105150500D01*
X175353466Y-105150500D01*
X175353467Y-105150499D01*
X175556420Y-105110130D01*
X175747598Y-105030941D01*
X175919655Y-104915977D01*
X176065977Y-104769655D01*
X176180941Y-104597598D01*
X176260130Y-104406420D01*
X176300500Y-104203465D01*
X176300500Y-103996535D01*
X176260130Y-103793580D01*
X176180941Y-103602402D01*
X176065977Y-103430345D01*
X176065975Y-103430342D01*
X175919657Y-103284024D01*
X175785673Y-103194500D01*
X175747598Y-103169059D01*
X175556420Y-103089870D01*
X175556412Y-103089868D01*
X175353469Y-103049500D01*
X175353465Y-103049500D01*
X174896535Y-103049500D01*
X174896530Y-103049500D01*
X174693587Y-103089868D01*
X174693579Y-103089870D01*
X174502403Y-103169058D01*
X174330342Y-103284024D01*
X174184024Y-103430342D01*
X174069058Y-103602403D01*
X173989870Y-103793579D01*
X173989868Y-103793587D01*
X173949500Y-103996530D01*
X152371657Y-103996530D01*
X152360130Y-103938580D01*
X152280941Y-103747402D01*
X152165977Y-103575345D01*
X152165975Y-103575342D01*
X152019657Y-103429024D01*
X151855081Y-103319059D01*
X151847598Y-103314059D01*
X151656420Y-103234870D01*
X151656412Y-103234868D01*
X151453469Y-103194500D01*
X151453465Y-103194500D01*
X151246535Y-103194500D01*
X151246530Y-103194500D01*
X151043587Y-103234868D01*
X151043579Y-103234870D01*
X150852403Y-103314058D01*
X150680342Y-103429024D01*
X150534024Y-103575342D01*
X150419058Y-103747403D01*
X150339870Y-103938579D01*
X150339868Y-103938587D01*
X150299500Y-104141530D01*
X139665500Y-104141530D01*
X139665500Y-104113982D01*
X139636503Y-104005763D01*
X139580485Y-103908737D01*
X139501263Y-103829515D01*
X139404237Y-103773497D01*
X139296018Y-103744500D01*
X139183982Y-103744500D01*
X139075763Y-103773497D01*
X139075760Y-103773498D01*
X138978740Y-103829513D01*
X138978734Y-103829517D01*
X138899517Y-103908734D01*
X138899513Y-103908740D01*
X138843498Y-104005760D01*
X138843497Y-104005763D01*
X138814500Y-104113982D01*
X134094026Y-104113982D01*
X134060131Y-103943587D01*
X134060130Y-103943580D01*
X133980941Y-103752402D01*
X133865977Y-103580345D01*
X133865975Y-103580342D01*
X133719657Y-103434024D01*
X133633626Y-103376541D01*
X133547598Y-103319059D01*
X133356420Y-103239870D01*
X133356412Y-103239868D01*
X133153469Y-103199500D01*
X133153465Y-103199500D01*
X132696535Y-103199500D01*
X132696530Y-103199500D01*
X132493587Y-103239868D01*
X132493579Y-103239870D01*
X132302403Y-103319058D01*
X132130342Y-103434024D01*
X131984024Y-103580342D01*
X131869058Y-103752403D01*
X131789870Y-103943579D01*
X131789868Y-103943587D01*
X131749500Y-104146530D01*
X120193141Y-104146530D01*
X120193141Y-101646530D01*
X131749500Y-101646530D01*
X131749500Y-101853469D01*
X131789868Y-102056412D01*
X131789870Y-102056420D01*
X131869058Y-102247596D01*
X131984024Y-102419657D01*
X132130342Y-102565975D01*
X132130345Y-102565977D01*
X132302402Y-102680941D01*
X132493580Y-102760130D01*
X132696530Y-102800499D01*
X132696534Y-102800500D01*
X132696535Y-102800500D01*
X133153466Y-102800500D01*
X133153467Y-102800499D01*
X133356420Y-102760130D01*
X133547598Y-102680941D01*
X133719655Y-102565977D01*
X133865977Y-102419655D01*
X133980941Y-102247598D01*
X134060130Y-102056420D01*
X134073300Y-101990214D01*
X144970732Y-101990214D01*
X144970732Y-102102250D01*
X144999729Y-102210469D01*
X145055747Y-102307495D01*
X145134969Y-102386717D01*
X145231995Y-102442735D01*
X145340214Y-102471732D01*
X145340216Y-102471732D01*
X145452248Y-102471732D01*
X145452250Y-102471732D01*
X145560469Y-102442735D01*
X145657495Y-102386717D01*
X145736717Y-102307495D01*
X145792735Y-102210469D01*
X145821732Y-102102250D01*
X145821732Y-101990214D01*
X145792735Y-101881995D01*
X145770077Y-101842750D01*
X147123268Y-101842750D01*
X147123268Y-101954786D01*
X147152265Y-102063005D01*
X147208283Y-102160031D01*
X147287505Y-102239253D01*
X147384531Y-102295271D01*
X147492750Y-102324268D01*
X147492752Y-102324268D01*
X147604784Y-102324268D01*
X147604786Y-102324268D01*
X147713005Y-102295271D01*
X147810031Y-102239253D01*
X147889253Y-102160031D01*
X147945271Y-102063005D01*
X147950368Y-102043982D01*
X156049500Y-102043982D01*
X156049500Y-102156018D01*
X156078497Y-102264237D01*
X156134515Y-102361263D01*
X156213737Y-102440485D01*
X156310763Y-102496503D01*
X156418982Y-102525500D01*
X156418984Y-102525500D01*
X156531016Y-102525500D01*
X156531018Y-102525500D01*
X156639237Y-102496503D01*
X156736263Y-102440485D01*
X156815485Y-102361263D01*
X156871503Y-102264237D01*
X156900500Y-102156018D01*
X156900500Y-102043982D01*
X156871503Y-101935763D01*
X156815485Y-101838737D01*
X156736263Y-101759515D01*
X156639237Y-101703497D01*
X156531018Y-101674500D01*
X156418982Y-101674500D01*
X156310763Y-101703497D01*
X156310760Y-101703498D01*
X156213740Y-101759513D01*
X156213734Y-101759517D01*
X156134517Y-101838734D01*
X156134513Y-101838740D01*
X156078498Y-101935760D01*
X156078497Y-101935763D01*
X156049500Y-102043982D01*
X147950368Y-102043982D01*
X147974268Y-101954786D01*
X147974268Y-101847354D01*
X147974824Y-101841501D01*
X147985699Y-101814297D01*
X147993953Y-101786188D01*
X147998517Y-101782232D01*
X148000760Y-101776623D01*
X148024620Y-101759614D01*
X148046757Y-101740433D01*
X148052734Y-101739573D01*
X148057654Y-101736067D01*
X148086916Y-101734658D01*
X148115915Y-101730489D01*
X148126869Y-101732735D01*
X148127443Y-101732708D01*
X148127834Y-101732933D01*
X148130343Y-101733448D01*
X148193982Y-101750500D01*
X148193985Y-101750500D01*
X148306016Y-101750500D01*
X148306018Y-101750500D01*
X148414237Y-101721503D01*
X148511263Y-101665485D01*
X148590485Y-101586263D01*
X148642292Y-101496530D01*
X173949500Y-101496530D01*
X173949500Y-101703469D01*
X173989868Y-101906412D01*
X173989870Y-101906420D01*
X174054729Y-102063004D01*
X174069059Y-102097598D01*
X174126541Y-102183626D01*
X174184024Y-102269657D01*
X174330342Y-102415975D01*
X174330345Y-102415977D01*
X174502402Y-102530941D01*
X174693580Y-102610130D01*
X174896530Y-102650499D01*
X174896534Y-102650500D01*
X174896535Y-102650500D01*
X175353466Y-102650500D01*
X175353467Y-102650499D01*
X175556420Y-102610130D01*
X175747598Y-102530941D01*
X175919655Y-102415977D01*
X176065977Y-102269655D01*
X176180941Y-102097598D01*
X176260130Y-101906420D01*
X176300500Y-101703465D01*
X176300500Y-101496535D01*
X176260130Y-101293580D01*
X176180941Y-101102402D01*
X176065977Y-100930345D01*
X176065975Y-100930342D01*
X175919657Y-100784024D01*
X175793156Y-100699500D01*
X175747598Y-100669059D01*
X175705581Y-100651655D01*
X175556420Y-100589870D01*
X175556412Y-100589868D01*
X175353469Y-100549500D01*
X175353465Y-100549500D01*
X174896535Y-100549500D01*
X174896530Y-100549500D01*
X174693587Y-100589868D01*
X174693579Y-100589870D01*
X174502403Y-100669058D01*
X174330342Y-100784024D01*
X174184024Y-100930342D01*
X174069058Y-101102403D01*
X173989870Y-101293579D01*
X173989868Y-101293587D01*
X173949500Y-101496530D01*
X148642292Y-101496530D01*
X148646503Y-101489237D01*
X148675500Y-101381018D01*
X148675500Y-101268982D01*
X148646503Y-101160763D01*
X148590485Y-101063737D01*
X148511263Y-100984515D01*
X148414237Y-100928497D01*
X148306018Y-100899500D01*
X148193982Y-100899500D01*
X148085763Y-100928497D01*
X148085760Y-100928498D01*
X147988740Y-100984513D01*
X147988734Y-100984517D01*
X147909517Y-101063734D01*
X147909513Y-101063740D01*
X147853498Y-101160760D01*
X147853497Y-101160763D01*
X147824500Y-101268982D01*
X147824500Y-101370540D01*
X147804815Y-101437579D01*
X147752011Y-101483334D01*
X147682853Y-101493278D01*
X147668407Y-101490315D01*
X147642353Y-101483334D01*
X147604786Y-101473268D01*
X147492750Y-101473268D01*
X147384531Y-101502265D01*
X147384528Y-101502266D01*
X147287508Y-101558281D01*
X147287502Y-101558285D01*
X147208285Y-101637502D01*
X147208281Y-101637508D01*
X147152266Y-101734528D01*
X147152265Y-101734531D01*
X147123268Y-101842750D01*
X145770077Y-101842750D01*
X145736717Y-101784969D01*
X145657495Y-101705747D01*
X145560469Y-101649729D01*
X145452250Y-101620732D01*
X145340214Y-101620732D01*
X145231995Y-101649729D01*
X145231992Y-101649730D01*
X145134972Y-101705745D01*
X145134966Y-101705749D01*
X145055749Y-101784966D01*
X145055745Y-101784972D01*
X144999730Y-101881992D01*
X144999729Y-101881995D01*
X144970732Y-101990214D01*
X134073300Y-101990214D01*
X134080347Y-101954786D01*
X134100499Y-101853469D01*
X134100500Y-101853466D01*
X134100500Y-101646534D01*
X134100499Y-101646530D01*
X134069212Y-101489239D01*
X134060130Y-101443580D01*
X133980941Y-101252402D01*
X133865977Y-101080345D01*
X133865975Y-101080342D01*
X133719657Y-100934024D01*
X133610008Y-100860760D01*
X133547598Y-100819059D01*
X133414032Y-100763734D01*
X133356420Y-100739870D01*
X133356412Y-100739868D01*
X133153469Y-100699500D01*
X133153465Y-100699500D01*
X132696535Y-100699500D01*
X132696530Y-100699500D01*
X132493587Y-100739868D01*
X132493579Y-100739870D01*
X132302403Y-100819058D01*
X132130342Y-100934024D01*
X131984024Y-101080342D01*
X131869058Y-101252403D01*
X131789870Y-101443579D01*
X131789868Y-101443587D01*
X131749500Y-101646530D01*
X120193141Y-101646530D01*
X120193141Y-99146530D01*
X131749500Y-99146530D01*
X131749500Y-99353469D01*
X131789868Y-99556412D01*
X131789870Y-99556420D01*
X131868604Y-99746501D01*
X131869059Y-99747598D01*
X131905639Y-99802344D01*
X131984024Y-99919657D01*
X132130342Y-100065975D01*
X132130345Y-100065977D01*
X132302402Y-100180941D01*
X132493580Y-100260130D01*
X132639907Y-100289236D01*
X132696530Y-100300499D01*
X132696534Y-100300500D01*
X132696535Y-100300500D01*
X133153466Y-100300500D01*
X133153467Y-100300499D01*
X133356420Y-100260130D01*
X133547598Y-100180941D01*
X133719655Y-100065977D01*
X133865977Y-99919655D01*
X133980941Y-99747598D01*
X134060130Y-99556420D01*
X134100500Y-99353465D01*
X134100500Y-99146535D01*
X134093976Y-99113734D01*
X134079237Y-99039634D01*
X134075636Y-99021530D01*
X139049500Y-99021530D01*
X139049500Y-99528469D01*
X139089868Y-99731412D01*
X139089870Y-99731420D01*
X139169058Y-99922596D01*
X139284024Y-100094657D01*
X139430342Y-100240975D01*
X139430345Y-100240977D01*
X139602402Y-100355941D01*
X139793580Y-100435130D01*
X139982187Y-100472646D01*
X139996530Y-100475499D01*
X139996534Y-100475500D01*
X139996535Y-100475500D01*
X140203466Y-100475500D01*
X140203467Y-100475499D01*
X140406420Y-100435130D01*
X140597598Y-100355941D01*
X140769655Y-100240977D01*
X140915977Y-100094655D01*
X141030941Y-99922598D01*
X141110130Y-99731420D01*
X141150500Y-99528465D01*
X141150500Y-99021535D01*
X141110130Y-98818580D01*
X141030941Y-98627402D01*
X140970353Y-98536725D01*
X140970352Y-98536722D01*
X140926257Y-98470730D01*
X141549500Y-98470730D01*
X141549500Y-100079269D01*
X141552353Y-100109699D01*
X141552353Y-100109701D01*
X141587893Y-100211265D01*
X141597207Y-100237882D01*
X141677850Y-100347150D01*
X141787118Y-100427793D01*
X141808089Y-100435131D01*
X141915299Y-100472646D01*
X141945730Y-100475500D01*
X141945734Y-100475500D01*
X143254270Y-100475500D01*
X143284699Y-100472646D01*
X143284701Y-100472646D01*
X143348790Y-100450219D01*
X143412882Y-100427793D01*
X143522150Y-100347150D01*
X143602793Y-100237882D01*
X143633370Y-100150499D01*
X143647646Y-100109701D01*
X143647646Y-100109699D01*
X143650500Y-100079269D01*
X143650500Y-99405844D01*
X149370043Y-99405844D01*
X149370043Y-99517880D01*
X149399040Y-99626099D01*
X149455058Y-99723125D01*
X149534280Y-99802347D01*
X149631306Y-99858365D01*
X149739525Y-99887362D01*
X149739527Y-99887362D01*
X149851559Y-99887362D01*
X149851561Y-99887362D01*
X149959780Y-99858365D01*
X150056806Y-99802347D01*
X150136028Y-99723125D01*
X150192046Y-99626099D01*
X150221043Y-99517880D01*
X150221043Y-99405844D01*
X150216933Y-99390505D01*
X150217476Y-99367643D01*
X150213420Y-99345130D01*
X150218292Y-99333374D01*
X150218595Y-99320656D01*
X150231413Y-99301715D01*
X150234618Y-99293982D01*
X160499500Y-99293982D01*
X160499500Y-99406018D01*
X160527566Y-99510760D01*
X160528497Y-99514236D01*
X160528498Y-99514239D01*
X160536712Y-99528466D01*
X160584515Y-99611263D01*
X160663737Y-99690485D01*
X160760763Y-99746503D01*
X160868982Y-99775500D01*
X160868984Y-99775500D01*
X160981016Y-99775500D01*
X160981018Y-99775500D01*
X161089237Y-99746503D01*
X161186263Y-99690485D01*
X161265485Y-99611263D01*
X161265489Y-99611255D01*
X161269261Y-99606341D01*
X161325688Y-99565137D01*
X161395434Y-99560982D01*
X161456355Y-99595193D01*
X161463972Y-99603751D01*
X161470133Y-99611353D01*
X161484515Y-99636263D01*
X161515149Y-99666897D01*
X161519224Y-99671925D01*
X161530290Y-99698431D01*
X161544056Y-99723642D01*
X161543582Y-99730270D01*
X161546142Y-99736402D01*
X161541121Y-99764681D01*
X161539072Y-99793334D01*
X161534874Y-99799865D01*
X161533928Y-99805195D01*
X161525823Y-99813949D01*
X161510571Y-99837681D01*
X161484517Y-99863734D01*
X161484513Y-99863740D01*
X161428498Y-99960760D01*
X161428497Y-99960763D01*
X161399500Y-100068982D01*
X161399500Y-100181018D01*
X161415566Y-100240975D01*
X161428497Y-100289236D01*
X161428498Y-100289239D01*
X161429218Y-100290486D01*
X161484515Y-100386263D01*
X161563737Y-100465485D01*
X161566784Y-100467244D01*
X161567426Y-100467615D01*
X161569913Y-100470223D01*
X161570186Y-100470433D01*
X161570153Y-100470475D01*
X161615640Y-100518184D01*
X161628860Y-100586791D01*
X161602890Y-100651655D01*
X161567426Y-100682385D01*
X161563740Y-100684513D01*
X161563734Y-100684517D01*
X161484517Y-100763734D01*
X161484513Y-100763740D01*
X161428498Y-100860760D01*
X161428497Y-100860763D01*
X161399500Y-100968982D01*
X161399500Y-101081018D01*
X161428497Y-101189237D01*
X161484515Y-101286263D01*
X161563737Y-101365485D01*
X161660763Y-101421503D01*
X161768982Y-101450500D01*
X161768984Y-101450500D01*
X161881016Y-101450500D01*
X161881018Y-101450500D01*
X161989237Y-101421503D01*
X162086263Y-101365485D01*
X162165485Y-101286263D01*
X162221503Y-101189237D01*
X162250500Y-101081018D01*
X162250500Y-100968982D01*
X162221503Y-100860763D01*
X162165485Y-100763737D01*
X162086263Y-100684515D01*
X162082576Y-100682386D01*
X162080090Y-100679779D01*
X162079814Y-100679567D01*
X162079847Y-100679523D01*
X162034362Y-100631821D01*
X162021138Y-100563214D01*
X162047106Y-100498349D01*
X162082576Y-100467613D01*
X162086263Y-100465485D01*
X162165485Y-100386263D01*
X162221503Y-100289237D01*
X162250500Y-100181018D01*
X162250500Y-100068982D01*
X162221503Y-99960763D01*
X162165485Y-99863737D01*
X162139429Y-99837681D01*
X162105944Y-99776358D01*
X162110928Y-99706666D01*
X162139429Y-99662319D01*
X162165485Y-99636263D01*
X162221503Y-99539237D01*
X162250500Y-99431018D01*
X162250500Y-99318982D01*
X162221503Y-99210763D01*
X162165485Y-99113737D01*
X162086263Y-99034515D01*
X162020471Y-98996530D01*
X161989239Y-98978498D01*
X161989238Y-98978497D01*
X161989237Y-98978497D01*
X161881018Y-98949500D01*
X161768982Y-98949500D01*
X161660763Y-98978497D01*
X161660760Y-98978498D01*
X161563740Y-99034513D01*
X161563734Y-99034517D01*
X161484516Y-99113735D01*
X161480731Y-99118668D01*
X161424299Y-99159866D01*
X161354553Y-99164015D01*
X161293635Y-99129797D01*
X161274976Y-99105176D01*
X161265485Y-99088737D01*
X161186263Y-99009515D01*
X161097191Y-98958089D01*
X161089239Y-98953498D01*
X161089238Y-98953497D01*
X161089237Y-98953497D01*
X160981018Y-98924500D01*
X160868982Y-98924500D01*
X160760763Y-98953497D01*
X160760760Y-98953498D01*
X160663740Y-99009513D01*
X160663734Y-99009517D01*
X160584517Y-99088734D01*
X160584513Y-99088740D01*
X160528498Y-99185760D01*
X160528497Y-99185763D01*
X160499500Y-99293982D01*
X150234618Y-99293982D01*
X150240172Y-99280584D01*
X150253348Y-99269306D01*
X150257756Y-99262793D01*
X150266009Y-99256540D01*
X150270242Y-99253602D01*
X150336263Y-99215485D01*
X150415485Y-99136263D01*
X150471503Y-99039237D01*
X150500500Y-98931018D01*
X150500500Y-98818982D01*
X150471503Y-98710763D01*
X150415485Y-98613737D01*
X150336263Y-98534515D01*
X150239237Y-98478497D01*
X150131018Y-98449500D01*
X150018982Y-98449500D01*
X149910763Y-98478497D01*
X149910760Y-98478498D01*
X149813740Y-98534513D01*
X149813734Y-98534517D01*
X149734517Y-98613734D01*
X149734513Y-98613740D01*
X149678498Y-98710760D01*
X149678497Y-98710763D01*
X149649500Y-98818982D01*
X149649500Y-98931022D01*
X149653610Y-98946359D01*
X149651946Y-99016209D01*
X149612783Y-99074070D01*
X149595836Y-99085836D01*
X149534286Y-99121372D01*
X149534277Y-99121379D01*
X149455060Y-99200596D01*
X149455056Y-99200602D01*
X149399041Y-99297622D01*
X149399040Y-99297625D01*
X149370043Y-99405844D01*
X143650500Y-99405844D01*
X143650500Y-98470730D01*
X143647646Y-98440300D01*
X143647646Y-98440298D01*
X143616682Y-98351810D01*
X143606077Y-98321503D01*
X143605195Y-98318982D01*
X159824500Y-98318982D01*
X159824500Y-98431018D01*
X159852233Y-98534517D01*
X159853497Y-98539236D01*
X159853498Y-98539239D01*
X159865206Y-98559517D01*
X159909515Y-98636263D01*
X159988737Y-98715485D01*
X160085763Y-98771503D01*
X160193982Y-98800500D01*
X160193984Y-98800500D01*
X160306016Y-98800500D01*
X160306018Y-98800500D01*
X160414237Y-98771503D01*
X160511263Y-98715485D01*
X160590485Y-98636263D01*
X160646503Y-98539237D01*
X160675500Y-98431018D01*
X160675500Y-98318982D01*
X160646503Y-98210763D01*
X160590485Y-98113737D01*
X160511263Y-98034515D01*
X160439676Y-97993184D01*
X160414239Y-97978498D01*
X160414238Y-97978497D01*
X160414237Y-97978497D01*
X160306018Y-97949500D01*
X160193982Y-97949500D01*
X160085763Y-97978497D01*
X160085760Y-97978498D01*
X159988740Y-98034513D01*
X159988734Y-98034517D01*
X159909517Y-98113734D01*
X159909513Y-98113740D01*
X159853498Y-98210760D01*
X159853497Y-98210763D01*
X159824500Y-98318982D01*
X143605195Y-98318982D01*
X143602793Y-98312118D01*
X143522150Y-98202850D01*
X143412882Y-98122207D01*
X143412880Y-98122206D01*
X143284700Y-98077353D01*
X143254270Y-98074500D01*
X143254266Y-98074500D01*
X141945734Y-98074500D01*
X141945730Y-98074500D01*
X141915300Y-98077353D01*
X141915298Y-98077353D01*
X141787119Y-98122206D01*
X141787117Y-98122207D01*
X141677850Y-98202850D01*
X141597207Y-98312117D01*
X141597206Y-98312119D01*
X141552353Y-98440298D01*
X141552353Y-98440300D01*
X141549500Y-98470730D01*
X140926257Y-98470730D01*
X140915980Y-98455349D01*
X140915974Y-98455341D01*
X140769657Y-98309024D01*
X140664459Y-98238734D01*
X140597598Y-98194059D01*
X140578767Y-98186259D01*
X140406420Y-98114870D01*
X140406412Y-98114868D01*
X140203469Y-98074500D01*
X140203465Y-98074500D01*
X139996535Y-98074500D01*
X139996530Y-98074500D01*
X139793587Y-98114868D01*
X139793579Y-98114870D01*
X139602403Y-98194058D01*
X139430342Y-98309024D01*
X139284024Y-98455342D01*
X139169058Y-98627403D01*
X139089870Y-98818579D01*
X139089868Y-98818587D01*
X139049500Y-99021530D01*
X134075636Y-99021530D01*
X134062103Y-98953498D01*
X134060130Y-98943580D01*
X133980941Y-98752402D01*
X133865977Y-98580345D01*
X133865975Y-98580342D01*
X133719657Y-98434024D01*
X133602061Y-98355450D01*
X133547598Y-98319059D01*
X133547412Y-98318982D01*
X133356420Y-98239870D01*
X133356412Y-98239868D01*
X133153469Y-98199500D01*
X133153465Y-98199500D01*
X132696535Y-98199500D01*
X132696530Y-98199500D01*
X132493587Y-98239868D01*
X132493579Y-98239870D01*
X132302403Y-98319058D01*
X132130342Y-98434024D01*
X131984024Y-98580342D01*
X131869058Y-98752403D01*
X131789870Y-98943579D01*
X131789868Y-98943587D01*
X131749500Y-99146530D01*
X120193141Y-99146530D01*
X120193141Y-97685002D01*
X156574500Y-97685002D01*
X156574500Y-97797038D01*
X156603497Y-97905257D01*
X156659515Y-98002283D01*
X156738737Y-98081505D01*
X156835763Y-98137523D01*
X156943982Y-98166520D01*
X156943984Y-98166520D01*
X157056016Y-98166520D01*
X157056018Y-98166520D01*
X157164237Y-98137523D01*
X157261263Y-98081505D01*
X157340485Y-98002283D01*
X157396503Y-97905257D01*
X157406223Y-97868982D01*
X161149500Y-97868982D01*
X161149500Y-97981018D01*
X161178497Y-98089237D01*
X161234515Y-98186263D01*
X161313737Y-98265485D01*
X161410763Y-98321503D01*
X161518982Y-98350500D01*
X161518984Y-98350500D01*
X161631016Y-98350500D01*
X161631018Y-98350500D01*
X161739237Y-98321503D01*
X161836263Y-98265485D01*
X161915485Y-98186263D01*
X161939896Y-98143982D01*
X165174500Y-98143982D01*
X165174500Y-98256018D01*
X165203497Y-98364237D01*
X165259515Y-98461263D01*
X165259517Y-98461265D01*
X165273071Y-98474819D01*
X165306556Y-98536142D01*
X165301572Y-98605834D01*
X165273071Y-98650181D01*
X165259517Y-98663734D01*
X165259513Y-98663740D01*
X165203498Y-98760760D01*
X165203497Y-98760763D01*
X165174500Y-98868982D01*
X165174500Y-98981018D01*
X165203497Y-99089237D01*
X165259515Y-99186263D01*
X165259517Y-99186265D01*
X165285571Y-99212319D01*
X165319056Y-99273642D01*
X165314072Y-99343334D01*
X165285571Y-99387681D01*
X165259517Y-99413734D01*
X165259513Y-99413740D01*
X165203498Y-99510760D01*
X165203497Y-99510763D01*
X165174500Y-99618982D01*
X165174500Y-99731018D01*
X165199144Y-99822989D01*
X165203497Y-99839236D01*
X165203498Y-99839239D01*
X165215521Y-99860064D01*
X165259515Y-99936263D01*
X165338737Y-100015485D01*
X165435763Y-100071503D01*
X165543982Y-100100500D01*
X165543984Y-100100500D01*
X165656016Y-100100500D01*
X165656018Y-100100500D01*
X165764237Y-100071503D01*
X165861263Y-100015485D01*
X165940485Y-99936263D01*
X165949007Y-99921501D01*
X165999570Y-99873289D01*
X166068177Y-99860064D01*
X166133043Y-99886031D01*
X166144074Y-99895822D01*
X166213737Y-99965485D01*
X166310763Y-100021503D01*
X166418982Y-100050500D01*
X166418984Y-100050500D01*
X166531016Y-100050500D01*
X166531018Y-100050500D01*
X166639237Y-100021503D01*
X166736263Y-99965485D01*
X166815485Y-99886263D01*
X166871503Y-99789237D01*
X166900500Y-99681018D01*
X166900500Y-99568982D01*
X166871503Y-99460763D01*
X166815485Y-99363737D01*
X166736263Y-99284515D01*
X166639237Y-99228497D01*
X166531018Y-99199500D01*
X166418982Y-99199500D01*
X166310763Y-99228497D01*
X166310760Y-99228498D01*
X166213740Y-99284513D01*
X166213734Y-99284517D01*
X166134517Y-99363734D01*
X166134510Y-99363743D01*
X166125991Y-99378499D01*
X166107898Y-99395749D01*
X166092916Y-99415763D01*
X166083046Y-99419444D01*
X166075423Y-99426713D01*
X166050875Y-99431443D01*
X166027452Y-99440180D01*
X166017158Y-99437940D01*
X166006815Y-99439934D01*
X165983606Y-99430641D01*
X165959179Y-99425328D01*
X165946353Y-99415726D01*
X165941951Y-99413964D01*
X165930925Y-99404177D01*
X165914429Y-99387681D01*
X165880944Y-99326358D01*
X165885928Y-99256666D01*
X165914429Y-99212319D01*
X165927248Y-99199500D01*
X165940485Y-99186263D01*
X165996503Y-99089237D01*
X166025500Y-98981018D01*
X166025500Y-98868982D01*
X165996503Y-98760763D01*
X165940485Y-98663737D01*
X165926929Y-98650181D01*
X165893444Y-98588858D01*
X165898428Y-98519166D01*
X165926929Y-98474819D01*
X165931018Y-98470730D01*
X165940485Y-98461263D01*
X165996503Y-98364237D01*
X166025500Y-98256018D01*
X166025500Y-98143982D01*
X165996503Y-98035763D01*
X165940485Y-97938737D01*
X165861263Y-97859515D01*
X165764237Y-97803497D01*
X165656018Y-97774500D01*
X165543982Y-97774500D01*
X165435763Y-97803497D01*
X165435760Y-97803498D01*
X165338740Y-97859513D01*
X165338734Y-97859517D01*
X165259517Y-97938734D01*
X165259513Y-97938740D01*
X165203498Y-98035760D01*
X165203497Y-98035763D01*
X165174500Y-98143982D01*
X161939896Y-98143982D01*
X161971503Y-98089237D01*
X162000500Y-97981018D01*
X162000500Y-97868982D01*
X161971503Y-97760763D01*
X161915485Y-97663737D01*
X161836263Y-97584515D01*
X161766058Y-97543982D01*
X168949500Y-97543982D01*
X168949500Y-97656018D01*
X168978497Y-97764237D01*
X169034515Y-97861263D01*
X169113737Y-97940485D01*
X169116784Y-97942244D01*
X169117426Y-97942615D01*
X169119913Y-97945223D01*
X169120186Y-97945433D01*
X169120153Y-97945475D01*
X169165640Y-97993184D01*
X169178860Y-98061791D01*
X169152890Y-98126655D01*
X169117426Y-98157385D01*
X169113740Y-98159513D01*
X169113734Y-98159517D01*
X169034517Y-98238734D01*
X169034513Y-98238740D01*
X168978498Y-98335760D01*
X168978497Y-98335763D01*
X168949500Y-98443982D01*
X168949500Y-98556018D01*
X168978497Y-98664237D01*
X169034515Y-98761263D01*
X169113737Y-98840485D01*
X169210763Y-98896503D01*
X169318982Y-98925500D01*
X169318984Y-98925500D01*
X169431016Y-98925500D01*
X169431018Y-98925500D01*
X169539237Y-98896503D01*
X169539245Y-98896498D01*
X169546747Y-98893392D01*
X169547299Y-98894726D01*
X169606587Y-98880333D01*
X169672618Y-98903175D01*
X169715818Y-98958089D01*
X169722471Y-99027641D01*
X169708096Y-99066193D01*
X169653497Y-99160762D01*
X169653497Y-99160763D01*
X169624500Y-99268982D01*
X169624500Y-99381018D01*
X169645868Y-99460763D01*
X169653497Y-99489236D01*
X169653498Y-99489239D01*
X169665923Y-99510760D01*
X169709515Y-99586263D01*
X169788737Y-99665485D01*
X169885763Y-99721503D01*
X169993982Y-99750500D01*
X169993984Y-99750500D01*
X170076995Y-99750500D01*
X170144034Y-99770185D01*
X170189789Y-99822989D01*
X170199210Y-99885855D01*
X170199500Y-99885855D01*
X170199500Y-99887789D01*
X170199934Y-99890686D01*
X170199500Y-99893982D01*
X170199500Y-100006018D01*
X170228497Y-100114237D01*
X170284515Y-100211263D01*
X170363737Y-100290485D01*
X170460763Y-100346503D01*
X170568982Y-100375500D01*
X170568984Y-100375500D01*
X170681016Y-100375500D01*
X170681018Y-100375500D01*
X170789237Y-100346503D01*
X170886263Y-100290485D01*
X170965485Y-100211263D01*
X171021503Y-100114237D01*
X171050500Y-100006018D01*
X171050500Y-99893982D01*
X171021503Y-99785763D01*
X170965485Y-99688737D01*
X170886263Y-99609515D01*
X170809398Y-99565137D01*
X170789239Y-99553498D01*
X170789238Y-99553497D01*
X170789237Y-99553497D01*
X170756682Y-99544774D01*
X170697023Y-99508410D01*
X170666494Y-99445564D01*
X170674788Y-99376188D01*
X170719274Y-99322310D01*
X170756681Y-99305226D01*
X170789237Y-99296503D01*
X170886263Y-99240485D01*
X170965485Y-99161263D01*
X171021503Y-99064237D01*
X171039645Y-98996530D01*
X173949500Y-98996530D01*
X173949500Y-99203469D01*
X173989868Y-99406412D01*
X173989870Y-99406420D01*
X174057206Y-99568984D01*
X174069059Y-99597598D01*
X174077022Y-99609515D01*
X174184024Y-99769657D01*
X174330342Y-99915975D01*
X174330345Y-99915977D01*
X174502402Y-100030941D01*
X174693580Y-100110130D01*
X174896530Y-100150499D01*
X174896534Y-100150500D01*
X174896535Y-100150500D01*
X175353466Y-100150500D01*
X175353467Y-100150499D01*
X175556420Y-100110130D01*
X175747598Y-100030941D01*
X175919655Y-99915977D01*
X176065977Y-99769655D01*
X176180941Y-99597598D01*
X176260130Y-99406420D01*
X176300500Y-99203465D01*
X176300500Y-98996535D01*
X176260130Y-98793580D01*
X176180941Y-98602402D01*
X176065977Y-98430345D01*
X176065975Y-98430342D01*
X175919657Y-98284024D01*
X175785012Y-98194058D01*
X175747598Y-98169059D01*
X175741468Y-98166520D01*
X175556420Y-98089870D01*
X175556412Y-98089868D01*
X175353469Y-98049500D01*
X175353465Y-98049500D01*
X174896535Y-98049500D01*
X174896530Y-98049500D01*
X174693587Y-98089868D01*
X174693579Y-98089870D01*
X174502403Y-98169058D01*
X174330342Y-98284024D01*
X174184024Y-98430342D01*
X174069058Y-98602403D01*
X173989870Y-98793579D01*
X173989868Y-98793587D01*
X173949500Y-98996530D01*
X171039645Y-98996530D01*
X171050500Y-98956018D01*
X171050500Y-98843982D01*
X171021503Y-98735763D01*
X170965485Y-98638737D01*
X170886263Y-98559515D01*
X170885479Y-98559062D01*
X170884953Y-98558510D01*
X170879814Y-98554567D01*
X170880428Y-98553765D01*
X170837265Y-98508496D01*
X170824041Y-98439889D01*
X170850009Y-98375025D01*
X170863722Y-98361473D01*
X170863446Y-98361197D01*
X170905661Y-98318982D01*
X170948415Y-98276228D01*
X171004433Y-98179202D01*
X171033430Y-98070983D01*
X171033430Y-97958947D01*
X171004433Y-97850728D01*
X170948415Y-97753702D01*
X170869193Y-97674480D01*
X170772167Y-97618462D01*
X170663948Y-97589465D01*
X170557835Y-97589465D01*
X170490796Y-97569780D01*
X170445041Y-97516976D01*
X170438063Y-97497566D01*
X170421503Y-97435763D01*
X170365485Y-97338737D01*
X170286263Y-97259515D01*
X170189237Y-97203497D01*
X170081018Y-97174500D01*
X169968982Y-97174500D01*
X169860763Y-97203497D01*
X169860762Y-97203497D01*
X169761999Y-97260518D01*
X169694099Y-97276990D01*
X169638001Y-97260518D01*
X169539237Y-97203497D01*
X169431018Y-97174500D01*
X169318982Y-97174500D01*
X169210763Y-97203497D01*
X169210760Y-97203498D01*
X169113740Y-97259513D01*
X169113734Y-97259517D01*
X169034517Y-97338734D01*
X169034513Y-97338740D01*
X168978498Y-97435760D01*
X168978497Y-97435763D01*
X168949500Y-97543982D01*
X161766058Y-97543982D01*
X161739237Y-97528497D01*
X161631018Y-97499500D01*
X161518982Y-97499500D01*
X161410763Y-97528497D01*
X161410760Y-97528498D01*
X161313740Y-97584513D01*
X161313734Y-97584517D01*
X161234517Y-97663734D01*
X161234513Y-97663740D01*
X161178498Y-97760760D01*
X161178497Y-97760763D01*
X161149500Y-97868982D01*
X157406223Y-97868982D01*
X157425500Y-97797038D01*
X157425500Y-97685002D01*
X157396503Y-97576783D01*
X157340485Y-97479757D01*
X157261263Y-97400535D01*
X157164237Y-97344517D01*
X157056018Y-97315520D01*
X156943982Y-97315520D01*
X156835763Y-97344517D01*
X156835760Y-97344518D01*
X156738740Y-97400533D01*
X156738734Y-97400537D01*
X156659517Y-97479754D01*
X156659513Y-97479760D01*
X156603498Y-97576780D01*
X156603497Y-97576783D01*
X156574500Y-97685002D01*
X120193141Y-97685002D01*
X120193141Y-94793982D01*
X145074500Y-94793982D01*
X145074500Y-94906018D01*
X145103497Y-95014237D01*
X145159515Y-95111263D01*
X145238737Y-95190485D01*
X145335763Y-95246503D01*
X145443982Y-95275500D01*
X145443984Y-95275500D01*
X145556016Y-95275500D01*
X145556018Y-95275500D01*
X145664237Y-95246503D01*
X145761263Y-95190485D01*
X145812319Y-95139429D01*
X145873642Y-95105944D01*
X145943334Y-95110928D01*
X145987681Y-95139429D01*
X146038737Y-95190485D01*
X146135763Y-95246503D01*
X146243982Y-95275500D01*
X146243984Y-95275500D01*
X146356016Y-95275500D01*
X146356018Y-95275500D01*
X146464237Y-95246503D01*
X146511258Y-95219355D01*
X146579155Y-95202882D01*
X146645183Y-95225734D01*
X146688374Y-95280654D01*
X146695016Y-95350207D01*
X146680645Y-95388741D01*
X146653497Y-95435762D01*
X146653497Y-95435763D01*
X146624500Y-95543982D01*
X146624500Y-95656018D01*
X146653497Y-95764237D01*
X146709515Y-95861263D01*
X146788737Y-95940485D01*
X146885763Y-95996503D01*
X146993982Y-96025500D01*
X146993984Y-96025500D01*
X147106016Y-96025500D01*
X147106018Y-96025500D01*
X147214237Y-95996503D01*
X147288003Y-95953913D01*
X147355899Y-95937442D01*
X147411995Y-95953913D01*
X147485763Y-95996503D01*
X147593982Y-96025500D01*
X147593984Y-96025500D01*
X147706016Y-96025500D01*
X147706018Y-96025500D01*
X147814237Y-95996503D01*
X147911263Y-95940485D01*
X147990485Y-95861263D01*
X148014896Y-95818982D01*
X152649500Y-95818982D01*
X152649500Y-95931018D01*
X152670868Y-96010763D01*
X152678497Y-96039236D01*
X152678498Y-96039239D01*
X152697169Y-96071579D01*
X152734515Y-96136263D01*
X152734517Y-96136265D01*
X152735577Y-96137325D01*
X152736184Y-96138437D01*
X152739462Y-96142709D01*
X152738795Y-96143220D01*
X152769057Y-96198651D01*
X152764068Y-96268342D01*
X152739177Y-96307072D01*
X152739462Y-96307291D01*
X152736847Y-96310698D01*
X152735577Y-96312675D01*
X152734517Y-96313734D01*
X152734513Y-96313740D01*
X152678498Y-96410760D01*
X152678497Y-96410763D01*
X152649500Y-96518982D01*
X152649500Y-96631018D01*
X152678497Y-96739237D01*
X152734515Y-96836263D01*
X152813737Y-96915485D01*
X152910763Y-96971503D01*
X153018982Y-97000500D01*
X153018984Y-97000500D01*
X153131016Y-97000500D01*
X153131018Y-97000500D01*
X153239237Y-96971503D01*
X153336263Y-96915485D01*
X153415485Y-96836263D01*
X153471503Y-96739237D01*
X153500500Y-96631018D01*
X153500500Y-96541955D01*
X153520185Y-96474916D01*
X153572989Y-96429161D01*
X153642147Y-96419217D01*
X153656586Y-96422178D01*
X153668982Y-96425500D01*
X153668984Y-96425500D01*
X153781016Y-96425500D01*
X153781018Y-96425500D01*
X153889237Y-96396503D01*
X153986263Y-96340485D01*
X154065485Y-96261263D01*
X154121503Y-96164237D01*
X154127352Y-96142404D01*
X154141629Y-96118982D01*
X161549500Y-96118982D01*
X161549500Y-96231018D01*
X161571665Y-96313737D01*
X161578497Y-96339236D01*
X161578498Y-96339239D01*
X161579218Y-96340486D01*
X161634515Y-96436263D01*
X161713737Y-96515485D01*
X161810763Y-96571503D01*
X161918982Y-96600500D01*
X161918984Y-96600500D01*
X162031016Y-96600500D01*
X162031018Y-96600500D01*
X162139237Y-96571503D01*
X162236263Y-96515485D01*
X162255218Y-96496530D01*
X173949500Y-96496530D01*
X173949500Y-96703469D01*
X173989868Y-96906412D01*
X173989870Y-96906420D01*
X174069058Y-97097596D01*
X174184024Y-97269657D01*
X174330342Y-97415975D01*
X174330345Y-97415977D01*
X174502402Y-97530941D01*
X174693580Y-97610130D01*
X174896530Y-97650499D01*
X174896534Y-97650500D01*
X174896535Y-97650500D01*
X175353466Y-97650500D01*
X175353467Y-97650499D01*
X175556420Y-97610130D01*
X175747598Y-97530941D01*
X175919655Y-97415977D01*
X176065977Y-97269655D01*
X176180941Y-97097598D01*
X176260130Y-96906420D01*
X176300500Y-96703465D01*
X176300500Y-96496535D01*
X176260130Y-96293580D01*
X176180941Y-96102402D01*
X176065977Y-95930345D01*
X176065975Y-95930342D01*
X175919657Y-95784024D01*
X175779666Y-95690486D01*
X175747598Y-95669059D01*
X175716114Y-95656018D01*
X175556420Y-95589870D01*
X175556412Y-95589868D01*
X175353469Y-95549500D01*
X175353465Y-95549500D01*
X174896535Y-95549500D01*
X174896530Y-95549500D01*
X174693587Y-95589868D01*
X174693579Y-95589870D01*
X174502403Y-95669058D01*
X174330342Y-95784024D01*
X174184024Y-95930342D01*
X174069058Y-96102403D01*
X173989870Y-96293579D01*
X173989868Y-96293587D01*
X173949500Y-96496530D01*
X162255218Y-96496530D01*
X162315485Y-96436263D01*
X162371503Y-96339237D01*
X162400500Y-96231018D01*
X162400500Y-96118982D01*
X162371503Y-96010763D01*
X162315485Y-95913737D01*
X162236263Y-95834515D01*
X162157839Y-95789237D01*
X162139239Y-95778498D01*
X162139238Y-95778497D01*
X162139237Y-95778497D01*
X162031018Y-95749500D01*
X161918982Y-95749500D01*
X161810763Y-95778497D01*
X161810760Y-95778498D01*
X161713740Y-95834513D01*
X161713734Y-95834517D01*
X161634517Y-95913734D01*
X161634513Y-95913740D01*
X161578498Y-96010760D01*
X161578497Y-96010763D01*
X161549500Y-96118982D01*
X154141629Y-96118982D01*
X154163717Y-96082746D01*
X154226564Y-96052217D01*
X154247127Y-96050500D01*
X154356016Y-96050500D01*
X154356018Y-96050500D01*
X154464237Y-96021503D01*
X154561263Y-95965485D01*
X154640485Y-95886263D01*
X154696503Y-95789237D01*
X154725500Y-95681018D01*
X154725500Y-95568982D01*
X154696503Y-95460763D01*
X154640485Y-95363737D01*
X154561263Y-95284515D01*
X154464237Y-95228497D01*
X154356018Y-95199500D01*
X154243982Y-95199500D01*
X154135763Y-95228497D01*
X154135760Y-95228498D01*
X154038740Y-95284513D01*
X154038734Y-95284517D01*
X153959517Y-95363734D01*
X153959513Y-95363740D01*
X153903498Y-95460760D01*
X153903498Y-95460761D01*
X153903497Y-95460763D01*
X153897647Y-95482595D01*
X153861283Y-95542254D01*
X153798436Y-95572783D01*
X153777873Y-95574500D01*
X153668982Y-95574500D01*
X153560763Y-95603497D01*
X153560758Y-95603499D01*
X153544567Y-95612847D01*
X153476667Y-95629318D01*
X153410640Y-95606465D01*
X153394888Y-95593140D01*
X153336265Y-95534517D01*
X153336263Y-95534515D01*
X153239237Y-95478497D01*
X153131018Y-95449500D01*
X153018982Y-95449500D01*
X152910763Y-95478497D01*
X152910760Y-95478498D01*
X152813740Y-95534513D01*
X152813734Y-95534517D01*
X152734517Y-95613734D01*
X152734513Y-95613740D01*
X152678498Y-95710760D01*
X152678497Y-95710763D01*
X152649500Y-95818982D01*
X148014896Y-95818982D01*
X148046503Y-95764237D01*
X148075500Y-95656018D01*
X148075500Y-95543982D01*
X148046503Y-95435763D01*
X147990485Y-95338737D01*
X147964429Y-95312681D01*
X147930944Y-95251358D01*
X147935928Y-95181666D01*
X147964429Y-95137319D01*
X147990485Y-95111263D01*
X148046503Y-95014237D01*
X148075500Y-94906018D01*
X148075500Y-94793982D01*
X148046503Y-94685763D01*
X147990485Y-94588737D01*
X147939064Y-94537316D01*
X147938747Y-94536994D01*
X147929093Y-94518982D01*
X159749500Y-94518982D01*
X159749500Y-94631018D01*
X159778497Y-94739237D01*
X159834515Y-94836263D01*
X159913737Y-94915485D01*
X160010763Y-94971503D01*
X160118982Y-95000500D01*
X160118984Y-95000500D01*
X160231016Y-95000500D01*
X160231018Y-95000500D01*
X160339237Y-94971503D01*
X160436263Y-94915485D01*
X160515485Y-94836263D01*
X160571503Y-94739237D01*
X160600500Y-94631018D01*
X160600500Y-94518982D01*
X160571503Y-94410763D01*
X160515485Y-94313737D01*
X160436263Y-94234515D01*
X160339237Y-94178497D01*
X160231018Y-94149500D01*
X160118982Y-94149500D01*
X160010763Y-94178497D01*
X160010760Y-94178498D01*
X159913740Y-94234513D01*
X159913734Y-94234517D01*
X159834517Y-94313734D01*
X159834513Y-94313740D01*
X159778498Y-94410760D01*
X159778497Y-94410763D01*
X159749500Y-94518982D01*
X147929093Y-94518982D01*
X147922462Y-94506610D01*
X147905944Y-94476358D01*
X147905979Y-94475855D01*
X147905742Y-94475411D01*
X147908467Y-94441066D01*
X147910928Y-94406666D01*
X147911236Y-94406186D01*
X147911270Y-94405761D01*
X147912812Y-94403733D01*
X147935823Y-94367928D01*
X147935538Y-94367709D01*
X147938165Y-94364284D01*
X147939429Y-94362319D01*
X147939741Y-94362007D01*
X147940485Y-94361263D01*
X147996503Y-94264237D01*
X148025500Y-94156018D01*
X148025500Y-94043982D01*
X147996503Y-93935763D01*
X147940485Y-93838737D01*
X147939429Y-93837681D01*
X147938824Y-93836573D01*
X147935538Y-93832291D01*
X147936205Y-93831778D01*
X147905944Y-93776358D01*
X147910928Y-93706666D01*
X147935823Y-93667928D01*
X147935538Y-93667709D01*
X147938165Y-93664284D01*
X147939429Y-93662319D01*
X147940485Y-93661263D01*
X147996503Y-93564237D01*
X148008629Y-93518982D01*
X162849500Y-93518982D01*
X162849500Y-93631018D01*
X162859332Y-93667709D01*
X162878497Y-93739236D01*
X162878498Y-93739239D01*
X162890206Y-93759517D01*
X162934515Y-93836263D01*
X163013737Y-93915485D01*
X163110763Y-93971503D01*
X163143317Y-93980225D01*
X163202976Y-94016590D01*
X163233505Y-94079437D01*
X163225210Y-94148813D01*
X163180725Y-94202691D01*
X163143318Y-94219773D01*
X163127736Y-94223948D01*
X163110761Y-94228497D01*
X163110760Y-94228498D01*
X163013740Y-94284513D01*
X163013734Y-94284517D01*
X162934517Y-94363734D01*
X162934513Y-94363740D01*
X162878498Y-94460760D01*
X162878497Y-94460763D01*
X162849500Y-94568982D01*
X162849500Y-94681018D01*
X162865100Y-94739236D01*
X162878497Y-94789236D01*
X162878498Y-94789239D01*
X162881238Y-94793984D01*
X162934515Y-94886263D01*
X163013737Y-94965485D01*
X163110763Y-95021503D01*
X163218982Y-95050500D01*
X163218984Y-95050500D01*
X163331016Y-95050500D01*
X163331018Y-95050500D01*
X163439237Y-95021503D01*
X163536263Y-94965485D01*
X163615485Y-94886263D01*
X163671503Y-94789237D01*
X163700500Y-94681018D01*
X163700500Y-94648004D01*
X163720185Y-94580965D01*
X163772989Y-94535210D01*
X163835855Y-94525791D01*
X163835855Y-94525500D01*
X163837800Y-94525500D01*
X163840697Y-94525066D01*
X163843973Y-94525497D01*
X163843982Y-94525500D01*
X163843991Y-94525500D01*
X163956016Y-94525500D01*
X163956018Y-94525500D01*
X164064237Y-94496503D01*
X164161263Y-94440485D01*
X164240485Y-94361263D01*
X164296503Y-94264237D01*
X164325500Y-94156018D01*
X164325500Y-94043982D01*
X164924500Y-94043982D01*
X164924500Y-94156018D01*
X164930524Y-94178498D01*
X164953497Y-94264236D01*
X164953498Y-94264239D01*
X165009515Y-94361263D01*
X165010092Y-94362015D01*
X165010381Y-94362763D01*
X165013579Y-94368302D01*
X165012715Y-94368800D01*
X165035285Y-94427185D01*
X165021246Y-94495630D01*
X165010092Y-94512985D01*
X165009515Y-94513736D01*
X164953498Y-94610760D01*
X164953497Y-94610763D01*
X164924500Y-94718982D01*
X164924500Y-94831018D01*
X164953497Y-94939237D01*
X165009515Y-95036263D01*
X165088737Y-95115485D01*
X165162607Y-95158134D01*
X165188229Y-95172927D01*
X165236445Y-95223494D01*
X165248463Y-95285855D01*
X165249500Y-95285855D01*
X165249500Y-95291234D01*
X165249667Y-95292101D01*
X165249500Y-95293575D01*
X165249500Y-95293982D01*
X165249500Y-95406018D01*
X165270019Y-95482594D01*
X165278497Y-95514236D01*
X165278498Y-95514239D01*
X165290206Y-95534517D01*
X165334515Y-95611263D01*
X165413737Y-95690485D01*
X165510763Y-95746503D01*
X165618982Y-95775500D01*
X165618984Y-95775500D01*
X165731016Y-95775500D01*
X165731018Y-95775500D01*
X165839237Y-95746503D01*
X165936263Y-95690485D01*
X166015485Y-95611263D01*
X166071503Y-95514237D01*
X166100500Y-95406018D01*
X166100500Y-95293982D01*
X166100499Y-95293980D01*
X166099439Y-95285926D01*
X166102218Y-95285560D01*
X166103557Y-95229337D01*
X166142719Y-95171474D01*
X166159670Y-95159706D01*
X166236256Y-95115489D01*
X166236255Y-95115489D01*
X166236263Y-95115485D01*
X166315485Y-95036263D01*
X166371503Y-94939237D01*
X166400500Y-94831018D01*
X166400500Y-94718982D01*
X166371503Y-94610763D01*
X166315485Y-94513737D01*
X166315481Y-94513733D01*
X166314913Y-94512993D01*
X166314624Y-94512246D01*
X166311421Y-94506698D01*
X166312285Y-94506198D01*
X166289715Y-94447826D01*
X166303748Y-94379380D01*
X166314913Y-94362007D01*
X166315478Y-94361269D01*
X166315485Y-94361263D01*
X166371503Y-94264237D01*
X166400500Y-94156018D01*
X166400500Y-94043982D01*
X166371503Y-93935763D01*
X166315485Y-93838737D01*
X166236263Y-93759515D01*
X166139237Y-93703497D01*
X166031018Y-93674500D01*
X165918982Y-93674500D01*
X165810763Y-93703497D01*
X165810762Y-93703497D01*
X165724499Y-93753301D01*
X165656599Y-93769773D01*
X165600501Y-93753301D01*
X165514237Y-93703497D01*
X165406018Y-93674500D01*
X165293982Y-93674500D01*
X165185763Y-93703497D01*
X165185760Y-93703498D01*
X165088740Y-93759513D01*
X165088734Y-93759517D01*
X165009517Y-93838734D01*
X165009513Y-93838740D01*
X164953498Y-93935760D01*
X164953497Y-93935763D01*
X164924500Y-94043982D01*
X164325500Y-94043982D01*
X164296503Y-93935763D01*
X164240485Y-93838737D01*
X164161263Y-93759515D01*
X164064239Y-93703498D01*
X164064238Y-93703497D01*
X164042601Y-93697699D01*
X164006681Y-93688075D01*
X163947023Y-93651711D01*
X163916494Y-93588864D01*
X163924789Y-93519488D01*
X163969274Y-93465610D01*
X164006681Y-93448527D01*
X164014237Y-93446503D01*
X164111263Y-93390485D01*
X164190485Y-93311263D01*
X164246503Y-93214237D01*
X164275500Y-93106018D01*
X164275500Y-92993982D01*
X164246503Y-92885763D01*
X164190485Y-92788737D01*
X164111263Y-92709515D01*
X164032839Y-92664237D01*
X164014239Y-92653498D01*
X164014238Y-92653497D01*
X164014237Y-92653497D01*
X163906018Y-92624500D01*
X163793982Y-92624500D01*
X163685763Y-92653497D01*
X163685760Y-92653498D01*
X163588740Y-92709513D01*
X163588734Y-92709517D01*
X163509517Y-92788734D01*
X163509513Y-92788740D01*
X163453498Y-92885760D01*
X163453497Y-92885763D01*
X163424500Y-92993982D01*
X163424500Y-93025500D01*
X163404815Y-93092539D01*
X163352011Y-93138294D01*
X163300500Y-93149500D01*
X163218982Y-93149500D01*
X163110763Y-93178497D01*
X163110760Y-93178498D01*
X163013740Y-93234513D01*
X163013734Y-93234517D01*
X162934517Y-93313734D01*
X162934513Y-93313740D01*
X162878498Y-93410760D01*
X162878497Y-93410763D01*
X162849500Y-93518982D01*
X148008629Y-93518982D01*
X148025500Y-93456018D01*
X148025500Y-93343982D01*
X147996503Y-93235763D01*
X147940485Y-93138737D01*
X147861263Y-93059515D01*
X147764237Y-93003497D01*
X147656018Y-92974500D01*
X147543982Y-92974500D01*
X147435763Y-93003497D01*
X147435760Y-93003498D01*
X147387000Y-93031650D01*
X147319099Y-93048123D01*
X147263000Y-93031650D01*
X147214239Y-93003498D01*
X147214238Y-93003497D01*
X147214237Y-93003497D01*
X147106018Y-92974500D01*
X146993982Y-92974500D01*
X146885763Y-93003497D01*
X146885760Y-93003498D01*
X146788740Y-93059513D01*
X146788734Y-93059517D01*
X146709517Y-93138734D01*
X146709513Y-93138740D01*
X146653498Y-93235760D01*
X146653497Y-93235763D01*
X146624500Y-93343982D01*
X146624500Y-93456018D01*
X146653497Y-93564237D01*
X146709515Y-93661263D01*
X146709517Y-93661265D01*
X146710577Y-93662325D01*
X146711184Y-93663437D01*
X146714462Y-93667709D01*
X146713795Y-93668220D01*
X146744057Y-93723651D01*
X146739068Y-93793342D01*
X146714177Y-93832072D01*
X146714462Y-93832291D01*
X146711847Y-93835698D01*
X146710577Y-93837675D01*
X146709517Y-93838734D01*
X146709513Y-93838740D01*
X146653498Y-93935760D01*
X146653497Y-93935763D01*
X146624500Y-94043982D01*
X146624500Y-94156018D01*
X146630524Y-94178498D01*
X146653497Y-94264236D01*
X146653498Y-94264239D01*
X146680644Y-94311257D01*
X146697117Y-94379157D01*
X146674264Y-94445184D01*
X146619343Y-94488375D01*
X146549790Y-94495016D01*
X146511257Y-94480644D01*
X146464239Y-94453498D01*
X146464238Y-94453497D01*
X146464237Y-94453497D01*
X146356018Y-94424500D01*
X146243982Y-94424500D01*
X146135763Y-94453497D01*
X146135760Y-94453498D01*
X146038740Y-94509513D01*
X146038734Y-94509517D01*
X145987681Y-94560571D01*
X145926358Y-94594056D01*
X145856666Y-94589072D01*
X145812319Y-94560571D01*
X145761265Y-94509517D01*
X145761263Y-94509515D01*
X145664237Y-94453497D01*
X145556018Y-94424500D01*
X145443982Y-94424500D01*
X145335763Y-94453497D01*
X145335760Y-94453498D01*
X145238740Y-94509513D01*
X145238734Y-94509517D01*
X145159517Y-94588734D01*
X145159513Y-94588740D01*
X145103498Y-94685760D01*
X145103497Y-94685763D01*
X145074500Y-94793982D01*
X120193141Y-94793982D01*
X120193141Y-89195730D01*
X131749500Y-89195730D01*
X131749500Y-90504269D01*
X131752353Y-90534699D01*
X131752353Y-90534701D01*
X131793923Y-90653497D01*
X131797207Y-90662882D01*
X131877850Y-90772150D01*
X131987118Y-90852793D01*
X132029845Y-90867744D01*
X132115299Y-90897646D01*
X132145730Y-90900500D01*
X132145734Y-90900500D01*
X133704270Y-90900500D01*
X133734699Y-90897646D01*
X133734701Y-90897646D01*
X133798790Y-90875219D01*
X133862882Y-90852793D01*
X133972150Y-90772150D01*
X134052793Y-90662882D01*
X134084911Y-90571094D01*
X134097646Y-90534701D01*
X134097646Y-90534699D01*
X134100500Y-90504269D01*
X134100500Y-90459059D01*
X141725662Y-90459059D01*
X141725662Y-90571095D01*
X141754659Y-90679314D01*
X141810677Y-90776340D01*
X141889899Y-90855562D01*
X141986925Y-90911580D01*
X142095144Y-90940577D01*
X142095146Y-90940577D01*
X142125500Y-90940577D01*
X142192539Y-90960262D01*
X142238294Y-91013066D01*
X142249500Y-91064577D01*
X142249500Y-91106018D01*
X142271799Y-91189237D01*
X142278497Y-91214236D01*
X142278498Y-91214239D01*
X142281238Y-91218984D01*
X142334515Y-91311263D01*
X142413737Y-91390485D01*
X142510763Y-91446503D01*
X142618982Y-91475500D01*
X142618984Y-91475500D01*
X142731016Y-91475500D01*
X142731018Y-91475500D01*
X142839237Y-91446503D01*
X142936263Y-91390485D01*
X143015485Y-91311263D01*
X143068763Y-91218982D01*
X150499500Y-91218982D01*
X150499500Y-91331018D01*
X150528497Y-91439237D01*
X150584515Y-91536263D01*
X150663737Y-91615485D01*
X150723225Y-91649830D01*
X150771439Y-91700395D01*
X150784663Y-91769002D01*
X150758695Y-91833867D01*
X150723226Y-91864602D01*
X150688740Y-91884513D01*
X150688734Y-91884517D01*
X150609517Y-91963734D01*
X150609513Y-91963740D01*
X150553498Y-92060760D01*
X150553497Y-92060763D01*
X150524500Y-92168982D01*
X150524500Y-92281018D01*
X150553497Y-92389237D01*
X150609515Y-92486263D01*
X150688737Y-92565485D01*
X150785763Y-92621503D01*
X150893982Y-92650500D01*
X150893984Y-92650500D01*
X151006016Y-92650500D01*
X151006018Y-92650500D01*
X151114237Y-92621503D01*
X151211263Y-92565485D01*
X151290485Y-92486263D01*
X151346503Y-92389237D01*
X151375500Y-92281018D01*
X151375500Y-92168982D01*
X151346503Y-92060763D01*
X151290485Y-91963737D01*
X151211263Y-91884515D01*
X151151774Y-91850169D01*
X151103560Y-91799604D01*
X151090336Y-91730997D01*
X151116304Y-91666132D01*
X151151772Y-91635398D01*
X151186263Y-91615485D01*
X151265485Y-91536263D01*
X151321503Y-91439237D01*
X151350500Y-91331018D01*
X151350500Y-91218982D01*
X151321503Y-91110763D01*
X151265485Y-91013737D01*
X151220730Y-90968982D01*
X154237000Y-90968982D01*
X154237000Y-91081018D01*
X154265997Y-91189237D01*
X154322015Y-91286263D01*
X154401237Y-91365485D01*
X154498263Y-91421503D01*
X154599495Y-91448627D01*
X154659152Y-91484990D01*
X154685901Y-91540055D01*
X154687608Y-91539598D01*
X154689711Y-91547446D01*
X154689711Y-91547448D01*
X154718708Y-91655667D01*
X154774726Y-91752693D01*
X154853948Y-91831915D01*
X154950974Y-91887933D01*
X155059193Y-91916930D01*
X155059195Y-91916930D01*
X155171227Y-91916930D01*
X155171229Y-91916930D01*
X155279448Y-91887933D01*
X155376474Y-91831915D01*
X155455696Y-91752693D01*
X155511714Y-91655667D01*
X155540711Y-91547448D01*
X155540711Y-91435412D01*
X155511714Y-91327193D01*
X155455696Y-91230167D01*
X155376474Y-91150945D01*
X155298658Y-91106018D01*
X155279450Y-91094928D01*
X155279449Y-91094927D01*
X155279448Y-91094927D01*
X155178217Y-91067802D01*
X155118557Y-91031438D01*
X155091809Y-90976374D01*
X155090103Y-90976832D01*
X155081254Y-90943807D01*
X155059003Y-90860763D01*
X155002985Y-90763737D01*
X154959136Y-90719888D01*
X159455656Y-90719888D01*
X159455656Y-90831924D01*
X159483145Y-90934513D01*
X159484653Y-90940142D01*
X159484654Y-90940145D01*
X159486768Y-90943807D01*
X159540671Y-91037169D01*
X159540673Y-91037171D01*
X159598411Y-91094909D01*
X159631896Y-91156232D01*
X159626912Y-91225924D01*
X159618120Y-91244586D01*
X159615997Y-91248262D01*
X159615997Y-91248263D01*
X159587000Y-91356482D01*
X159587000Y-91468518D01*
X159615997Y-91576737D01*
X159672015Y-91673763D01*
X159751237Y-91752985D01*
X159848263Y-91809003D01*
X159956482Y-91838000D01*
X159956484Y-91838000D01*
X160068516Y-91838000D01*
X160068518Y-91838000D01*
X160176737Y-91809003D01*
X160272036Y-91753982D01*
X165004500Y-91753982D01*
X165004500Y-91866018D01*
X165033497Y-91974237D01*
X165089515Y-92071263D01*
X165089517Y-92071265D01*
X165103071Y-92084819D01*
X165136556Y-92146142D01*
X165131572Y-92215834D01*
X165103071Y-92260181D01*
X165099517Y-92263734D01*
X165099513Y-92263740D01*
X165043498Y-92360760D01*
X165043497Y-92360763D01*
X165014500Y-92468982D01*
X165014500Y-92581018D01*
X165036799Y-92664237D01*
X165043497Y-92689236D01*
X165043498Y-92689239D01*
X165055206Y-92709517D01*
X165099515Y-92786263D01*
X165178737Y-92865485D01*
X165275763Y-92921503D01*
X165383982Y-92950500D01*
X165383984Y-92950500D01*
X165496016Y-92950500D01*
X165496018Y-92950500D01*
X165604237Y-92921503D01*
X165701263Y-92865485D01*
X165701263Y-92865484D01*
X165707330Y-92861982D01*
X165775230Y-92845509D01*
X165831329Y-92861981D01*
X165925763Y-92916503D01*
X166033982Y-92945500D01*
X166033984Y-92945500D01*
X166146016Y-92945500D01*
X166146018Y-92945500D01*
X166254237Y-92916503D01*
X166351263Y-92860485D01*
X166351266Y-92860481D01*
X166356659Y-92857368D01*
X166424559Y-92840895D01*
X166480656Y-92857366D01*
X166565763Y-92906503D01*
X166673982Y-92935500D01*
X166673984Y-92935500D01*
X166786016Y-92935500D01*
X166786018Y-92935500D01*
X166894237Y-92906503D01*
X166991263Y-92850485D01*
X166992735Y-92849012D01*
X166994280Y-92848168D01*
X166997709Y-92845538D01*
X166998119Y-92846072D01*
X167054054Y-92815525D01*
X167123746Y-92820504D01*
X167155905Y-92838312D01*
X167158736Y-92840484D01*
X167158737Y-92840485D01*
X167255763Y-92896503D01*
X167363982Y-92925500D01*
X167363984Y-92925500D01*
X167476016Y-92925500D01*
X167476018Y-92925500D01*
X167584237Y-92896503D01*
X167681263Y-92840485D01*
X167760485Y-92761263D01*
X167816503Y-92664237D01*
X167845500Y-92556018D01*
X167845500Y-92443982D01*
X167816503Y-92335763D01*
X167777128Y-92267564D01*
X167760488Y-92238742D01*
X167760487Y-92238741D01*
X167760485Y-92238737D01*
X167760481Y-92238733D01*
X167756633Y-92233719D01*
X167731436Y-92168551D01*
X167745470Y-92100105D01*
X167747618Y-92096226D01*
X167750481Y-92091266D01*
X167750485Y-92091263D01*
X167806503Y-91994237D01*
X167835500Y-91886018D01*
X167835500Y-91773982D01*
X167806503Y-91665763D01*
X167750485Y-91568737D01*
X167671263Y-91489515D01*
X167596761Y-91446501D01*
X167574239Y-91433498D01*
X167574238Y-91433497D01*
X167574237Y-91433497D01*
X167466018Y-91404500D01*
X167353982Y-91404500D01*
X167245763Y-91433497D01*
X167245760Y-91433498D01*
X167148740Y-91489513D01*
X167142291Y-91494462D01*
X167140554Y-91492199D01*
X167091324Y-91519063D01*
X167021634Y-91514059D01*
X166988842Y-91492985D01*
X166987709Y-91494462D01*
X166981267Y-91489519D01*
X166981263Y-91489515D01*
X166906761Y-91446501D01*
X166884239Y-91433498D01*
X166884238Y-91433497D01*
X166884237Y-91433497D01*
X166776018Y-91404500D01*
X166663982Y-91404500D01*
X166555763Y-91433497D01*
X166555760Y-91433498D01*
X166462000Y-91487631D01*
X166394100Y-91504104D01*
X166338000Y-91487631D01*
X166244239Y-91433498D01*
X166244238Y-91433497D01*
X166244237Y-91433497D01*
X166136018Y-91404500D01*
X166023982Y-91404500D01*
X165915763Y-91433497D01*
X165915760Y-91433498D01*
X165832622Y-91481498D01*
X165764721Y-91497971D01*
X165698695Y-91475118D01*
X165695134Y-91472486D01*
X165691267Y-91469519D01*
X165691263Y-91469515D01*
X165594237Y-91413497D01*
X165486018Y-91384500D01*
X165373982Y-91384500D01*
X165265763Y-91413497D01*
X165265760Y-91413498D01*
X165168740Y-91469513D01*
X165168734Y-91469517D01*
X165089517Y-91548734D01*
X165089513Y-91548740D01*
X165033498Y-91645760D01*
X165033497Y-91645763D01*
X165004500Y-91753982D01*
X160272036Y-91753982D01*
X160273763Y-91752985D01*
X160352985Y-91673763D01*
X160409003Y-91576737D01*
X160438000Y-91468518D01*
X160438000Y-91356482D01*
X160409003Y-91248263D01*
X160352985Y-91151237D01*
X160295244Y-91093496D01*
X160261759Y-91032173D01*
X160266743Y-90962481D01*
X160275534Y-90943821D01*
X160277659Y-90940143D01*
X160306656Y-90831924D01*
X160306656Y-90719888D01*
X160277659Y-90611669D01*
X160221641Y-90514643D01*
X160142419Y-90435421D01*
X160045393Y-90379403D01*
X159937174Y-90350406D01*
X159825138Y-90350406D01*
X159716919Y-90379403D01*
X159716916Y-90379404D01*
X159619896Y-90435419D01*
X159619890Y-90435423D01*
X159540673Y-90514640D01*
X159540669Y-90514646D01*
X159484654Y-90611666D01*
X159484653Y-90611669D01*
X159455656Y-90719888D01*
X154959136Y-90719888D01*
X154923763Y-90684515D01*
X154826737Y-90628497D01*
X154718518Y-90599500D01*
X154606482Y-90599500D01*
X154498263Y-90628497D01*
X154498260Y-90628498D01*
X154401240Y-90684513D01*
X154401234Y-90684517D01*
X154322017Y-90763734D01*
X154322013Y-90763740D01*
X154265998Y-90860760D01*
X154265997Y-90860763D01*
X154237000Y-90968982D01*
X151220730Y-90968982D01*
X151186263Y-90934515D01*
X151089237Y-90878497D01*
X150981018Y-90849500D01*
X150868982Y-90849500D01*
X150760763Y-90878497D01*
X150760760Y-90878498D01*
X150663740Y-90934513D01*
X150663734Y-90934517D01*
X150584517Y-91013734D01*
X150584513Y-91013740D01*
X150528498Y-91110760D01*
X150528497Y-91110763D01*
X150499500Y-91218982D01*
X143068763Y-91218982D01*
X143071503Y-91214237D01*
X143100500Y-91106018D01*
X143100500Y-90993982D01*
X143071503Y-90885763D01*
X143015485Y-90788737D01*
X142936263Y-90709515D01*
X142839237Y-90653497D01*
X142731018Y-90624500D01*
X142700662Y-90624500D01*
X142633623Y-90604815D01*
X142587868Y-90552011D01*
X142576662Y-90500500D01*
X142576662Y-90459061D01*
X142576662Y-90459059D01*
X142547665Y-90350840D01*
X142491647Y-90253814D01*
X142412425Y-90174592D01*
X142315399Y-90118574D01*
X142207180Y-90089577D01*
X142095144Y-90089577D01*
X141986925Y-90118574D01*
X141986922Y-90118575D01*
X141889902Y-90174590D01*
X141889896Y-90174594D01*
X141810679Y-90253811D01*
X141810675Y-90253817D01*
X141754660Y-90350837D01*
X141754659Y-90350840D01*
X141725662Y-90459059D01*
X134100500Y-90459059D01*
X134100500Y-89195730D01*
X134097646Y-89165300D01*
X134097646Y-89165298D01*
X134052793Y-89037119D01*
X134052792Y-89037117D01*
X133972150Y-88927850D01*
X133862882Y-88847207D01*
X133862881Y-88847206D01*
X133734700Y-88802353D01*
X133704270Y-88799500D01*
X133704266Y-88799500D01*
X132145734Y-88799500D01*
X132145730Y-88799500D01*
X132115300Y-88802353D01*
X132115298Y-88802353D01*
X131987119Y-88847206D01*
X131987117Y-88847207D01*
X131877850Y-88927850D01*
X131797207Y-89037117D01*
X131797206Y-89037119D01*
X131752353Y-89165298D01*
X131752353Y-89165300D01*
X131749500Y-89195730D01*
X120193141Y-89195730D01*
X120193141Y-88743982D01*
X149724500Y-88743982D01*
X149724500Y-88856017D01*
X149753497Y-88964236D01*
X149753498Y-88964239D01*
X149788867Y-89025500D01*
X149805340Y-89093400D01*
X149788867Y-89149500D01*
X149753498Y-89210760D01*
X149753497Y-89210763D01*
X149724500Y-89318982D01*
X149724500Y-89431018D01*
X149725772Y-89435763D01*
X149753497Y-89539236D01*
X149753498Y-89539239D01*
X149756238Y-89543984D01*
X149809515Y-89636263D01*
X149888737Y-89715485D01*
X149985763Y-89771503D01*
X150093982Y-89800500D01*
X150093984Y-89800500D01*
X150206016Y-89800500D01*
X150206018Y-89800500D01*
X150314237Y-89771503D01*
X150411263Y-89715485D01*
X150490485Y-89636263D01*
X150546503Y-89539237D01*
X150558629Y-89493982D01*
X152099500Y-89493982D01*
X152099500Y-89606018D01*
X152112898Y-89656018D01*
X152128497Y-89714236D01*
X152128498Y-89714239D01*
X152129218Y-89715486D01*
X152184515Y-89811263D01*
X152263737Y-89890485D01*
X152360763Y-89946503D01*
X152468982Y-89975500D01*
X152468984Y-89975500D01*
X152581016Y-89975500D01*
X152581018Y-89975500D01*
X152689237Y-89946503D01*
X152786263Y-89890485D01*
X152865485Y-89811263D01*
X152921503Y-89714237D01*
X152950500Y-89606018D01*
X152950500Y-89543982D01*
X155549500Y-89543982D01*
X155549500Y-89656018D01*
X155578497Y-89764237D01*
X155634515Y-89861263D01*
X155713737Y-89940485D01*
X155810763Y-89996503D01*
X155918982Y-90025500D01*
X155918984Y-90025500D01*
X156031016Y-90025500D01*
X156031018Y-90025500D01*
X156139237Y-89996503D01*
X156236263Y-89940485D01*
X156315485Y-89861263D01*
X156371503Y-89764237D01*
X156400500Y-89656018D01*
X156400500Y-89543982D01*
X156371503Y-89435763D01*
X156315485Y-89338737D01*
X156236263Y-89259515D01*
X156149664Y-89209517D01*
X156139239Y-89203498D01*
X156139238Y-89203497D01*
X156139237Y-89203497D01*
X156031018Y-89174500D01*
X155918982Y-89174500D01*
X155810763Y-89203497D01*
X155810760Y-89203498D01*
X155713740Y-89259513D01*
X155713734Y-89259517D01*
X155634517Y-89338734D01*
X155634513Y-89338740D01*
X155578498Y-89435760D01*
X155578497Y-89435763D01*
X155549500Y-89543982D01*
X152950500Y-89543982D01*
X152950500Y-89493982D01*
X152921503Y-89385763D01*
X152865485Y-89288737D01*
X152786263Y-89209515D01*
X152717367Y-89169738D01*
X152689239Y-89153498D01*
X152689238Y-89153497D01*
X152689237Y-89153497D01*
X152581018Y-89124500D01*
X152468982Y-89124500D01*
X152360763Y-89153497D01*
X152360760Y-89153498D01*
X152263740Y-89209513D01*
X152263734Y-89209517D01*
X152184517Y-89288734D01*
X152184513Y-89288740D01*
X152128498Y-89385760D01*
X152128497Y-89385763D01*
X152099500Y-89493982D01*
X150558629Y-89493982D01*
X150575500Y-89431018D01*
X150575500Y-89318982D01*
X150546503Y-89210763D01*
X150511131Y-89149496D01*
X150494659Y-89081601D01*
X150511130Y-89025503D01*
X150546503Y-88964237D01*
X150575500Y-88856018D01*
X150575500Y-88743982D01*
X150546503Y-88635763D01*
X150490485Y-88538737D01*
X150411263Y-88459515D01*
X150314237Y-88403497D01*
X150206018Y-88374500D01*
X150093982Y-88374500D01*
X149985763Y-88403497D01*
X149985760Y-88403498D01*
X149888740Y-88459513D01*
X149888734Y-88459517D01*
X149809517Y-88538734D01*
X149809513Y-88538740D01*
X149753498Y-88635760D01*
X149753497Y-88635763D01*
X149724500Y-88743982D01*
X120193141Y-88743982D01*
X120193141Y-87246530D01*
X131749500Y-87246530D01*
X131749500Y-87453469D01*
X131781929Y-87616498D01*
X131789870Y-87656420D01*
X131869059Y-87847598D01*
X131913587Y-87914239D01*
X131984024Y-88019657D01*
X132130342Y-88165975D01*
X132130345Y-88165977D01*
X132302402Y-88280941D01*
X132493580Y-88360130D01*
X132696530Y-88400499D01*
X132696534Y-88400500D01*
X132696535Y-88400500D01*
X133153466Y-88400500D01*
X133153467Y-88400499D01*
X133356420Y-88360130D01*
X133547598Y-88280941D01*
X133719655Y-88165977D01*
X133865977Y-88019655D01*
X133980941Y-87847598D01*
X134060130Y-87656420D01*
X134062604Y-87643982D01*
X152849500Y-87643982D01*
X152849500Y-87756018D01*
X152878497Y-87864237D01*
X152934515Y-87961263D01*
X153013737Y-88040485D01*
X153110763Y-88096503D01*
X153218982Y-88125500D01*
X153218984Y-88125500D01*
X153331016Y-88125500D01*
X153331018Y-88125500D01*
X153439237Y-88096503D01*
X153536263Y-88040485D01*
X153615485Y-87961263D01*
X153671503Y-87864237D01*
X153700500Y-87756018D01*
X153700500Y-87693982D01*
X161974500Y-87693982D01*
X161974500Y-87806018D01*
X162003497Y-87914237D01*
X162059515Y-88011263D01*
X162138737Y-88090485D01*
X162235763Y-88146503D01*
X162343982Y-88175500D01*
X162343984Y-88175500D01*
X162456016Y-88175500D01*
X162456018Y-88175500D01*
X162564237Y-88146503D01*
X162661263Y-88090485D01*
X162740485Y-88011263D01*
X162796503Y-87914237D01*
X162825500Y-87806018D01*
X162825500Y-87771153D01*
X174649500Y-87771153D01*
X174649500Y-88478846D01*
X174680261Y-88633489D01*
X174680264Y-88633501D01*
X174740602Y-88779172D01*
X174740609Y-88779185D01*
X174828210Y-88910288D01*
X174828213Y-88910292D01*
X174939707Y-89021786D01*
X174939711Y-89021789D01*
X175070814Y-89109390D01*
X175070827Y-89109397D01*
X175177298Y-89153498D01*
X175216503Y-89169737D01*
X175347178Y-89195730D01*
X175371153Y-89200499D01*
X175371156Y-89200500D01*
X175371158Y-89200500D01*
X175528844Y-89200500D01*
X175528845Y-89200499D01*
X175683497Y-89169737D01*
X175829179Y-89109394D01*
X175960289Y-89021789D01*
X176071789Y-88910289D01*
X176159394Y-88779179D01*
X176219737Y-88633497D01*
X176250500Y-88478842D01*
X176250500Y-87771158D01*
X176250500Y-87771155D01*
X176250499Y-87771153D01*
X176649500Y-87771153D01*
X176649500Y-88478846D01*
X176680261Y-88633489D01*
X176680264Y-88633501D01*
X176740602Y-88779172D01*
X176740609Y-88779185D01*
X176828210Y-88910288D01*
X176828213Y-88910292D01*
X176939707Y-89021786D01*
X176939711Y-89021789D01*
X177070814Y-89109390D01*
X177070827Y-89109397D01*
X177177298Y-89153498D01*
X177216503Y-89169737D01*
X177347178Y-89195730D01*
X177371153Y-89200499D01*
X177371156Y-89200500D01*
X177371158Y-89200500D01*
X177528844Y-89200500D01*
X177528845Y-89200499D01*
X177683497Y-89169737D01*
X177829179Y-89109394D01*
X177960289Y-89021789D01*
X178071789Y-88910289D01*
X178159394Y-88779179D01*
X178219737Y-88633497D01*
X178250500Y-88478842D01*
X178250500Y-87771158D01*
X178250500Y-87771155D01*
X178250499Y-87771153D01*
X178235149Y-87693984D01*
X178219737Y-87616503D01*
X178186294Y-87535763D01*
X178159397Y-87470827D01*
X178159390Y-87470814D01*
X178071789Y-87339711D01*
X178071786Y-87339707D01*
X177960292Y-87228213D01*
X177960288Y-87228210D01*
X177829185Y-87140609D01*
X177829172Y-87140602D01*
X177683501Y-87080264D01*
X177683489Y-87080261D01*
X177528845Y-87049500D01*
X177528842Y-87049500D01*
X177371158Y-87049500D01*
X177371155Y-87049500D01*
X177216510Y-87080261D01*
X177216498Y-87080264D01*
X177070827Y-87140602D01*
X177070814Y-87140609D01*
X176939711Y-87228210D01*
X176939707Y-87228213D01*
X176828213Y-87339707D01*
X176828210Y-87339711D01*
X176740609Y-87470814D01*
X176740602Y-87470827D01*
X176680264Y-87616498D01*
X176680261Y-87616510D01*
X176649500Y-87771153D01*
X176250499Y-87771153D01*
X176235149Y-87693984D01*
X176219737Y-87616503D01*
X176186294Y-87535763D01*
X176159397Y-87470827D01*
X176159390Y-87470814D01*
X176071789Y-87339711D01*
X176071786Y-87339707D01*
X175960292Y-87228213D01*
X175960288Y-87228210D01*
X175829185Y-87140609D01*
X175829172Y-87140602D01*
X175683501Y-87080264D01*
X175683489Y-87080261D01*
X175528845Y-87049500D01*
X175528842Y-87049500D01*
X175371158Y-87049500D01*
X175371155Y-87049500D01*
X175216510Y-87080261D01*
X175216498Y-87080264D01*
X175070827Y-87140602D01*
X175070814Y-87140609D01*
X174939711Y-87228210D01*
X174939707Y-87228213D01*
X174828213Y-87339707D01*
X174828210Y-87339711D01*
X174740609Y-87470814D01*
X174740602Y-87470827D01*
X174680264Y-87616498D01*
X174680261Y-87616510D01*
X174649500Y-87771153D01*
X162825500Y-87771153D01*
X162825500Y-87693982D01*
X162796503Y-87585763D01*
X162740485Y-87488737D01*
X162661263Y-87409515D01*
X162574664Y-87359517D01*
X162564239Y-87353498D01*
X162564238Y-87353497D01*
X162564237Y-87353497D01*
X162456018Y-87324500D01*
X162343982Y-87324500D01*
X162235763Y-87353497D01*
X162235760Y-87353498D01*
X162138740Y-87409513D01*
X162138734Y-87409517D01*
X162059517Y-87488734D01*
X162059513Y-87488740D01*
X162003498Y-87585760D01*
X162003497Y-87585763D01*
X161974500Y-87693982D01*
X153700500Y-87693982D01*
X153700500Y-87643982D01*
X153671503Y-87535763D01*
X153615485Y-87438737D01*
X153536263Y-87359515D01*
X153439237Y-87303497D01*
X153331018Y-87274500D01*
X153218982Y-87274500D01*
X153110763Y-87303497D01*
X153110760Y-87303498D01*
X153013740Y-87359513D01*
X153013734Y-87359517D01*
X152934517Y-87438734D01*
X152934513Y-87438740D01*
X152878498Y-87535760D01*
X152878497Y-87535763D01*
X152849500Y-87643982D01*
X134062604Y-87643982D01*
X134068071Y-87616498D01*
X134069033Y-87611664D01*
X134093485Y-87488734D01*
X134100500Y-87453465D01*
X134100500Y-87246535D01*
X134060130Y-87043580D01*
X133980941Y-86852402D01*
X133865977Y-86680345D01*
X133865975Y-86680342D01*
X133719657Y-86534024D01*
X133579666Y-86440486D01*
X133547598Y-86419059D01*
X133547412Y-86418982D01*
X133356420Y-86339870D01*
X133356412Y-86339868D01*
X133153469Y-86299500D01*
X133153465Y-86299500D01*
X132696535Y-86299500D01*
X132696530Y-86299500D01*
X132493587Y-86339868D01*
X132493579Y-86339870D01*
X132302403Y-86419058D01*
X132130342Y-86534024D01*
X131984024Y-86680342D01*
X131869058Y-86852403D01*
X131789870Y-87043579D01*
X131789868Y-87043587D01*
X131749500Y-87246530D01*
X120193141Y-87246530D01*
X120193141Y-85343982D01*
X143824500Y-85343982D01*
X143824500Y-85456018D01*
X143853497Y-85564237D01*
X143909515Y-85661263D01*
X143909517Y-85661265D01*
X143910577Y-85662325D01*
X143911184Y-85663437D01*
X143914462Y-85667709D01*
X143913795Y-85668220D01*
X143944057Y-85723651D01*
X143939068Y-85793342D01*
X143914177Y-85832072D01*
X143914462Y-85832291D01*
X143911847Y-85835698D01*
X143910577Y-85837675D01*
X143909517Y-85838734D01*
X143909513Y-85838740D01*
X143853498Y-85935760D01*
X143853497Y-85935763D01*
X143824500Y-86043982D01*
X143824500Y-86156018D01*
X143839967Y-86213740D01*
X143853497Y-86264236D01*
X143853498Y-86264239D01*
X143856238Y-86268984D01*
X143909515Y-86361263D01*
X143988737Y-86440485D01*
X144085763Y-86496503D01*
X144193982Y-86525500D01*
X144193984Y-86525500D01*
X144306016Y-86525500D01*
X144306018Y-86525500D01*
X144414237Y-86496503D01*
X144511263Y-86440485D01*
X144511263Y-86440484D01*
X144513000Y-86439482D01*
X144580900Y-86423009D01*
X144637000Y-86439482D01*
X144638736Y-86440484D01*
X144638737Y-86440485D01*
X144735763Y-86496503D01*
X144843982Y-86525500D01*
X144843984Y-86525500D01*
X144956016Y-86525500D01*
X144956018Y-86525500D01*
X145064237Y-86496503D01*
X145161263Y-86440485D01*
X145240485Y-86361263D01*
X145293763Y-86268982D01*
X159199500Y-86268982D01*
X159199500Y-86381018D01*
X159228497Y-86489237D01*
X159284515Y-86586263D01*
X159363737Y-86665485D01*
X159460763Y-86721503D01*
X159568982Y-86750500D01*
X159568984Y-86750500D01*
X159681016Y-86750500D01*
X159681018Y-86750500D01*
X159789237Y-86721503D01*
X159886263Y-86665485D01*
X159965485Y-86586263D01*
X160021503Y-86489237D01*
X160040328Y-86418982D01*
X167349500Y-86418982D01*
X167349500Y-86531018D01*
X167378497Y-86639237D01*
X167434515Y-86736263D01*
X167513737Y-86815485D01*
X167610763Y-86871503D01*
X167718982Y-86900500D01*
X167718984Y-86900500D01*
X167831016Y-86900500D01*
X167831018Y-86900500D01*
X167939237Y-86871503D01*
X168036263Y-86815485D01*
X168115485Y-86736263D01*
X168171503Y-86639237D01*
X168200500Y-86531018D01*
X168200500Y-86418982D01*
X168171503Y-86310763D01*
X168115485Y-86213737D01*
X168036263Y-86134515D01*
X167939237Y-86078497D01*
X167831018Y-86049500D01*
X167718982Y-86049500D01*
X167610763Y-86078497D01*
X167610760Y-86078498D01*
X167513740Y-86134513D01*
X167513734Y-86134517D01*
X167434517Y-86213734D01*
X167434513Y-86213740D01*
X167378498Y-86310760D01*
X167378497Y-86310763D01*
X167349500Y-86418982D01*
X160040328Y-86418982D01*
X160050500Y-86381018D01*
X160050500Y-86268982D01*
X160021503Y-86160763D01*
X159965485Y-86063737D01*
X159886263Y-85984515D01*
X159789237Y-85928497D01*
X159681018Y-85899500D01*
X159568982Y-85899500D01*
X159460763Y-85928497D01*
X159460760Y-85928498D01*
X159363740Y-85984513D01*
X159363734Y-85984517D01*
X159284517Y-86063734D01*
X159284513Y-86063740D01*
X159228498Y-86160760D01*
X159228497Y-86160763D01*
X159199500Y-86268982D01*
X145293763Y-86268982D01*
X145296503Y-86264237D01*
X145325500Y-86156018D01*
X145325500Y-86043982D01*
X145296503Y-85935763D01*
X145240485Y-85838737D01*
X145239429Y-85837681D01*
X145238824Y-85836573D01*
X145235538Y-85832291D01*
X145236205Y-85831778D01*
X145205944Y-85776358D01*
X145210928Y-85706666D01*
X145235823Y-85667928D01*
X145235538Y-85667709D01*
X145238165Y-85664284D01*
X145239429Y-85662319D01*
X145240485Y-85661263D01*
X145296503Y-85564237D01*
X145325500Y-85456018D01*
X145325500Y-85343982D01*
X145296503Y-85235763D01*
X145240485Y-85138737D01*
X145161263Y-85059515D01*
X145064237Y-85003497D01*
X144956018Y-84974500D01*
X144843982Y-84974500D01*
X144735763Y-85003497D01*
X144735762Y-85003497D01*
X144636999Y-85060518D01*
X144569099Y-85076990D01*
X144513001Y-85060518D01*
X144414237Y-85003497D01*
X144306018Y-84974500D01*
X144193982Y-84974500D01*
X144085763Y-85003497D01*
X144085760Y-85003498D01*
X143988740Y-85059513D01*
X143988734Y-85059517D01*
X143909517Y-85138734D01*
X143909513Y-85138740D01*
X143853498Y-85235760D01*
X143853497Y-85235763D01*
X143824500Y-85343982D01*
X120193141Y-85343982D01*
X120193141Y-82246530D01*
X131749500Y-82246530D01*
X131749500Y-82453469D01*
X131789868Y-82656412D01*
X131789870Y-82656420D01*
X131865169Y-82838208D01*
X131869059Y-82847598D01*
X131926541Y-82933626D01*
X131984024Y-83019657D01*
X132130342Y-83165975D01*
X132130345Y-83165977D01*
X132302402Y-83280941D01*
X132493580Y-83360130D01*
X132696530Y-83400499D01*
X132696534Y-83400500D01*
X132696535Y-83400500D01*
X133153466Y-83400500D01*
X133153467Y-83400499D01*
X133356420Y-83360130D01*
X133547598Y-83280941D01*
X133719655Y-83165977D01*
X133865977Y-83019655D01*
X133980941Y-82847598D01*
X134060130Y-82656420D01*
X134100500Y-82453465D01*
X134100500Y-82346530D01*
X141849500Y-82346530D01*
X141849500Y-82853469D01*
X141889868Y-83056412D01*
X141889870Y-83056420D01*
X141969058Y-83247596D01*
X142084024Y-83419657D01*
X142230342Y-83565975D01*
X142230345Y-83565977D01*
X142402402Y-83680941D01*
X142593580Y-83760130D01*
X142796530Y-83800499D01*
X142796534Y-83800500D01*
X142796535Y-83800500D01*
X143003466Y-83800500D01*
X143003467Y-83800499D01*
X143206420Y-83760130D01*
X143397598Y-83680941D01*
X143569655Y-83565977D01*
X143715977Y-83419655D01*
X143830941Y-83247598D01*
X143910130Y-83056420D01*
X143950500Y-82853465D01*
X143950500Y-82346535D01*
X143910130Y-82143580D01*
X143830941Y-81952402D01*
X143715977Y-81780345D01*
X143715975Y-81780342D01*
X143569657Y-81634024D01*
X143483626Y-81576541D01*
X143397598Y-81519059D01*
X143326736Y-81489707D01*
X143206420Y-81439870D01*
X143206412Y-81439868D01*
X143003469Y-81399500D01*
X143003465Y-81399500D01*
X142796535Y-81399500D01*
X142796530Y-81399500D01*
X142593587Y-81439868D01*
X142593579Y-81439870D01*
X142402403Y-81519058D01*
X142230342Y-81634024D01*
X142084024Y-81780342D01*
X141969058Y-81952403D01*
X141889870Y-82143579D01*
X141889868Y-82143587D01*
X141849500Y-82346530D01*
X134100500Y-82346530D01*
X134100500Y-82246535D01*
X134060130Y-82043580D01*
X133980941Y-81852402D01*
X133865977Y-81680345D01*
X133865975Y-81680342D01*
X133719657Y-81534024D01*
X133578741Y-81439868D01*
X133547598Y-81419059D01*
X133448980Y-81378210D01*
X133356420Y-81339870D01*
X133356412Y-81339868D01*
X133153469Y-81299500D01*
X133153465Y-81299500D01*
X132696535Y-81299500D01*
X132696530Y-81299500D01*
X132493587Y-81339868D01*
X132493579Y-81339870D01*
X132302403Y-81419058D01*
X132130342Y-81534024D01*
X131984024Y-81680342D01*
X131869058Y-81852403D01*
X131789870Y-82043579D01*
X131789868Y-82043587D01*
X131749500Y-82246530D01*
X120193141Y-82246530D01*
X120193141Y-80002424D01*
X120193237Y-79997556D01*
X120195099Y-79950172D01*
X120203100Y-79746530D01*
X131749500Y-79746530D01*
X131749500Y-79953469D01*
X131789868Y-80156412D01*
X131789870Y-80156420D01*
X131869058Y-80347596D01*
X131984024Y-80519657D01*
X132130342Y-80665975D01*
X132130345Y-80665977D01*
X132302402Y-80780941D01*
X132493580Y-80860130D01*
X132696530Y-80900499D01*
X132696534Y-80900500D01*
X132696535Y-80900500D01*
X133153466Y-80900500D01*
X133153467Y-80900499D01*
X133356420Y-80860130D01*
X133547598Y-80780941D01*
X133719655Y-80665977D01*
X133865977Y-80519655D01*
X133980941Y-80347598D01*
X134060130Y-80156420D01*
X134100500Y-79953465D01*
X134100500Y-79937747D01*
X148552000Y-79937747D01*
X148552000Y-82477252D01*
X148563631Y-82535729D01*
X148563632Y-82535730D01*
X148607947Y-82602052D01*
X148674269Y-82646367D01*
X148674270Y-82646368D01*
X148732747Y-82657999D01*
X148732750Y-82658000D01*
X148732752Y-82658000D01*
X150472250Y-82658000D01*
X150472251Y-82657999D01*
X150487068Y-82655052D01*
X150530729Y-82646368D01*
X150530729Y-82646367D01*
X150530731Y-82646367D01*
X150597052Y-82602052D01*
X150641367Y-82535731D01*
X150641367Y-82535729D01*
X150641368Y-82535729D01*
X150652999Y-82477252D01*
X150653000Y-82477250D01*
X150653000Y-80704030D01*
X153632000Y-80704030D01*
X153632000Y-81710969D01*
X153672368Y-81913912D01*
X153672370Y-81913920D01*
X153751559Y-82105098D01*
X153809041Y-82191126D01*
X153866524Y-82277157D01*
X153910374Y-82321007D01*
X153943859Y-82382330D01*
X153938875Y-82452022D01*
X153897003Y-82507955D01*
X153884701Y-82516070D01*
X153878746Y-82519508D01*
X153878734Y-82519517D01*
X153799517Y-82598734D01*
X153799513Y-82598740D01*
X153743498Y-82695760D01*
X153743497Y-82695763D01*
X153714500Y-82803982D01*
X153714500Y-82916018D01*
X153743497Y-83024237D01*
X153799515Y-83121263D01*
X153799517Y-83121265D01*
X153825571Y-83147319D01*
X153859056Y-83208642D01*
X153854072Y-83278334D01*
X153832979Y-83311153D01*
X153834462Y-83312291D01*
X153829513Y-83318740D01*
X153773498Y-83415760D01*
X153773497Y-83415763D01*
X153744500Y-83523982D01*
X153744500Y-83636018D01*
X153749859Y-83656016D01*
X153773497Y-83744236D01*
X153773498Y-83744239D01*
X153833579Y-83848302D01*
X153831600Y-83849444D01*
X153852538Y-83903607D01*
X153838498Y-83972051D01*
X153816656Y-84001594D01*
X153809520Y-84008730D01*
X153809513Y-84008740D01*
X153753498Y-84105760D01*
X153753497Y-84105763D01*
X153724500Y-84213982D01*
X153724500Y-84326018D01*
X153751906Y-84428297D01*
X153753497Y-84434236D01*
X153753498Y-84434239D01*
X153761154Y-84447499D01*
X153809515Y-84531263D01*
X153888737Y-84610485D01*
X153985763Y-84666503D01*
X154093982Y-84695500D01*
X154093984Y-84695500D01*
X154206016Y-84695500D01*
X154206018Y-84695500D01*
X154314237Y-84666503D01*
X154411263Y-84610485D01*
X154490485Y-84531263D01*
X154538846Y-84447500D01*
X154547533Y-84439216D01*
X154552520Y-84428297D01*
X154572351Y-84415552D01*
X154589413Y-84399284D01*
X154602669Y-84396068D01*
X154611298Y-84390523D01*
X154646233Y-84385500D01*
X154739540Y-84385500D01*
X154806579Y-84405185D01*
X154846927Y-84447499D01*
X154889515Y-84521263D01*
X154968737Y-84600485D01*
X155065763Y-84656503D01*
X155173982Y-84685500D01*
X155173984Y-84685500D01*
X155286016Y-84685500D01*
X155286018Y-84685500D01*
X155394237Y-84656503D01*
X155491263Y-84600485D01*
X155570485Y-84521263D01*
X155626503Y-84424237D01*
X155655500Y-84316018D01*
X155655500Y-84203982D01*
X155626503Y-84095763D01*
X155570485Y-83998737D01*
X155570484Y-83998736D01*
X155566595Y-83992000D01*
X155550122Y-83924100D01*
X155566595Y-83868000D01*
X155570485Y-83861263D01*
X155626503Y-83764237D01*
X155655500Y-83656018D01*
X155655500Y-83543982D01*
X155626503Y-83435763D01*
X155570485Y-83338737D01*
X155570484Y-83338736D01*
X155568312Y-83335905D01*
X155567222Y-83333085D01*
X155566421Y-83331698D01*
X155566637Y-83331573D01*
X155543119Y-83270735D01*
X155557158Y-83202290D01*
X155579011Y-83172736D01*
X155580485Y-83171263D01*
X155636503Y-83074237D01*
X155665500Y-82966018D01*
X155665500Y-82853982D01*
X155636503Y-82745763D01*
X155580485Y-82648737D01*
X155501263Y-82569515D01*
X155454096Y-82542283D01*
X155405882Y-82491718D01*
X155392658Y-82423111D01*
X155418626Y-82358246D01*
X155428408Y-82347223D01*
X155498477Y-82277155D01*
X155602713Y-82121153D01*
X161824500Y-82121153D01*
X161824500Y-82278846D01*
X161855261Y-82433489D01*
X161855264Y-82433501D01*
X161915602Y-82579172D01*
X161915609Y-82579185D01*
X162003210Y-82710288D01*
X162003213Y-82710292D01*
X162114707Y-82821786D01*
X162114711Y-82821789D01*
X162245814Y-82909390D01*
X162245827Y-82909397D01*
X162382522Y-82966017D01*
X162391503Y-82969737D01*
X162546153Y-83000499D01*
X162546156Y-83000500D01*
X162546158Y-83000500D01*
X163253844Y-83000500D01*
X163253845Y-83000499D01*
X163408497Y-82969737D01*
X163554179Y-82909394D01*
X163685289Y-82821789D01*
X163796789Y-82710289D01*
X163884394Y-82579179D01*
X163944737Y-82433497D01*
X163975500Y-82278842D01*
X163975500Y-82121158D01*
X163975500Y-82121155D01*
X163975499Y-82121153D01*
X163972305Y-82105096D01*
X163944737Y-81966503D01*
X163925955Y-81921158D01*
X163925953Y-81921153D01*
X167874500Y-81921153D01*
X167874500Y-82078846D01*
X167905261Y-82233489D01*
X167905264Y-82233501D01*
X167965602Y-82379172D01*
X167965609Y-82379185D01*
X168053210Y-82510288D01*
X168053213Y-82510292D01*
X168164707Y-82621786D01*
X168164711Y-82621789D01*
X168295814Y-82709390D01*
X168295827Y-82709397D01*
X168383624Y-82745763D01*
X168441503Y-82769737D01*
X168596153Y-82800499D01*
X168596156Y-82800500D01*
X168596158Y-82800500D01*
X169303844Y-82800500D01*
X169303845Y-82800499D01*
X169458497Y-82769737D01*
X169604179Y-82709394D01*
X169735289Y-82621789D01*
X169846789Y-82510289D01*
X169934394Y-82379179D01*
X169994737Y-82233497D01*
X170025500Y-82078842D01*
X170025500Y-81921158D01*
X170025500Y-81921155D01*
X170025499Y-81921153D01*
X170005543Y-81820827D01*
X169994737Y-81766503D01*
X169962929Y-81689711D01*
X169934397Y-81620827D01*
X169934390Y-81620814D01*
X169846789Y-81489711D01*
X169846786Y-81489707D01*
X169735292Y-81378213D01*
X169735288Y-81378210D01*
X169604185Y-81290609D01*
X169604172Y-81290602D01*
X169458501Y-81230264D01*
X169458489Y-81230261D01*
X169303845Y-81199500D01*
X169303842Y-81199500D01*
X168596158Y-81199500D01*
X168596155Y-81199500D01*
X168441510Y-81230261D01*
X168441498Y-81230264D01*
X168295827Y-81290602D01*
X168295814Y-81290609D01*
X168164711Y-81378210D01*
X168164707Y-81378213D01*
X168053213Y-81489707D01*
X168053210Y-81489711D01*
X167965609Y-81620814D01*
X167965602Y-81620827D01*
X167905264Y-81766498D01*
X167905261Y-81766510D01*
X167874500Y-81921153D01*
X163925953Y-81921153D01*
X163884397Y-81820827D01*
X163884390Y-81820814D01*
X163796789Y-81689711D01*
X163796786Y-81689707D01*
X163685292Y-81578213D01*
X163685288Y-81578210D01*
X163554185Y-81490609D01*
X163554172Y-81490602D01*
X163408501Y-81430264D01*
X163408489Y-81430261D01*
X163253845Y-81399500D01*
X163253842Y-81399500D01*
X162546158Y-81399500D01*
X162546155Y-81399500D01*
X162391510Y-81430261D01*
X162391498Y-81430264D01*
X162245827Y-81490602D01*
X162245814Y-81490609D01*
X162114711Y-81578210D01*
X162114707Y-81578213D01*
X162003213Y-81689707D01*
X162003210Y-81689711D01*
X161915609Y-81820814D01*
X161915602Y-81820827D01*
X161855264Y-81966498D01*
X161855261Y-81966510D01*
X161824500Y-82121153D01*
X155602713Y-82121153D01*
X155613441Y-82105098D01*
X155692630Y-81913920D01*
X155733000Y-81710965D01*
X155733000Y-80704035D01*
X155692630Y-80501080D01*
X155613441Y-80309902D01*
X155498477Y-80137845D01*
X155498475Y-80137842D01*
X155481786Y-80121153D01*
X161824500Y-80121153D01*
X161824500Y-80278846D01*
X161855261Y-80433489D01*
X161855264Y-80433501D01*
X161915602Y-80579172D01*
X161915609Y-80579185D01*
X162003210Y-80710288D01*
X162003213Y-80710292D01*
X162114707Y-80821786D01*
X162114711Y-80821789D01*
X162245814Y-80909390D01*
X162245827Y-80909397D01*
X162391498Y-80969735D01*
X162391503Y-80969737D01*
X162546153Y-81000499D01*
X162546156Y-81000500D01*
X162546158Y-81000500D01*
X163253844Y-81000500D01*
X163253845Y-81000499D01*
X163408497Y-80969737D01*
X163554179Y-80909394D01*
X163685289Y-80821789D01*
X163796789Y-80710289D01*
X163884394Y-80579179D01*
X163944737Y-80433497D01*
X163975500Y-80278842D01*
X163975500Y-80121158D01*
X163975500Y-80121155D01*
X163975499Y-80121153D01*
X163944737Y-79966503D01*
X163925955Y-79921158D01*
X163925953Y-79921153D01*
X167874500Y-79921153D01*
X167874500Y-80078846D01*
X167905261Y-80233489D01*
X167905264Y-80233501D01*
X167965602Y-80379172D01*
X167965609Y-80379185D01*
X168053210Y-80510288D01*
X168053213Y-80510292D01*
X168164707Y-80621786D01*
X168164711Y-80621789D01*
X168295814Y-80709390D01*
X168295827Y-80709397D01*
X168441498Y-80769735D01*
X168441503Y-80769737D01*
X168596153Y-80800499D01*
X168596156Y-80800500D01*
X168596158Y-80800500D01*
X169303844Y-80800500D01*
X169303845Y-80800499D01*
X169458497Y-80769737D01*
X169604179Y-80709394D01*
X169735289Y-80621789D01*
X169846789Y-80510289D01*
X169934394Y-80379179D01*
X169994737Y-80233497D01*
X170025500Y-80078842D01*
X170025500Y-79921158D01*
X170025500Y-79921155D01*
X170025499Y-79921153D01*
X170005543Y-79820827D01*
X169994737Y-79766503D01*
X169962929Y-79689711D01*
X169934397Y-79620827D01*
X169934390Y-79620814D01*
X169846789Y-79489711D01*
X169846786Y-79489707D01*
X169735292Y-79378213D01*
X169735288Y-79378210D01*
X169604185Y-79290609D01*
X169604172Y-79290602D01*
X169458501Y-79230264D01*
X169458489Y-79230261D01*
X169303845Y-79199500D01*
X169303842Y-79199500D01*
X168596158Y-79199500D01*
X168596155Y-79199500D01*
X168441510Y-79230261D01*
X168441498Y-79230264D01*
X168295827Y-79290602D01*
X168295814Y-79290609D01*
X168164711Y-79378210D01*
X168164707Y-79378213D01*
X168053213Y-79489707D01*
X168053210Y-79489711D01*
X167965609Y-79620814D01*
X167965602Y-79620827D01*
X167905264Y-79766498D01*
X167905261Y-79766510D01*
X167874500Y-79921153D01*
X163925953Y-79921153D01*
X163884397Y-79820827D01*
X163884390Y-79820814D01*
X163796789Y-79689711D01*
X163796786Y-79689707D01*
X163685292Y-79578213D01*
X163685288Y-79578210D01*
X163554185Y-79490609D01*
X163554172Y-79490602D01*
X163408501Y-79430264D01*
X163408489Y-79430261D01*
X163253845Y-79399500D01*
X163253842Y-79399500D01*
X162546158Y-79399500D01*
X162546155Y-79399500D01*
X162391510Y-79430261D01*
X162391498Y-79430264D01*
X162245827Y-79490602D01*
X162245814Y-79490609D01*
X162114711Y-79578210D01*
X162114707Y-79578213D01*
X162003213Y-79689707D01*
X162003210Y-79689711D01*
X161915609Y-79820814D01*
X161915602Y-79820827D01*
X161855264Y-79966498D01*
X161855261Y-79966510D01*
X161824500Y-80121153D01*
X155481786Y-80121153D01*
X155352157Y-79991524D01*
X155266126Y-79934041D01*
X155180098Y-79876559D01*
X155045535Y-79820821D01*
X154988920Y-79797370D01*
X154988912Y-79797368D01*
X154785969Y-79757000D01*
X154785965Y-79757000D01*
X154579035Y-79757000D01*
X154579030Y-79757000D01*
X154376087Y-79797368D01*
X154376079Y-79797370D01*
X154184903Y-79876558D01*
X154012842Y-79991524D01*
X153866524Y-80137842D01*
X153751558Y-80309903D01*
X153672370Y-80501079D01*
X153672368Y-80501087D01*
X153632000Y-80704030D01*
X150653000Y-80704030D01*
X150653000Y-79937749D01*
X150652999Y-79937747D01*
X150641368Y-79879270D01*
X150641367Y-79879269D01*
X150597052Y-79812947D01*
X150530730Y-79768632D01*
X150530729Y-79768631D01*
X150472252Y-79757000D01*
X150472248Y-79757000D01*
X148732752Y-79757000D01*
X148732747Y-79757000D01*
X148674270Y-79768631D01*
X148674269Y-79768632D01*
X148607947Y-79812947D01*
X148563632Y-79879269D01*
X148563631Y-79879270D01*
X148552000Y-79937747D01*
X134100500Y-79937747D01*
X134100500Y-79746535D01*
X134060130Y-79543580D01*
X133980941Y-79352402D01*
X133865977Y-79180345D01*
X133865975Y-79180342D01*
X133719657Y-79034024D01*
X133633626Y-78976541D01*
X133547598Y-78919059D01*
X133356420Y-78839870D01*
X133356412Y-78839868D01*
X133153469Y-78799500D01*
X133153465Y-78799500D01*
X132696535Y-78799500D01*
X132696530Y-78799500D01*
X132493587Y-78839868D01*
X132493579Y-78839870D01*
X132302403Y-78919058D01*
X132130342Y-79034024D01*
X131984024Y-79180342D01*
X131869058Y-79352403D01*
X131789870Y-79543579D01*
X131789868Y-79543587D01*
X131749500Y-79746530D01*
X120203100Y-79746530D01*
X120210674Y-79553750D01*
X120211435Y-79544080D01*
X120263355Y-79105411D01*
X120264877Y-79095805D01*
X120274219Y-79048843D01*
X120351051Y-78662579D01*
X120353322Y-78653121D01*
X120361464Y-78624254D01*
X120473219Y-78228002D01*
X120476225Y-78218749D01*
X120485555Y-78193460D01*
X120629113Y-77804328D01*
X120632836Y-77795342D01*
X120647068Y-77764471D01*
X120817770Y-77394191D01*
X120822177Y-77385544D01*
X120900029Y-77246530D01*
X131749500Y-77246530D01*
X131749500Y-77453469D01*
X131789868Y-77656412D01*
X131789870Y-77656420D01*
X131869058Y-77847596D01*
X131984024Y-78019657D01*
X132130342Y-78165975D01*
X132130345Y-78165977D01*
X132302402Y-78280941D01*
X132493580Y-78360130D01*
X132696530Y-78400499D01*
X132696534Y-78400500D01*
X132696535Y-78400500D01*
X133153466Y-78400500D01*
X133153467Y-78400499D01*
X133356420Y-78360130D01*
X133547598Y-78280941D01*
X133719655Y-78165977D01*
X133865977Y-78019655D01*
X133980941Y-77847598D01*
X134060130Y-77656420D01*
X134072202Y-77595730D01*
X167874500Y-77595730D01*
X167874500Y-78404269D01*
X167877353Y-78434699D01*
X167877353Y-78434701D01*
X167922206Y-78562880D01*
X167922207Y-78562882D01*
X168002850Y-78672150D01*
X168112118Y-78752793D01*
X168154845Y-78767744D01*
X168240299Y-78797646D01*
X168270730Y-78800500D01*
X168270734Y-78800500D01*
X169629270Y-78800500D01*
X169659699Y-78797646D01*
X169659701Y-78797646D01*
X169723790Y-78775219D01*
X169787882Y-78752793D01*
X169897150Y-78672150D01*
X169977793Y-78562882D01*
X170000219Y-78498790D01*
X170022646Y-78434701D01*
X170022646Y-78434699D01*
X170025500Y-78404269D01*
X170025500Y-77595730D01*
X170022646Y-77565300D01*
X170022646Y-77565298D01*
X169977793Y-77437119D01*
X169977792Y-77437117D01*
X169897150Y-77327850D01*
X169787882Y-77247207D01*
X169787880Y-77247206D01*
X169659700Y-77202353D01*
X169629270Y-77199500D01*
X169629266Y-77199500D01*
X168270734Y-77199500D01*
X168270730Y-77199500D01*
X168240300Y-77202353D01*
X168240298Y-77202353D01*
X168112119Y-77247206D01*
X168112117Y-77247207D01*
X168002850Y-77327850D01*
X167922207Y-77437117D01*
X167922206Y-77437119D01*
X167877353Y-77565298D01*
X167877353Y-77565300D01*
X167874500Y-77595730D01*
X134072202Y-77595730D01*
X134078256Y-77565298D01*
X134100499Y-77453468D01*
X134100500Y-77453466D01*
X134100500Y-77246534D01*
X134100499Y-77246530D01*
X134066837Y-77077301D01*
X134060130Y-77043580D01*
X133980941Y-76852402D01*
X133865977Y-76680345D01*
X133865975Y-76680342D01*
X133719657Y-76534024D01*
X133633626Y-76476541D01*
X133547598Y-76419059D01*
X133356420Y-76339870D01*
X133356412Y-76339868D01*
X133153469Y-76299500D01*
X133153465Y-76299500D01*
X132696535Y-76299500D01*
X132696530Y-76299500D01*
X132493587Y-76339868D01*
X132493579Y-76339870D01*
X132302403Y-76419058D01*
X132130342Y-76534024D01*
X131984024Y-76680342D01*
X131869058Y-76852403D01*
X131789870Y-77043579D01*
X131789868Y-77043587D01*
X131749500Y-77246530D01*
X120900029Y-77246530D01*
X121038027Y-77000119D01*
X121043078Y-76991877D01*
X121288494Y-76624587D01*
X121294215Y-76616714D01*
X121544289Y-76299500D01*
X121567678Y-76269830D01*
X121573997Y-76262433D01*
X121873830Y-75938076D01*
X121880702Y-75931204D01*
X122205064Y-75631370D01*
X122212465Y-75625050D01*
X122559345Y-75351593D01*
X122567206Y-75345880D01*
X122934504Y-75100461D01*
X122942766Y-75095398D01*
X123328195Y-74879550D01*
X123336839Y-74875147D01*
X123737996Y-74690213D01*
X123746955Y-74686502D01*
X124161391Y-74533611D01*
X124170617Y-74530613D01*
X124595774Y-74410709D01*
X124605210Y-74408443D01*
X125038456Y-74322268D01*
X125048044Y-74320750D01*
X125486722Y-74268832D01*
X125496410Y-74268070D01*
X125699872Y-74260077D01*
X125941249Y-74250596D01*
X125946116Y-74250500D01*
X125986809Y-74250500D01*
X177330830Y-74250500D01*
X177372575Y-74250500D01*
X177377443Y-74250596D01*
G37*
%TD.AperFunction*%
M02*
