%TF.GenerationSoftware,KiCad,Pcbnew,9.0.0*%
%TF.CreationDate,2025-04-03T16:38:41+02:00*%
%TF.ProjectId,PCB_projetV2,5043425f-7072-46f6-9a65-7456322e6b69,03/04/2025*%
%TF.SameCoordinates,Original*%
%TF.FileFunction,Soldermask,Bot*%
%TF.FilePolarity,Negative*%
%FSLAX46Y46*%
G04 Gerber Fmt 4.6, Leading zero omitted, Abs format (unit mm)*
G04 Created by KiCad (PCBNEW 9.0.0) date 2025-04-03 16:38:41*
%MOMM*%
%LPD*%
G01*
G04 APERTURE LIST*
G04 Aperture macros list*
%AMRoundRect*
0 Rectangle with rounded corners*
0 $1 Rounding radius*
0 $2 $3 $4 $5 $6 $7 $8 $9 X,Y pos of 4 corners*
0 Add a 4 corners polygon primitive as box body*
4,1,4,$2,$3,$4,$5,$6,$7,$8,$9,$2,$3,0*
0 Add four circle primitives for the rounded corners*
1,1,$1+$1,$2,$3*
1,1,$1+$1,$4,$5*
1,1,$1+$1,$6,$7*
1,1,$1+$1,$8,$9*
0 Add four rect primitives between the rounded corners*
20,1,$1+$1,$2,$3,$4,$5,0*
20,1,$1+$1,$4,$5,$6,$7,0*
20,1,$1+$1,$6,$7,$8,$9,0*
20,1,$1+$1,$8,$9,$2,$3,0*%
G04 Aperture macros list end*
%ADD10R,1.700000X1.700000*%
%ADD11O,1.700000X1.700000*%
%ADD12C,5.400000*%
%ADD13RoundRect,0.250000X0.725000X-0.600000X0.725000X0.600000X-0.725000X0.600000X-0.725000X-0.600000X0*%
%ADD14O,1.950000X1.700000*%
%ADD15RoundRect,0.250000X-0.625000X0.350000X-0.625000X-0.350000X0.625000X-0.350000X0.625000X0.350000X0*%
%ADD16O,1.750000X1.200000*%
%ADD17RoundRect,0.250000X0.350000X0.625000X-0.350000X0.625000X-0.350000X-0.625000X0.350000X-0.625000X0*%
%ADD18O,1.200000X1.750000*%
%ADD19RoundRect,0.225000X-0.250000X0.225000X-0.250000X-0.225000X0.250000X-0.225000X0.250000X0.225000X0*%
%ADD20RoundRect,0.140000X0.140000X0.170000X-0.140000X0.170000X-0.140000X-0.170000X0.140000X-0.170000X0*%
%ADD21RoundRect,0.250000X-0.250000X-0.475000X0.250000X-0.475000X0.250000X0.475000X-0.250000X0.475000X0*%
%ADD22RoundRect,0.250000X0.600000X0.750000X-0.600000X0.750000X-0.600000X-0.750000X0.600000X-0.750000X0*%
%ADD23O,1.700000X2.000000*%
%ADD24C,2.000000*%
%ADD25RoundRect,0.250000X-0.600000X-0.750000X0.600000X-0.750000X0.600000X0.750000X-0.600000X0.750000X0*%
%ADD26RoundRect,0.225000X0.250000X-0.225000X0.250000X0.225000X-0.250000X0.225000X-0.250000X-0.225000X0*%
%ADD27R,1.700000X2.500000*%
%ADD28O,1.700000X2.500000*%
G04 APERTURE END LIST*
D10*
X148810000Y-109325000D03*
D11*
X151350000Y-109325000D03*
X148810000Y-106785000D03*
X151350000Y-106785000D03*
X148810000Y-104245000D03*
X151350000Y-104245000D03*
D12*
X126000000Y-80000000D03*
D13*
X175125000Y-106600000D03*
D14*
X175125000Y-104100000D03*
X175125000Y-101600000D03*
X175125000Y-99100000D03*
X175125000Y-96600000D03*
X175125000Y-94100000D03*
D15*
X162900000Y-78200000D03*
D16*
X162900000Y-80200000D03*
X162900000Y-82200000D03*
D10*
X175400000Y-111800000D03*
D11*
X172860000Y-111800000D03*
X170320000Y-111800000D03*
X167780000Y-111800000D03*
D17*
X179450000Y-88125000D03*
D18*
X177450000Y-88125000D03*
X175450000Y-88125000D03*
D12*
X126000000Y-110000000D03*
X177000000Y-80000000D03*
D15*
X168950000Y-78000000D03*
D16*
X168950000Y-80000000D03*
X168950000Y-82000000D03*
X168950000Y-84000000D03*
D19*
X149800000Y-84525000D03*
X149800000Y-86075000D03*
D20*
X172160000Y-107090000D03*
X171200000Y-107090000D03*
D19*
X147700000Y-84525000D03*
X147700000Y-86075000D03*
D13*
X132925000Y-89850000D03*
D14*
X132925000Y-87350000D03*
X132925000Y-84850000D03*
X132925000Y-82350000D03*
X132925000Y-79850000D03*
X132925000Y-77350000D03*
D21*
X154750000Y-85300000D03*
X156650000Y-85300000D03*
D10*
X125300000Y-93725000D03*
D11*
X125300000Y-96265000D03*
D22*
X142600000Y-99275000D03*
D23*
X140100000Y-99275000D03*
D24*
X167275000Y-96075000D03*
D13*
X132925000Y-111750000D03*
D14*
X132925000Y-109250000D03*
X132925000Y-106750000D03*
X132925000Y-104250000D03*
X132925000Y-101750000D03*
X132925000Y-99250000D03*
D24*
X159800000Y-81100000D03*
D25*
X140400000Y-82600000D03*
D23*
X142900000Y-82600000D03*
D26*
X165340000Y-79715000D03*
X165340000Y-78165000D03*
D27*
X149602500Y-81207500D03*
D28*
X152142500Y-81207500D03*
X154682500Y-81207500D03*
M02*
